{"glyphs":{"0":{"ha":897,"x_min":75,"x_max":858,"o":"m 92 507 q 244 875 133 740 q 556 1010 354 1010 q 858 682 858 1010 q 842 507 858 599 q 378 3 753 3 q 75 332 75 3 q 92 507 75 415 m 650 507 q 667 661 667 600 q 634 785 667 740 q 524 829 601 829 q 361 744 413 829 q 283 507 310 660 q 267 353 267 414 q 299 228 267 272 q 410 183 332 183 q 535 226 488 183 q 607 338 582 269 q 650 507 632 407 z "},"1":{"ha":503,"x_min":113,"x_max":488,"o":"m 121 806 l 154 986 l 488 986 l 313 0 l 113 0 l 254 806 l 121 806 z "},"2":{"ha":797,"x_min":-6,"x_max":786,"o":"m 111 225 q 353 409 265 338 q 506 557 442 481 q 583 706 571 633 q 588 746 588 726 q 559 824 588 796 q 472 851 531 851 q 360 806 404 851 q 297 678 315 761 l 110 678 q 253 931 143 844 q 507 1017 363 1017 q 715 952 644 1017 q 786 781 786 888 q 781 718 786 746 q 688 518 763 614 q 525 349 613 422 q 299 175 438 276 l 708 175 l 679 14 l -6 14 l 19 158 l 111 225 z "},"3":{"ha":832,"x_min":42,"x_max":801,"o":"m 136 746 q 273 960 168 885 q 526 1036 378 1036 q 731 976 660 1036 q 801 819 801 917 q 797 768 801 796 q 727 620 783 681 q 604 539 671 560 l 604 533 q 701 465 667 513 q 736 343 736 417 q 731 281 736 310 q 665 132 715 197 q 535 30 615 67 q 350 -7 454 -7 q 125 58 208 -7 q 42 250 42 122 q 46 306 42 276 l 235 306 q 233 281 233 297 q 269 190 233 224 q 374 156 306 156 q 502 207 454 156 q 550 333 550 258 q 503 425 550 397 q 357 453 456 453 l 317 453 l 346 613 l 386 613 q 606 744 582 613 q 608 774 608 767 q 578 846 608 821 q 492 871 549 871 q 383 835 425 871 q 326 746 342 799 l 136 746 z "},"4":{"ha":918,"x_min":29,"x_max":861,"o":"m 29 197 l 56 350 l 625 1000 l 850 1000 l 740 367 l 861 367 l 832 197 l 710 197 l 674 0 l 481 0 l 515 197 l 29 197 m 632 792 l 274 367 l 557 367 l 632 792 z "},"5":{"ha":894,"x_min":88,"x_max":863,"o":"m 833 844 l 383 844 l 342 607 q 434 666 376 643 q 553 689 492 689 q 753 617 690 689 q 817 433 817 544 q 810 354 817 399 q 674 97 782 194 q 397 0 565 0 q 167 71 247 0 q 88 260 88 142 l 89 286 l 279 286 q 319 197 282 231 q 424 164 356 164 q 558 215 507 164 q 624 351 608 267 q 628 399 628 376 q 592 494 628 461 q 488 528 557 528 q 385 499 429 528 q 317 421 340 469 l 129 421 l 233 1015 l 863 1015 l 833 844 z "},"6":{"ha":889,"x_min":94,"x_max":850,"o":"m 661 760 q 629 847 658 818 q 536 876 600 876 q 382 799 440 876 q 290 549 324 722 q 404 635 335 604 q 549 667 474 667 q 735 601 667 667 q 803 417 803 536 q 796 336 803 372 q 726 160 779 238 q 590 40 674 83 q 399 -3 506 -3 q 165 78 236 -3 q 94 313 94 158 q 117 522 94 400 q 272 906 161 776 q 571 1036 382 1036 q 783 957 717 1036 q 842 760 850 878 l 661 760 m 476 507 q 345 464 403 507 q 274 339 288 421 q 269 296 269 317 q 308 197 269 232 q 418 163 346 163 q 546 208 494 163 q 611 332 597 254 q 615 376 615 356 q 581 472 615 438 q 476 507 546 507 z "},"7":{"ha":761,"x_min":64,"x_max":824,"o":"m 799 861 l 272 0 l 64 0 l 601 840 l 126 840 l 154 1006 l 824 1006 l 799 861 z "},"8":{"ha":893,"x_min":56,"x_max":857,"o":"m 268 547 q 165 719 165 604 q 169 771 165 744 q 232 907 182 844 q 365 1008 282 969 q 560 1046 449 1046 q 781 981 706 1046 q 857 817 857 917 q 853 771 857 794 q 791 637 839 694 q 675 547 743 579 q 767 469 735 519 q 800 349 800 418 q 794 293 800 332 q 716 124 776 196 q 565 15 656 53 q 371 -22 475 -22 q 142 45 229 -22 q 56 232 56 113 q 61 293 56 265 q 132 450 78 385 q 268 547 186 515 m 531 885 q 414 847 461 885 q 354 742 367 810 q 351 714 351 722 q 387 633 351 663 q 482 603 422 603 q 610 651 557 603 q 663 774 663 700 q 628 856 663 828 q 531 885 593 885 m 456 463 q 319 421 376 463 q 250 301 263 379 q 247 267 247 289 q 288 174 247 208 q 400 139 328 139 q 550 196 492 139 q 608 338 608 253 q 567 430 608 397 q 456 463 525 463 z "},"9":{"ha":869,"x_min":94,"x_max":833,"o":"m 276 285 q 413 158 281 158 q 551 231 499 158 q 632 471 603 303 q 531 401 593 426 q 401 376 469 376 q 209 441 282 376 q 136 624 136 506 q 143 699 136 654 q 278 944 171 853 q 544 1036 385 1036 q 765 959 697 1036 q 833 731 833 882 q 813 528 833 640 q 730 233 781 347 q 594 58 679 118 q 378 -1 508 -1 q 165 70 235 -1 q 94 253 94 142 q 96 285 94 274 l 276 285 m 469 535 q 590 579 540 535 q 653 699 640 624 q 657 743 657 722 q 621 838 657 806 q 521 871 585 871 q 394 824 446 871 q 329 701 343 778 q 325 663 325 681 q 361 569 325 604 q 469 535 397 535 z "},"\u0000":{"ha":0,"x_min":0,"x_max":0,"o":""},"\r":{"ha":372,"x_min":0,"x_max":0,"o":""}," ":{"ha":372,"x_min":0,"x_max":0,"o":""},"अ":{"ha":1158,"x_min":57,"x_max":1276,"o":"m 1276 1028 l 1251 878 l 1097 878 l 942 0 l 763 0 l 833 399 l 669 400 l 669 386 q 667 349 669 374 q 553 153 644 226 q 332 79 461 79 q 131 142 206 79 q 57 313 57 206 q 63 368 57 329 l 232 368 q 229 342 229 349 q 261 264 229 294 q 347 233 293 233 q 463 278 418 233 q 508 393 508 324 q 476 471 508 440 q 376 501 443 501 l 317 501 l 342 646 l 401 646 q 522 688 476 646 q 567 789 567 731 q 538 862 567 835 q 461 889 508 889 q 363 856 406 889 q 310 769 319 822 l 144 769 q 261 966 167 892 q 489 1040 356 1040 q 668 986 603 1040 q 733 838 733 932 q 729 790 733 815 q 665 658 715 714 q 538 579 615 601 l 536 576 q 601 547 571 569 l 860 547 l 943 1028 l 1276 1028 z "},"आ":{"ha":1586,"x_min":57,"x_max":1706,"o":"m 1679 878 l 1526 878 l 1371 0 l 1192 0 l 1346 878 l 1097 878 l 942 0 l 763 0 l 833 399 l 669 400 l 669 386 q 667 349 669 374 q 553 153 644 226 q 332 79 461 79 q 131 142 206 79 q 57 313 57 206 q 63 368 57 329 l 232 368 q 229 342 229 349 q 261 264 229 294 q 347 233 293 233 q 463 278 418 233 q 508 393 508 324 q 476 471 508 440 q 376 501 443 501 l 317 501 l 342 646 l 401 646 q 522 688 476 646 q 567 789 567 731 q 538 862 567 835 q 461 889 508 889 q 363 856 406 889 q 310 769 319 822 l 144 769 q 261 966 167 892 q 489 1040 356 1040 q 668 986 603 1040 q 733 838 733 932 q 729 790 733 815 q 665 658 715 714 q 538 579 615 601 l 536 576 q 601 547 571 569 l 860 547 l 943 1028 l 1706 1028 l 1679 878 z "},"इ":{"ha":811,"x_min":19,"x_max":943,"o":"m 722 878 l 700 753 l 701 753 l 678 624 l 425 624 q 329 601 369 624 q 289 521 289 578 q 315 472 289 488 q 385 457 342 457 l 446 457 q 623 408 551 457 q 694 257 694 358 q 689 203 694 242 q 597 40 669 101 q 410 -22 524 -22 q 284 7 331 -22 q 221 71 238 36 l 189 -112 l 19 -112 l 82 243 l 243 243 q 272 147 238 182 q 375 111 307 111 q 483 149 443 111 q 522 240 522 188 q 485 309 522 288 q 389 331 449 331 l 308 331 q 166 378 224 335 q 108 503 108 422 q 113 546 108 524 q 210 703 131 653 q 401 753 290 753 l 528 753 l 550 878 l 36 878 l 63 1028 l 943 1028 l 917 878 l 722 878 z "},"ई":{"ha":804,"x_min":19,"x_max":1119,"o":"m 907 1411 q 1065 1360 1010 1411 q 1119 1219 1119 1310 q 1111 1146 1119 1186 l 954 1146 q 958 1182 958 1165 q 939 1240 958 1219 q 883 1261 919 1261 q 763 1124 786 1261 l 746 1028 l 944 1028 l 918 878 l 724 878 l 694 713 l 678 624 l 425 624 q 329 601 369 624 q 289 521 289 578 q 315 472 289 488 q 385 457 342 457 l 446 457 q 623 408 551 457 q 694 257 694 358 q 689 203 694 242 q 597 40 669 101 q 410 -22 524 -22 q 284 7 331 -22 q 221 71 238 36 l 189 -112 l 19 -112 l 82 243 l 243 243 q 272 147 238 182 q 375 111 307 111 q 482 149 443 111 q 521 239 521 186 q 389 331 521 331 l 308 331 q 166 378 224 335 q 108 503 108 422 q 113 546 108 524 q 210 703 131 653 q 401 753 290 753 l 528 753 l 550 878 l 39 878 l 64 1028 l 581 1028 l 597 1122 q 694 1330 619 1249 q 907 1411 769 1411 z "},"उ":{"ha":790,"x_min":22,"x_max":910,"o":"m 882 878 l 743 878 l 725 771 q 661 632 710 688 q 550 564 613 576 l 549 561 q 649 490 613 543 q 685 360 685 436 q 681 306 685 333 q 558 88 656 171 q 314 4 460 4 q 101 74 181 4 q 22 260 22 143 q 28 325 22 296 l 199 325 q 196 294 196 303 q 234 201 196 238 q 335 165 272 165 q 452 208 403 165 q 514 319 501 251 q 517 351 517 342 q 483 443 517 407 q 379 479 450 479 l 303 479 l 331 636 l 382 636 q 497 674 451 636 q 554 781 542 713 l 571 878 l 36 878 l 61 1028 l 910 1028 l 882 878 z "},"ऊ":{"ha":1189,"x_min":22,"x_max":1308,"o":"m 725 771 q 661 632 710 688 q 550 564 613 576 l 550 561 l 813 561 q 1017 508 942 561 q 1093 347 1093 454 q 1088 288 1093 315 q 982 99 1065 167 q 776 31 899 31 q 701 38 743 31 l 726 174 q 769 172 740 172 q 866 202 826 172 q 917 294 906 232 q 919 322 919 314 q 884 394 919 371 q 790 418 849 418 l 674 418 q 681 351 681 383 q 676 296 681 325 q 613 146 661 213 q 487 42 564 79 q 314 4 410 4 q 101 74 181 4 q 22 260 22 143 q 28 325 22 296 l 199 325 q 196 294 196 303 q 234 201 196 238 q 335 165 272 165 q 452 208 403 165 q 514 319 501 251 q 517 351 517 342 q 483 443 517 407 q 379 479 450 479 l 303 479 l 331 636 l 382 636 q 497 674 451 636 q 554 781 542 713 l 571 878 l 36 878 l 61 1028 l 1308 1028 l 1282 878 l 743 878 l 725 771 z "},"ऋ":{"ha":1444,"x_min":36,"x_max":1564,"o":"m 904 878 l 858 619 l 1078 619 q 1188 689 1165 619 l 1201 768 l 1357 768 l 1271 281 l 1238 281 q 1124 240 1165 281 q 1082 140 1082 200 q 1115 72 1082 94 q 1204 50 1149 50 q 1285 61 1240 50 l 1260 -82 q 1157 -93 1204 -93 q 974 -43 1043 -93 q 906 99 906 7 q 910 147 906 122 q 985 296 926 236 q 1133 378 1044 356 l 1156 501 q 1026 478 1099 478 l 833 478 l 749 0 l 583 0 l 635 290 l 278 0 l 51 0 l 53 8 l 664 468 q 614 568 657 531 q 500 606 571 606 q 335 545 403 606 q 249 385 267 485 l 69 385 q 145 579 89 494 q 287 710 201 664 q 475 757 372 757 q 697 646 632 757 l 738 878 l 36 878 l 61 1028 l 1564 1028 l 1538 878 l 904 878 z "},"ॠ":{"ha":1447,"x_min":36,"x_max":1565,"o":"m 903 878 l 857 619 l 1076 619 q 1188 689 1165 619 l 1201 768 l 1357 768 l 1269 276 l 1218 276 q 1092 194 1108 276 q 1090 181 1090 189 q 1119 131 1090 147 q 1193 115 1147 115 l 1267 115 l 1243 -18 l 1176 -18 q 1040 -103 1054 -18 q 1039 -119 1039 -108 q 1151 -185 1039 -185 q 1228 -178 1189 -185 q 1293 -164 1268 -171 l 1271 -297 q 1191 -317 1239 -310 q 1099 -325 1143 -325 q 928 -283 997 -325 q 860 -158 860 -242 q 908 -27 860 -82 q 1026 43 956 28 l 1028 49 q 949 90 979 60 q 919 171 919 121 q 922 204 919 192 q 996 324 936 283 q 1132 374 1056 365 l 1154 501 q 1025 478 1097 478 l 832 478 l 749 0 l 583 0 l 633 292 l 278 0 l 50 0 l 51 8 l 664 469 q 614 568 657 531 q 500 606 571 606 q 335 545 403 606 q 249 385 267 485 l 68 385 q 144 579 88 494 q 285 710 200 664 q 474 757 371 757 q 696 646 632 757 l 736 878 l 36 878 l 61 1028 l 1565 1028 l 1540 878 l 903 878 z "},"ऌ":{"ha":1256,"x_min":29,"x_max":1368,"o":"m 1031 878 l 1004 731 q 1115 646 1075 706 q 1156 494 1156 586 q 1149 415 1156 461 q 1101 276 1136 336 l 1092 276 q 958 238 1003 276 q 914 136 914 199 q 949 69 914 92 q 1040 47 983 47 q 1122 57 1088 47 l 1097 -86 q 992 -96 1039 -96 q 808 -45 876 -96 q 739 101 739 6 q 743 150 739 125 q 817 290 757 231 q 960 369 878 350 q 971 417 968 400 q 975 461 975 440 q 946 552 975 518 q 860 586 917 586 q 738 531 786 586 q 678 388 690 475 l 671 353 l 522 353 l 528 388 q 532 444 532 417 q 505 548 532 510 q 419 586 478 586 q 301 538 349 586 q 239 413 254 490 q 235 364 235 386 q 272 260 235 296 q 381 224 310 224 q 422 226 389 224 l 393 69 q 344 68 374 68 q 126 139 201 68 q 51 333 51 210 q 58 415 51 379 q 129 595 76 521 q 258 707 182 669 q 419 744 333 744 q 565 694 514 744 q 628 568 617 644 l 632 568 q 713 672 663 628 q 832 735 764 717 l 857 878 l 29 878 l 56 1028 l 1368 1028 l 1340 878 l 1031 878 z "},"ॡ":{"ha":1268,"x_min":32,"x_max":1381,"o":"m 1031 878 l 1004 731 q 1115 647 1075 707 q 1156 496 1156 586 q 1149 415 1156 451 q 1103 276 1138 344 l 1057 276 q 931 194 947 276 q 929 181 929 189 q 958 131 929 147 q 1032 115 986 115 l 1107 115 l 1083 -18 l 1015 -18 q 878 -103 893 -18 q 876 -119 876 -108 q 990 -185 876 -185 q 1068 -178 1028 -185 q 1133 -164 1108 -171 l 1110 -297 q 1031 -317 1078 -310 q 939 -325 983 -325 q 768 -283 836 -325 q 700 -157 700 -242 q 748 -27 700 -82 q 865 43 796 28 l 867 49 q 758 172 758 75 q 761 204 758 182 q 831 320 775 279 q 958 372 886 361 q 971 417 967 393 q 975 461 975 440 q 946 552 975 518 q 860 586 917 586 q 738 531 786 586 q 676 388 689 475 l 671 353 l 522 353 l 528 388 q 532 443 532 417 q 505 547 532 508 q 419 586 478 586 q 300 538 347 586 q 239 413 253 490 q 235 364 235 386 q 272 260 235 296 q 381 224 310 224 q 421 226 390 224 l 393 69 q 344 68 374 68 q 126 139 201 68 q 51 333 51 210 q 58 415 51 379 q 129 595 76 521 q 258 707 182 669 q 419 744 333 744 q 565 694 514 744 q 628 568 617 644 l 632 568 q 713 672 663 628 q 833 735 764 717 l 857 878 l 32 878 l 58 1028 l 1381 1028 l 1354 878 l 1031 878 z "},"ए":{"ha":904,"x_min":35,"x_max":1024,"o":"m 997 878 l 863 878 l 840 749 q 744 531 815 604 q 543 457 674 457 q 476 461 513 457 l 504 622 q 533 621 514 621 q 622 653 590 621 q 667 754 654 686 l 688 878 l 365 878 l 276 369 q 271 318 271 333 q 308 215 271 251 q 414 179 346 179 q 532 222 485 179 q 593 342 579 265 l 767 342 q 646 109 742 192 q 399 26 550 26 q 171 99 250 26 q 92 299 92 172 q 99 376 92 332 l 186 878 l 35 878 l 60 1028 l 1024 1028 l 997 878 z "},"ऐ":{"ha":904,"x_min":35,"x_max":1024,"o":"m 997 878 l 863 878 l 840 749 q 744 531 815 604 q 543 457 674 457 q 476 461 513 457 l 504 622 q 533 621 514 621 q 622 653 590 621 q 667 754 654 686 l 688 878 l 365 878 l 276 369 q 271 318 271 333 q 308 215 271 251 q 414 179 346 179 q 532 222 485 179 q 593 342 579 265 l 767 342 q 646 109 742 192 q 399 26 550 26 q 171 99 250 26 q 92 299 92 172 q 99 376 92 332 l 186 878 l 35 878 l 60 1028 l 711 1028 q 635 1165 667 1122 q 567 1220 604 1207 q 461 1233 529 1233 l 394 1233 l 421 1379 l 485 1379 q 655 1356 594 1378 q 766 1260 715 1333 q 879 1028 817 1188 l 1024 1028 l 997 878 z "},"ओ":{"ha":1586,"x_min":57,"x_max":1706,"o":"m 1706 1028 l 1679 878 l 1526 878 l 1371 0 l 1192 0 l 1346 878 l 1097 878 l 942 0 l 763 0 l 833 399 l 669 400 l 669 386 q 667 349 669 374 q 553 153 644 226 q 332 79 461 79 q 131 142 206 79 q 57 313 57 206 q 63 368 57 329 l 232 368 q 229 342 229 349 q 261 264 229 294 q 347 233 293 233 q 463 278 418 233 q 508 393 508 324 q 476 471 508 440 q 376 501 443 501 l 317 501 l 342 646 l 401 646 q 522 688 476 646 q 567 789 567 731 q 538 862 567 835 q 461 889 508 889 q 363 856 406 889 q 310 769 319 822 l 144 769 q 261 966 167 892 q 489 1040 356 1040 q 668 986 603 1040 q 733 838 733 932 q 729 790 733 815 q 665 658 715 714 q 538 579 615 601 l 536 576 q 601 547 571 569 l 860 547 l 943 1028 l 1419 1028 q 1344 1165 1375 1122 q 1276 1220 1313 1207 q 1171 1233 1239 1233 l 1104 1233 l 1129 1379 l 1193 1379 q 1364 1356 1304 1378 q 1474 1260 1424 1333 q 1589 1028 1525 1188 l 1706 1028 z "},"औ":{"ha":1586,"x_min":57,"x_max":1706,"o":"m 1706 1028 l 1679 878 l 1526 878 l 1371 0 l 1192 0 l 1346 878 l 1097 878 l 942 0 l 763 0 l 833 399 l 669 400 l 669 386 q 667 349 669 374 q 553 153 644 226 q 332 79 461 79 q 131 142 206 79 q 57 313 57 206 q 63 368 57 329 l 232 368 q 229 342 229 349 q 261 264 229 294 q 347 233 293 233 q 463 278 418 233 q 508 393 508 324 q 476 471 508 440 q 376 501 443 501 l 317 501 l 342 646 l 401 646 q 522 688 476 646 q 567 789 567 731 q 538 862 567 835 q 461 889 508 889 q 363 856 406 889 q 310 769 319 822 l 144 769 q 261 966 167 892 q 489 1040 356 1040 q 668 986 603 1040 q 733 838 733 932 q 729 790 733 815 q 665 658 715 714 q 538 579 615 601 l 536 576 q 601 547 571 569 l 860 547 l 943 1028 l 1428 1028 q 1322 1105 1354 1085 q 1253 1131 1289 1125 q 1139 1136 1218 1136 l 1069 1136 l 1089 1249 l 1154 1249 q 1269 1244 1232 1249 q 1341 1220 1306 1239 q 1425 1157 1376 1201 q 1353 1294 1388 1251 q 1281 1348 1318 1338 q 1182 1358 1244 1358 l 1110 1358 l 1129 1472 l 1197 1472 q 1362 1448 1308 1472 q 1463 1335 1415 1424 q 1586 1028 1511 1246 l 1706 1028 z "},"ऍ":{"ha":906,"x_min":0,"x_max":989,"o":"m 531 1147 q 326 1206 393 1147 q 260 1365 260 1265 q 265 1422 260 1383 l 419 1422 q 417 1393 417 1403 q 451 1312 417 1343 q 554 1281 485 1281 q 681 1322 633 1281 q 738 1422 728 1363 l 892 1422 q 778 1224 871 1300 q 531 1147 686 1147 m 963 878 l 828 878 l 806 749 q 710 531 781 604 q 508 457 639 457 q 442 461 478 457 l 469 622 q 499 621 479 621 q 588 653 556 621 q 632 754 619 686 l 653 878 l 331 878 l 242 369 q 236 318 236 333 q 274 215 236 251 q 379 179 311 179 q 497 222 450 179 q 558 342 544 265 l 732 342 q 611 109 707 192 q 364 26 515 26 q 136 99 215 26 q 57 299 57 172 q 64 376 57 332 l 151 878 l 0 878 l 25 1028 l 989 1028 l 963 878 z "},"ॲ":{"ha":1158,"x_min":57,"x_max":1479,"o":"m 1276 1028 l 1251 878 l 1097 878 l 942 0 l 763 0 l 833 399 l 669 400 l 669 386 q 667 349 669 374 q 553 153 644 226 q 332 79 461 79 q 131 142 206 79 q 57 313 57 206 q 63 368 57 329 l 232 368 q 229 342 229 349 q 261 264 229 294 q 347 233 293 233 q 463 278 418 233 q 508 393 508 324 q 476 471 508 440 q 376 501 443 501 l 317 501 l 342 646 l 401 646 q 522 688 476 646 q 567 789 567 731 q 538 862 567 835 q 461 889 508 889 q 363 856 406 889 q 310 769 319 822 l 144 769 q 261 966 167 892 q 489 1040 356 1040 q 668 986 603 1040 q 733 838 733 932 q 729 790 733 815 q 665 658 715 714 q 538 579 615 601 l 536 576 q 601 547 571 569 l 860 547 l 943 1028 l 1276 1028 m 1479 1426 q 1370 1228 1458 1304 q 1126 1153 1282 1153 q 917 1213 988 1153 q 847 1371 847 1272 q 853 1426 847 1388 l 1007 1426 q 1004 1397 1004 1407 q 1038 1317 1004 1347 q 1142 1286 1072 1286 q 1268 1326 1221 1286 q 1326 1426 1315 1367 l 1479 1426 z "},"ऑ":{"ha":1586,"x_min":57,"x_max":1706,"o":"m 1679 878 l 1526 878 l 1371 0 l 1192 0 l 1346 878 l 1097 878 l 942 0 l 763 0 l 833 399 l 669 400 l 669 386 q 667 349 669 374 q 553 153 644 226 q 332 79 461 79 q 131 142 206 79 q 57 313 57 206 q 63 368 57 329 l 232 368 q 229 342 229 349 q 261 264 229 294 q 347 233 293 233 q 463 278 418 233 q 508 393 508 324 q 476 471 508 440 q 376 501 443 501 l 317 501 l 342 646 l 401 646 q 522 688 476 646 q 567 789 567 731 q 538 862 567 835 q 461 889 508 889 q 363 856 406 889 q 310 769 319 822 l 144 769 q 261 966 167 892 q 489 1040 356 1040 q 668 986 603 1040 q 733 838 733 932 q 729 790 733 815 q 665 658 715 714 q 538 579 615 601 l 536 576 q 601 547 571 569 l 860 547 l 943 1028 l 1706 1028 l 1679 878 m 1685 1421 q 1576 1223 1664 1299 q 1332 1147 1488 1147 q 1123 1207 1193 1147 q 1053 1365 1053 1267 q 1058 1421 1053 1382 l 1213 1421 q 1210 1392 1210 1401 q 1244 1311 1210 1342 q 1347 1281 1278 1281 q 1474 1321 1426 1281 q 1532 1421 1521 1361 l 1685 1421 z "},"ा":{"ha":429,"x_min":35,"x_max":549,"o":"m 35 0 l 189 878 l 36 878 l 61 1028 l 549 1028 l 522 878 l 369 878 l 214 0 l 35 0 z "},"ि":{"ha":429,"x_min":33,"x_max":1342,"o":"m 846 1414 q 1106 1373 993 1414 q 1280 1256 1218 1332 q 1342 1075 1342 1179 q 1336 1011 1342 1040 l 1332 988 l 1154 988 l 1157 1008 q 1160 1047 1160 1022 q 1061 1212 1160 1157 q 819 1267 963 1267 q 541 1209 663 1267 q 393 1028 419 1151 l 549 1028 l 522 878 l 369 878 l 213 0 l 33 0 l 189 878 l 36 878 l 61 1028 l 215 1028 q 330 1237 242 1150 q 551 1369 418 1324 q 846 1414 685 1414 z "},"ी":{"ha":429,"x_min":-222,"x_max":549,"o":"m 549 1028 l 524 878 l 369 878 l 214 0 l 35 0 l 190 878 l 36 878 l 61 1028 l 221 1028 l 232 1083 q 238 1144 238 1110 q 135 1263 238 1263 q 23 1211 60 1263 q -31 1083 -14 1160 l -47 988 l -222 988 l -207 1074 q -89 1322 -178 1231 q 160 1414 0 1414 q 414 1175 414 1414 q 404 1074 414 1138 l 396 1028 l 549 1028 z "},"ु":{"ha":0,"x_min":-751,"x_max":-111,"o":"m -114 -197 q -220 -383 -131 -315 q -447 -450 -310 -450 q -664 -391 -576 -450 q -751 -210 -751 -332 q -744 -140 -751 -172 l -585 -140 q -590 -187 -590 -162 q -548 -281 -590 -250 q -435 -311 -506 -311 q -322 -281 -367 -311 q -268 -194 -278 -250 q -267 -175 -267 -187 q -292 -112 -267 -136 q -367 -87 -318 -87 l -411 -87 l -385 53 l -342 53 q -172 -3 -233 53 q -111 -154 -111 -60 q -114 -197 -111 -167 z "},"ू":{"ha":0,"x_min":-635,"x_max":-3,"o":"m -368 -432 q -407 -433 -381 -433 q -568 -383 -501 -433 q -635 -240 -635 -332 q -631 -194 -635 -219 q -525 -17 -611 -81 q -312 47 -439 47 q -82 -40 -161 47 q -3 -264 -3 -126 q -12 -360 -3 -304 l -26 -425 l -174 -425 l -158 -350 q -151 -276 -151 -306 q -197 -138 -151 -189 q -326 -87 -242 -87 q -441 -123 -394 -87 q -487 -221 -487 -158 q -458 -282 -487 -260 q -383 -304 -429 -304 q -344 -303 -358 -304 l -368 -432 z "},"ृ":{"ha":0,"x_min":-610,"x_max":-192,"o":"m -217 -432 q -360 -453 -283 -453 q -480 -428 -422 -453 q -574 -354 -537 -404 q -610 -233 -610 -304 q -606 -186 -610 -211 q -498 -14 -586 -76 q -274 49 -410 49 q -207 47 -218 49 l -228 -75 l -282 -75 q -392 -111 -351 -75 q -433 -208 -433 -147 q -397 -283 -433 -256 q -306 -310 -360 -310 q -192 -293 -251 -310 l -217 -432 z "},"ॄ":{"ha":0,"x_min":-617,"x_max":-183,"o":"m -207 -625 q -285 -643 -237 -636 q -376 -650 -333 -650 q -548 -609 -479 -650 q -617 -485 -617 -568 q -569 -353 -617 -408 q -450 -283 -521 -299 l -450 -278 q -528 -236 -499 -267 q -558 -157 -558 -206 q -554 -122 -558 -142 q -467 8 -539 -33 q -310 49 -394 49 l -207 49 l -224 -50 l -258 -50 q -383 -132 -369 -50 q -385 -147 -385 -137 q -357 -196 -385 -181 q -283 -211 -329 -211 l -210 -211 l -233 -344 l -300 -344 q -392 -363 -354 -344 q -437 -426 -431 -382 q -439 -442 -439 -432 q -406 -494 -439 -478 q -325 -511 -374 -511 q -245 -504 -286 -511 q -183 -490 -204 -497 l -207 -625 z "},"ॢ":{"ha":0,"x_min":-767,"x_max":63,"o":"m 15 -378 q -77 -401 -44 -378 q -118 -462 -110 -424 q -119 -476 -119 -468 q -93 -526 -119 -510 q -26 -543 -67 -543 q 36 -536 13 -543 l 15 -649 q -64 -656 -26 -656 q -203 -617 -151 -656 q -256 -508 -256 -579 q -208 -378 -256 -435 q -92 -306 -161 -322 q -86 -276 -89 -296 q -83 -242 -83 -264 q -103 -176 -83 -200 q -164 -153 -124 -153 q -249 -192 -217 -153 q -294 -296 -282 -232 l -299 -321 l -415 -321 l -411 -296 q -407 -250 -407 -271 q -426 -179 -407 -206 q -487 -153 -446 -153 q -585 -197 -549 -153 q -621 -312 -621 -242 q -594 -387 -621 -361 q -515 -412 -567 -412 q -487 -410 -497 -412 l -510 -532 q -544 -533 -522 -533 q -710 -479 -653 -533 q -767 -333 -767 -425 q -761 -276 -767 -315 q -663 -94 -740 -158 q -487 -29 -586 -29 q -381 -66 -418 -29 q -333 -158 -343 -103 l -329 -158 q -246 -66 -299 -103 q -121 -29 -193 -29 q 12 -78 -39 -29 q 63 -218 63 -128 q 57 -276 63 -249 q 24 -378 47 -329 l 15 -378 z "},"ॣ":{"ha":0,"x_min":-765,"x_max":63,"o":"m -14 -378 q -79 -394 -53 -378 q -106 -446 -106 -410 q -85 -482 -106 -471 q -31 -493 -64 -493 l 24 -493 l 6 -597 l -43 -597 q -144 -658 -135 -597 q -62 -717 -154 -717 q -4 -712 -33 -717 q 43 -701 25 -707 l 24 -806 q -34 -819 1 -814 q -103 -824 -69 -824 q -231 -794 -181 -824 q -281 -704 -281 -765 q -246 -603 -281 -644 q -158 -550 -211 -561 l -158 -547 q -236 -453 -236 -528 q -194 -349 -236 -385 q -90 -303 -151 -312 q -85 -276 -87 -296 q -82 -242 -82 -264 q -102 -176 -82 -200 q -164 -153 -122 -153 q -249 -192 -217 -153 q -293 -296 -281 -232 l -297 -321 l -415 -321 l -411 -296 q -406 -249 -406 -274 q -426 -179 -406 -206 q -487 -153 -447 -153 q -574 -187 -540 -153 q -618 -278 -608 -221 q -621 -312 -621 -290 q -593 -386 -621 -360 q -515 -412 -565 -412 q -487 -410 -496 -412 l -508 -532 q -544 -533 -521 -533 q -709 -480 -653 -533 q -765 -335 -765 -426 q -760 -276 -765 -304 q -662 -94 -739 -158 q -487 -29 -586 -29 q -381 -65 -418 -29 q -332 -158 -343 -101 l -329 -158 q -246 -66 -299 -103 q -121 -29 -193 -29 q 11 -78 -40 -29 q 63 -217 63 -128 q 57 -276 63 -249 q 24 -378 50 -324 l -14 -378 z "},"े":{"ha":0,"x_min":-524,"x_max":-36,"o":"m -206 1022 q -283 1163 -251 1119 q -352 1219 -315 1206 q -457 1233 -389 1233 l -524 1233 l -499 1379 l -435 1379 q -263 1356 -324 1378 q -151 1259 -203 1333 q -36 1022 -100 1185 l -206 1022 z "},"ै":{"ha":0,"x_min":-561,"x_max":-43,"o":"m -433 1472 q -269 1448 -322 1472 q -167 1333 -215 1424 q -43 1024 -118 1243 l -197 1024 q -308 1104 -275 1083 q -376 1131 -340 1125 q -492 1136 -411 1136 l -561 1136 l -542 1249 l -476 1249 q -362 1244 -399 1249 q -290 1220 -325 1239 q -206 1157 -254 1201 q -278 1294 -243 1251 q -349 1348 -312 1338 q -449 1358 -386 1358 l -521 1358 l -501 1472 l -433 1472 z "},"ो":{"ha":431,"x_min":-94,"x_max":549,"o":"m 549 1028 l 524 878 l 369 878 l 215 0 l 35 0 l 190 878 l 36 878 l 63 1028 l 222 1028 q 147 1165 178 1122 q 78 1220 115 1207 q -26 1233 42 1233 l -94 1233 l -68 1379 l -4 1379 q 167 1356 107 1378 q 277 1260 226 1333 q 390 1028 328 1188 l 549 1028 z "},"ौ":{"ha":429,"x_min":-169,"x_max":510,"o":"m 510 1028 l 483 878 l 329 878 l 175 0 l -4 0 l 150 878 l -4 878 l 22 1028 l 189 1028 q 83 1105 117 1085 q 15 1131 50 1125 q -101 1136 -21 1136 l -169 1136 l -150 1249 l -85 1249 q 30 1244 -7 1249 q 102 1220 67 1239 q 186 1157 138 1201 q 114 1294 149 1251 q 42 1348 79 1338 q -58 1358 6 1358 l -129 1358 l -111 1472 l -43 1472 q 122 1448 68 1472 q 224 1334 176 1424 q 347 1028 272 1244 l 510 1028 z "},"ॅ":{"ha":0,"x_min":-378,"x_max":254,"o":"m 254 1404 q 145 1206 233 1282 q -99 1131 57 1131 q -308 1190 -237 1131 q -378 1349 -378 1250 q -372 1404 -378 1365 l -218 1404 q -221 1375 -221 1385 q -187 1294 -221 1325 q -83 1264 -153 1264 q 43 1304 -4 1264 q 101 1404 90 1344 l 254 1404 z "},"ॉ":{"ha":432,"x_min":35,"x_max":685,"o":"m 685 1404 q 576 1206 664 1282 q 332 1131 488 1131 q 123 1190 193 1131 q 53 1349 53 1250 q 58 1404 53 1365 l 213 1404 q 210 1375 210 1385 q 244 1294 210 1325 q 347 1264 278 1264 q 474 1304 426 1264 q 532 1404 521 1344 l 685 1404 m 35 0 l 189 878 l 36 878 l 61 1028 l 549 1028 l 522 878 l 369 878 l 214 0 l 35 0 z "},"क":{"ha":1356,"x_min":36,"x_max":1474,"o":"m 838 878 l 796 642 q 893 723 835 693 q 1024 753 951 753 q 1200 682 1135 753 q 1265 499 1265 611 q 1258 428 1265 469 q 1138 199 1231 279 q 915 118 1044 118 q 826 128 867 118 l 851 269 q 894 264 867 264 q 1013 309 961 264 q 1078 431 1065 354 q 1081 465 1081 456 q 1045 562 1081 525 q 949 599 1010 599 q 826 551 875 599 q 760 432 778 504 l 683 0 l 511 0 l 550 221 q 447 138 508 168 q 310 107 386 107 q 131 176 200 107 q 63 361 63 246 q 69 435 63 393 q 190 666 94 579 q 419 753 285 753 q 550 722 499 753 q 624 639 601 692 l 665 878 l 36 878 l 61 1028 l 1474 1028 l 1449 878 l 838 878 m 586 428 q 589 463 589 439 q 553 560 589 521 q 449 600 518 600 q 349 574 396 600 q 274 500 303 547 q 246 392 246 453 q 285 293 246 329 q 389 257 325 257 q 520 308 468 258 q 585 421 572 357 l 586 428 z "},"ख":{"ha":1319,"x_min":36,"x_max":1439,"o":"m 1439 1028 l 1411 878 l 1258 878 l 1106 0 l 926 0 l 969 250 q 775 168 894 168 q 731 172 751 168 q 580 42 669 92 q 383 -7 490 -7 q 150 67 233 -7 q 67 279 67 142 q 75 367 67 321 l 108 557 l 149 557 q 299 602 242 557 q 374 749 357 647 l 396 878 l 36 878 l 63 1028 l 1439 1028 m 1079 878 l 576 878 l 550 725 q 450 513 526 586 q 264 431 374 439 l 250 346 q 246 301 246 324 q 290 189 246 231 q 415 147 333 147 q 528 174 479 147 q 610 243 576 201 q 557 408 557 310 q 563 472 557 443 q 620 612 576 551 q 728 706 664 672 q 865 739 793 739 q 974 717 931 739 q 1040 656 1018 694 l 1079 878 m 836 306 q 946 346 901 306 q 1003 442 990 386 l 1007 464 l 1008 482 q 978 567 1008 532 q 886 601 947 601 q 776 562 824 601 q 715 456 728 522 q 713 424 713 433 q 747 337 713 368 q 836 306 782 306 z "},"ग":{"ha":1096,"x_min":36,"x_max":1214,"o":"m 1214 1028 l 1188 878 l 1033 878 l 879 0 l 700 0 l 854 878 l 651 878 l 593 542 q 496 341 572 418 q 289 264 419 264 q 117 319 179 264 q 54 472 54 375 q 60 532 54 504 l 68 575 l 242 575 l 233 532 q 231 497 231 507 q 303 417 231 417 q 378 450 353 417 q 411 533 404 483 l 472 878 l 36 878 l 61 1028 l 1214 1028 z "},"घ":{"ha":976,"x_min":36,"x_max":1096,"o":"m 1068 878 l 917 878 l 763 0 l 582 0 l 628 263 q 499 169 575 201 q 338 136 424 136 q 147 192 221 136 q 74 346 74 247 q 78 390 74 368 q 149 525 93 471 q 278 594 206 579 l 278 599 q 194 647 225 611 q 164 744 164 682 q 169 797 164 771 l 183 878 l 36 878 l 61 1028 l 1096 1028 l 1068 878 m 736 878 l 363 878 l 350 806 q 347 771 347 781 q 475 671 347 671 l 535 671 l 510 526 l 436 526 q 306 487 350 526 q 261 385 261 447 q 301 309 261 335 q 406 283 340 283 q 574 341 500 283 q 668 490 649 399 l 736 878 z "},"ङ":{"ha":954,"x_min":32,"x_max":1074,"o":"m 1074 1028 l 1047 878 l 719 878 l 697 750 l 676 624 l 424 624 q 334 605 372 624 q 288 540 296 586 q 286 524 286 535 q 382 457 286 457 l 443 457 q 622 408 551 457 q 692 261 692 358 q 688 211 692 239 q 580 38 667 101 q 347 -25 493 -25 q 118 37 204 -25 q 32 206 32 99 q 35 243 32 218 l 214 243 q 213 221 213 235 q 251 140 213 169 q 358 111 290 111 q 475 148 431 111 q 519 242 519 185 q 483 309 519 288 q 389 331 447 331 l 338 331 q 176 372 247 331 q 106 506 106 414 q 110 546 106 525 q 208 699 128 649 q 397 750 288 750 l 524 750 l 546 878 l 39 878 l 64 1028 l 1074 1028 m 856 624 q 916 601 893 624 q 939 543 939 578 q 903 463 939 499 q 821 428 867 428 q 762 451 785 428 q 739 508 739 474 q 774 589 739 554 q 856 624 810 624 z "},"च":{"ha":1036,"x_min":36,"x_max":1156,"o":"m 1129 878 l 975 878 l 821 0 l 642 0 l 685 246 q 563 156 635 188 q 411 124 492 124 q 234 181 303 124 q 165 339 165 239 q 171 393 165 354 q 212 498 182 450 q 289 578 242 546 l 81 578 l 106 719 l 615 719 l 590 578 l 536 578 q 410 535 463 578 q 344 424 357 492 q 342 393 342 401 q 383 304 342 336 q 490 272 425 272 q 647 337 582 274 q 729 499 711 400 l 796 878 l 36 878 l 61 1028 l 1156 1028 l 1129 878 z "},"छ":{"ha":1138,"x_min":33,"x_max":1257,"o":"m 954 878 l 931 743 q 1037 669 999 724 q 1075 532 1075 615 q 1068 461 1075 503 q 964 233 1044 331 q 756 84 883 136 q 468 32 629 32 q 253 63 347 32 q 107 155 160 94 q 54 297 54 215 q 60 349 54 325 q 131 485 76 432 q 265 558 186 539 l 265 563 q 183 610 214 574 q 153 710 153 646 q 157 761 153 735 l 178 878 l 33 878 l 58 1028 l 1257 1028 l 1231 878 l 954 878 m 788 878 l 358 878 l 339 768 q 335 729 335 747 q 453 635 335 635 l 482 635 l 457 490 l 431 490 q 291 442 342 490 q 240 326 240 394 q 306 221 240 257 q 496 185 371 185 q 776 259 667 185 q 911 468 886 333 q 915 511 915 492 q 890 593 915 564 q 825 622 865 622 q 742 589 779 622 q 693 493 704 556 q 689 436 689 467 q 692 378 689 417 l 544 378 q 539 438 539 414 q 546 513 539 468 q 621 667 563 610 q 764 744 679 724 l 788 878 z "},"ज":{"ha":1183,"x_min":36,"x_max":1303,"o":"m 1276 878 l 1124 878 l 968 0 l 789 0 l 882 531 l 683 531 l 669 454 q 555 238 646 321 q 328 156 464 156 q 139 221 208 156 q 69 396 69 286 q 75 460 69 431 l 115 683 l 294 683 l 254 458 q 250 418 250 438 q 276 340 250 368 q 349 313 301 313 q 444 351 406 313 q 496 458 483 390 l 535 683 l 910 683 l 943 878 l 36 878 l 61 1028 l 1303 1028 l 1276 878 z "},"झ":{"ha":1207,"x_min":24,"x_max":1326,"o":"m 1299 878 l 1144 878 l 992 0 l 815 0 l 871 322 l 667 322 q 685 240 685 283 q 681 194 685 219 q 592 42 663 101 q 411 -17 522 -17 q 292 10 336 -17 q 226 69 247 38 l 194 -112 l 24 -112 l 86 236 l 247 236 q 278 149 244 182 q 379 115 311 115 q 484 151 447 115 q 521 238 521 186 q 488 306 521 281 q 390 331 454 331 l 308 331 q 164 379 222 335 q 106 510 106 424 q 110 551 106 529 q 209 704 128 656 q 401 753 290 753 l 528 753 l 550 878 l 46 878 l 72 1028 l 1326 1028 l 1299 878 m 968 878 l 722 878 l 700 753 l 701 753 l 678 624 l 425 624 q 329 601 369 624 q 289 521 289 578 q 315 472 289 488 q 385 457 342 457 l 446 457 l 894 457 l 968 878 z "},"ञ":{"ha":1146,"x_min":36,"x_max":1265,"o":"m 1239 878 l 1086 878 l 931 0 l 751 0 l 814 356 l 689 356 q 552 164 649 235 q 326 93 456 93 q 126 158 200 93 q 53 328 53 222 l 54 353 l 222 353 q 262 275 228 306 q 353 244 296 244 q 481 296 429 244 q 544 425 532 347 q 549 467 549 446 q 516 565 549 528 q 418 603 483 603 q 314 572 360 603 q 247 494 268 540 l 79 494 q 208 683 110 611 q 443 756 307 756 q 640 688 568 756 q 714 507 711 621 l 840 507 l 906 878 l 36 878 l 61 1028 l 1265 1028 l 1239 878 z "},"ट":{"ha":896,"x_min":32,"x_max":1015,"o":"m 507 600 q 331 547 406 600 q 236 393 256 493 q 232 354 232 372 q 281 238 232 282 q 413 194 329 194 q 574 252 507 194 q 656 403 640 310 l 826 403 q 749 212 808 294 q 599 84 690 129 q 393 39 507 39 q 215 76 293 39 q 94 179 138 113 q 51 335 51 246 q 57 399 51 369 q 211 660 86 568 q 522 751 336 751 l 529 751 l 551 878 l 32 878 l 60 1028 l 1015 1028 l 989 878 l 728 878 l 678 600 l 507 600 z "},"ठ":{"ha":931,"x_min":31,"x_max":1050,"o":"m 614 878 l 590 746 q 767 648 700 722 q 835 463 835 574 q 828 394 835 433 q 747 211 810 289 q 590 92 683 133 q 389 50 497 50 q 217 86 293 50 q 98 190 142 122 q 54 346 54 257 q 60 411 54 382 q 183 640 85 553 q 415 749 281 728 l 438 878 l 31 878 l 58 1028 l 1050 1028 l 1022 878 l 614 878 m 654 442 q 607 559 654 514 q 479 604 560 604 q 356 574 413 604 q 267 488 300 543 q 233 365 233 433 q 281 246 233 292 q 407 200 328 200 q 531 231 475 200 q 621 318 588 263 q 654 442 654 374 z "},"ड":{"ha":792,"x_min":32,"x_max":911,"o":"m 424 624 q 334 605 372 624 q 288 540 296 586 q 286 524 286 535 q 382 457 286 457 l 443 457 q 622 408 551 457 q 692 261 692 358 q 688 211 692 239 q 580 38 667 101 q 347 -25 493 -25 q 118 37 204 -25 q 32 206 32 99 q 35 243 32 218 l 214 243 q 213 221 213 235 q 251 140 213 169 q 358 111 290 111 q 475 148 431 111 q 519 242 519 185 q 483 309 519 288 q 389 331 447 331 l 338 331 q 176 372 247 331 q 106 506 106 414 q 110 546 106 525 q 208 699 128 649 q 397 750 288 750 l 519 750 l 542 878 l 39 878 l 64 1028 l 911 1028 l 886 878 l 717 878 l 671 624 l 424 624 z "},"ढ":{"ha":903,"x_min":35,"x_max":1022,"o":"m 567 636 q 347 569 440 636 q 232 378 253 501 q 228 326 228 351 q 286 181 228 236 q 454 126 344 126 q 603 167 542 126 q 679 275 665 207 q 681 294 681 282 q 658 355 681 332 q 597 378 635 378 q 528 354 558 378 q 492 292 499 331 q 489 265 489 275 l 361 265 q 365 315 361 293 q 452 456 381 406 q 626 507 524 507 q 778 454 721 507 q 835 315 835 401 q 831 269 835 294 q 703 71 808 144 q 436 -3 599 -3 q 238 38 325 -3 q 103 151 151 78 q 54 322 54 225 q 61 393 54 351 q 151 594 83 511 q 317 718 218 676 q 532 760 415 760 l 569 760 l 590 878 l 35 878 l 63 1028 l 1022 1028 l 996 878 l 758 878 l 717 636 l 567 636 z "},"ण":{"ha":1222,"x_min":36,"x_max":1342,"o":"m 1315 878 l 1163 878 l 1007 0 l 828 0 l 983 878 l 765 878 l 700 517 q 593 302 676 383 q 374 221 510 221 q 183 285 254 221 q 113 457 113 350 q 118 517 113 489 l 183 878 l 36 878 l 61 1028 l 1342 1028 l 1315 878 m 589 878 l 358 878 l 292 500 q 289 469 289 478 q 314 399 289 425 q 385 372 339 372 q 475 407 439 372 q 522 500 511 442 l 589 878 z "},"त":{"ha":976,"x_min":36,"x_max":1094,"o":"m 1068 878 l 914 878 l 761 0 l 581 0 l 674 532 l 489 532 q 318 482 386 532 q 233 339 250 432 q 229 292 229 314 q 274 182 229 221 q 406 143 318 143 l 432 143 l 408 3 l 369 3 q 138 74 229 3 q 46 279 46 144 q 51 347 46 315 q 205 603 81 519 q 508 686 329 686 l 701 686 l 735 878 l 36 878 l 61 1028 l 1094 1028 l 1068 878 z "},"थ":{"ha":1086,"x_min":79,"x_max":1206,"o":"m 1206 1028 l 1181 878 l 1026 878 l 871 0 l 692 0 l 742 283 q 613 171 700 218 q 413 124 525 124 q 169 205 258 124 q 79 428 79 286 q 88 513 79 467 q 110 601 93 549 l 236 601 q 438 640 358 601 q 533 772 517 678 q 536 799 536 792 q 512 863 536 839 q 444 888 488 888 q 342 837 379 888 q 307 714 306 786 l 146 714 q 189 878 149 804 q 303 997 229 953 q 474 1040 376 1040 q 645 981 582 1040 q 708 824 708 922 q 703 767 708 793 q 568 550 678 628 q 283 472 458 472 l 256 472 q 254 443 254 463 q 307 319 254 367 q 464 272 360 272 q 609 306 540 272 q 726 406 678 340 q 790 560 775 471 l 872 1028 l 1206 1028 z "},"द":{"ha":851,"x_min":38,"x_max":969,"o":"m 489 597 q 332 551 397 597 q 253 421 267 504 q 250 383 250 408 q 287 287 250 322 q 390 251 324 251 q 505 290 453 251 q 569 401 557 329 l 735 401 l 658 -37 l 482 -37 l 522 192 q 432 130 486 151 q 314 108 378 108 q 135 176 206 108 q 64 363 64 244 q 71 433 64 392 q 215 670 99 589 q 497 751 332 751 l 568 751 l 590 878 l 38 878 l 65 1028 l 969 1028 l 943 878 l 769 878 l 721 597 l 489 597 z "},"ध":{"ha":1013,"x_min":76,"x_max":1132,"o":"m 1106 878 l 954 878 l 800 0 l 621 0 l 667 258 q 528 155 611 192 q 344 118 444 118 q 152 173 228 118 q 76 325 76 228 q 81 368 76 346 q 153 503 96 453 q 279 567 211 553 l 281 572 q 182 637 221 589 q 143 758 143 685 q 147 807 143 782 q 242 978 165 915 q 431 1040 319 1040 q 588 990 532 1040 q 644 853 644 940 q 631 758 644 806 l 497 758 q 504 804 504 786 q 483 867 504 844 q 418 890 461 890 q 330 849 365 890 q 294 750 294 808 q 333 671 294 697 q 436 644 371 644 l 543 644 l 518 500 l 444 500 q 313 465 361 500 q 265 367 265 429 q 306 292 265 318 q 417 267 347 267 q 607 334 525 267 q 711 511 689 401 l 776 878 l 801 1028 l 1132 1028 l 1106 878 z "},"न":{"ha":1125,"x_min":36,"x_max":1244,"o":"m 1218 878 l 1064 878 l 910 0 l 731 0 l 826 543 l 615 543 q 642 433 642 497 q 638 383 642 411 q 576 242 624 301 q 460 152 529 183 q 317 121 392 121 q 180 151 240 121 q 85 238 119 182 q 51 364 51 293 q 57 418 51 382 q 179 622 81 551 q 419 693 278 693 l 853 693 l 885 878 l 36 878 l 61 1028 l 1244 1028 l 1218 878 m 500 436 q 469 514 500 485 q 385 543 438 543 q 266 497 315 543 q 217 381 217 450 q 249 301 217 331 q 338 272 282 272 q 452 320 404 272 q 500 436 500 368 z "},"प":{"ha":928,"x_min":36,"x_max":1047,"o":"m 1021 878 l 868 878 l 713 0 l 535 0 l 593 329 q 374 242 508 242 q 178 315 247 242 q 108 510 108 388 q 117 594 108 551 l 167 878 l 36 878 l 61 1028 l 1047 1028 l 1021 878 m 689 878 l 346 878 l 296 594 q 290 540 290 556 q 328 432 290 471 q 439 393 365 393 q 569 443 517 393 q 635 572 621 493 l 689 878 z "},"फ":{"ha":1368,"x_min":36,"x_max":1488,"o":"m 844 878 l 801 640 q 906 723 844 693 q 1046 753 968 753 q 1218 685 1156 753 q 1281 508 1281 618 q 1275 440 1281 472 q 1207 267 1257 340 q 1085 156 1157 194 q 929 118 1013 118 q 835 131 876 118 l 858 269 q 908 263 883 263 q 1026 308 976 263 q 1090 431 1076 354 q 1094 468 1094 450 q 1058 563 1094 526 q 963 599 1022 599 q 835 550 886 599 q 764 425 785 501 l 689 0 l 510 0 l 567 326 q 358 242 485 242 q 173 310 239 242 q 107 496 107 379 q 117 586 107 531 l 168 878 l 36 878 l 61 1028 l 1488 1028 l 1460 878 l 844 878 m 664 878 l 347 878 l 296 586 q 290 528 290 558 q 324 428 290 464 q 425 393 357 393 q 544 440 496 393 q 607 557 593 486 l 664 878 z "},"ब":{"ha":957,"x_min":36,"x_max":1075,"o":"m 1075 1028 l 1049 878 l 894 878 l 742 0 l 568 0 l 606 211 q 496 129 563 160 q 349 99 429 99 q 201 133 265 99 q 100 231 136 168 q 64 376 64 294 q 71 444 64 406 q 142 615 88 542 q 280 727 197 688 q 461 767 363 767 q 596 737 539 767 q 683 657 653 707 l 722 878 l 36 878 l 61 1028 l 1075 1028 m 656 438 q 658 475 658 450 q 612 599 658 549 q 479 649 565 649 q 329 600 394 649 l 613 335 q 656 438 644 381 m 226 436 q 222 393 222 414 q 274 272 222 317 q 406 228 326 228 q 554 276 492 228 l 269 540 q 226 436 238 494 z "},"भ":{"ha":1153,"x_min":57,"x_max":1272,"o":"m 1272 1028 l 1247 878 l 1092 878 l 936 0 l 757 0 l 843 493 l 651 493 l 638 411 q 525 185 611 265 q 304 106 439 106 q 124 164 190 106 q 57 321 57 222 q 61 374 57 347 q 180 570 85 501 q 406 639 275 639 l 508 639 l 529 754 q 533 800 533 779 q 457 888 533 888 q 383 858 414 888 q 343 776 353 828 q 340 729 339 751 l 160 729 l 160 743 q 163 783 160 756 q 266 969 185 899 q 475 1040 347 1040 q 645 981 590 1040 q 700 818 700 922 q 690 722 700 781 l 676 639 l 869 639 l 938 1028 l 1272 1028 m 483 493 l 385 493 q 272 454 317 493 q 226 349 226 415 q 254 282 226 307 q 325 257 282 257 q 419 296 382 257 q 467 401 456 335 l 483 493 z "},"म":{"ha":1142,"x_min":31,"x_max":1260,"o":"m 1233 878 l 1079 878 l 925 0 l 744 0 l 832 493 l 624 493 l 610 411 q 498 186 585 267 q 276 106 411 106 q 97 164 164 106 q 31 319 31 222 q 36 374 31 335 q 153 570 57 501 q 378 639 249 639 l 482 639 l 524 878 l 36 878 l 61 1028 l 1260 1028 l 1233 878 m 900 878 l 692 878 l 650 639 l 857 639 l 900 878 m 457 493 l 357 493 q 245 454 290 493 q 200 350 200 415 q 228 282 200 307 q 300 257 256 257 q 392 295 356 257 q 440 401 428 333 l 457 493 z "},"य":{"ha":1040,"x_min":36,"x_max":1160,"o":"m 1133 878 l 979 878 l 825 0 l 646 0 l 689 246 q 565 160 638 192 q 404 129 493 129 q 164 212 251 129 q 76 436 76 294 q 85 521 76 478 q 104 599 90 556 l 121 599 q 297 649 235 599 q 378 803 358 699 l 390 878 l 36 878 l 61 1028 l 1160 1028 l 1133 878 m 800 878 l 568 878 l 549 771 q 456 581 528 650 q 260 503 385 513 q 256 454 256 478 q 308 326 256 374 q 457 279 361 279 q 642 346 565 279 q 736 518 718 413 l 800 878 z "},"र":{"ha":742,"x_min":38,"x_max":860,"o":"m 833 878 l 699 878 l 682 782 q 293 436 618 436 l 263 436 l 235 279 q 231 240 231 258 q 256 167 231 194 q 326 140 281 140 q 413 176 378 140 q 458 269 447 211 l 463 304 l 635 304 l 632 275 q 526 65 610 142 q 313 -12 443 -12 q 121 52 189 -12 q 53 224 53 117 q 58 288 53 258 l 111 582 l 253 582 q 424 633 364 582 q 501 782 483 683 l 518 878 l 38 878 l 63 1028 l 860 1028 l 833 878 z "},"ल":{"ha":1258,"x_min":31,"x_max":1378,"o":"m 1054 878 l 1026 715 q 1127 625 1090 686 q 1164 476 1164 564 q 1157 399 1164 444 q 1023 152 1131 244 q 749 61 915 60 l 700 64 l 728 221 q 767 218 750 218 q 904 269 849 218 q 975 407 960 321 q 979 453 979 432 q 949 546 979 511 q 861 581 918 581 q 740 526 788 581 q 678 382 693 471 l 672 353 l 524 353 l 528 382 q 535 446 535 419 q 506 544 535 507 q 418 581 476 581 q 301 533 347 581 q 239 407 254 485 q 235 363 235 385 q 274 257 235 296 q 386 218 313 218 q 422 221 394 218 l 393 64 q 351 61 360 61 q 130 138 207 61 q 53 339 53 214 q 60 417 53 372 q 185 656 86 574 q 415 738 283 738 q 566 688 513 738 q 632 564 619 638 l 635 564 q 723 673 668 628 q 854 732 778 718 l 878 878 l 31 878 l 57 1028 l 1378 1028 l 1351 878 l 1054 878 z "},"व":{"ha":931,"x_min":36,"x_max":1049,"o":"m 1049 1028 l 1022 878 l 869 878 l 715 0 l 540 0 l 578 217 q 470 134 533 164 q 331 104 407 104 q 136 175 208 104 q 64 368 64 246 q 72 449 64 407 q 194 674 97 590 q 431 758 292 758 q 565 729 510 758 q 653 649 621 700 l 693 878 l 36 878 l 61 1028 l 1049 1028 m 399 247 q 540 299 482 247 q 614 421 597 351 l 617 442 q 618 467 618 450 q 578 572 618 531 q 461 614 539 614 q 352 586 403 614 q 271 508 301 558 q 240 396 240 458 q 283 288 240 328 q 399 247 325 247 z "},"श":{"ha":1167,"x_min":61,"x_max":1286,"o":"m 354 144 q 455 187 415 144 q 508 304 494 229 l 682 304 q 576 74 663 158 q 342 -11 489 -11 q 135 56 210 -11 q 61 239 61 122 q 68 310 61 268 l 114 567 l 311 567 q 498 610 419 567 q 593 747 576 654 q 596 778 596 769 q 567 856 596 826 q 492 885 539 885 q 377 830 419 885 q 335 694 335 775 l 157 694 q 209 878 163 800 q 333 999 256 957 q 511 1040 411 1040 q 705 976 631 1040 q 779 797 779 911 q 774 733 779 763 q 628 496 744 576 q 350 415 513 415 l 268 415 l 247 297 q 243 256 243 275 q 270 174 243 204 q 354 144 297 144 m 1286 1028 l 1258 878 l 1106 878 l 951 0 l 769 0 l 950 1028 l 1286 1028 z "},"ष":{"ha":944,"x_min":36,"x_max":1064,"o":"m 1036 878 l 883 878 l 729 0 l 553 0 l 610 326 q 376 229 521 229 q 178 304 249 229 q 108 507 108 379 q 117 594 108 549 l 167 878 l 36 878 l 61 1028 l 1064 1028 l 1036 878 m 707 878 l 343 878 l 660 613 l 707 878 m 435 381 q 548 411 499 381 q 625 493 597 442 l 318 750 l 289 589 q 283 536 283 553 q 323 422 283 464 q 435 381 363 381 z "},"स":{"ha":1146,"x_min":36,"x_max":1265,"o":"m 1239 878 l 1085 878 l 931 0 l 751 0 l 829 443 l 264 443 l 235 282 q 232 244 232 269 q 257 168 232 196 q 332 140 282 140 q 422 181 388 140 q 468 288 457 221 l 640 288 q 539 69 625 150 q 314 -12 453 -12 q 122 55 190 -12 q 54 233 54 122 q 60 299 54 269 l 108 571 l 221 571 q 469 772 432 571 l 488 878 l 36 878 l 63 1028 l 1265 1028 l 1239 878 m 906 878 l 667 878 l 647 772 q 565 589 629 664 l 854 589 l 906 878 z "},"ह":{"ha":826,"x_min":39,"x_max":946,"o":"m 946 1028 l 919 878 l 735 878 l 713 757 l 689 628 l 443 628 q 362 608 396 628 q 319 544 328 588 q 318 528 318 539 q 330 490 318 506 q 363 465 342 474 q 429 469 394 469 q 588 433 524 469 q 683 341 653 397 q 708 222 713 285 l 536 222 q 500 295 533 264 q 404 326 467 326 q 281 280 333 326 q 218 161 229 233 q 214 122 214 140 q 249 31 214 65 q 347 -3 285 -3 q 451 27 406 -3 q 514 99 496 57 l 686 99 q 617 -28 667 28 q 494 -118 568 -85 q 331 -151 421 -151 q 176 -118 242 -151 q 74 -25 110 -85 q 39 111 39 35 q 44 174 39 146 q 104 317 58 256 q 219 418 150 379 q 146 546 146 463 q 218 700 146 643 q 404 757 290 757 l 542 757 l 563 878 l 50 878 l 75 1028 l 946 1028 z "},"ळ":{"ha":1346,"x_min":28,"x_max":1465,"o":"m 1121 878 l 1092 718 q 1209 628 1167 690 q 1251 478 1251 565 q 1246 414 1251 443 q 1176 247 1229 319 q 1044 135 1122 175 q 878 96 965 96 q 715 142 781 96 q 629 269 649 189 l 622 269 q 497 142 576 189 q 319 96 417 96 q 126 165 201 96 q 51 350 51 233 q 57 414 51 385 q 128 583 74 510 q 260 697 182 657 q 425 736 338 736 q 583 692 518 736 q 676 565 647 649 l 681 565 q 786 676 725 633 q 921 731 847 718 l 947 878 l 28 878 l 54 1028 l 1465 1028 l 1439 878 l 1121 878 m 564 414 q 567 447 567 436 q 529 546 567 508 q 428 583 492 583 q 328 558 374 583 q 256 485 283 532 q 229 379 229 438 q 267 284 229 319 q 369 249 306 249 q 496 294 442 249 q 564 414 550 340 m 1071 413 q 1074 447 1074 438 q 1036 547 1074 510 q 935 583 999 583 q 807 536 861 583 q 739 414 753 489 q 736 381 736 392 q 773 285 736 321 q 874 249 810 249 q 1002 294 947 249 q 1071 413 1057 339 z "},"क़":{"ha":1356,"x_min":36,"x_max":1474,"o":"m 838 878 l 796 642 q 893 723 835 693 q 1024 753 951 753 q 1200 682 1135 753 q 1265 499 1265 611 q 1258 428 1265 469 q 1138 199 1231 279 q 915 118 1044 118 q 826 128 867 118 l 851 269 q 894 264 867 264 q 1013 309 961 264 q 1078 431 1065 354 q 1081 465 1081 456 q 1045 562 1081 525 q 949 599 1010 599 q 826 551 875 599 q 760 432 778 504 l 683 0 l 511 0 l 550 221 q 447 138 508 168 q 310 107 386 107 q 131 176 200 107 q 63 361 63 246 q 69 435 63 393 q 190 666 94 579 q 419 753 285 753 q 550 722 499 753 q 624 639 601 692 l 665 878 l 36 878 l 61 1028 l 1474 1028 l 1449 878 l 838 878 m 586 428 q 589 463 589 439 q 553 560 589 521 q 449 600 518 600 q 349 574 396 600 q 274 500 303 547 q 246 392 246 453 q 285 293 246 329 q 389 257 325 257 q 520 308 468 258 q 585 421 572 357 l 586 428 m 350 -76 q 310 -164 350 -126 q 221 -201 271 -201 q 155 -176 181 -201 q 129 -112 129 -151 q 169 -23 129 -61 q 258 15 208 15 q 324 -10 299 15 q 350 -76 350 -36 z "},"ख़":{"ha":1319,"x_min":36,"x_max":1439,"o":"m 1439 1028 l 1411 878 l 1258 878 l 1106 0 l 926 0 l 969 250 q 775 168 894 168 q 731 172 751 168 q 580 42 669 92 q 383 -7 490 -7 q 150 67 233 -7 q 67 279 67 142 q 75 367 67 321 l 108 557 l 149 557 q 299 602 242 557 q 374 749 357 647 l 396 878 l 36 878 l 63 1028 l 1439 1028 m 1079 878 l 576 878 l 550 725 q 450 513 526 586 q 264 431 374 439 l 250 346 q 246 301 246 324 q 290 189 246 231 q 415 147 333 147 q 528 174 479 147 q 610 243 576 201 q 557 408 557 310 q 563 472 557 443 q 620 612 576 551 q 728 706 664 672 q 865 739 793 739 q 974 717 931 739 q 1040 656 1018 694 l 1079 878 m 836 306 q 946 346 901 306 q 1003 442 990 386 l 1007 464 l 1008 482 q 978 567 1008 532 q 886 601 947 601 q 776 562 824 601 q 715 456 728 522 q 713 424 713 433 q 747 337 713 368 q 836 306 782 306 m 431 -186 q 391 -274 431 -236 q 301 -311 351 -311 q 235 -286 261 -311 q 210 -222 210 -261 q 249 -133 210 -171 q 339 -94 289 -94 q 405 -120 379 -94 q 431 -186 431 -146 z "},"ग़":{"ha":1096,"x_min":36,"x_max":1214,"o":"m 1214 1028 l 1188 878 l 1033 878 l 879 0 l 700 0 l 854 878 l 651 878 l 593 542 q 496 341 572 418 q 289 264 419 264 q 117 319 179 264 q 54 472 54 375 q 60 532 54 504 l 68 575 l 242 575 l 233 532 q 231 497 231 507 q 303 417 231 417 q 378 450 353 417 q 411 533 404 483 l 472 878 l 36 878 l 61 1028 l 1214 1028 m 360 78 q 320 -10 360 28 q 231 -47 281 -47 q 165 -22 190 -47 q 139 42 139 3 q 178 131 139 93 q 268 169 218 169 q 334 144 308 169 q 360 78 360 118 z "},"ज़":{"ha":1183,"x_min":36,"x_max":1303,"o":"m 1276 878 l 1124 878 l 968 0 l 789 0 l 882 531 l 683 531 l 669 454 q 555 238 646 321 q 328 156 464 156 q 139 221 208 156 q 69 396 69 286 q 75 460 69 431 l 115 683 l 294 683 l 254 458 q 250 418 250 438 q 276 340 250 368 q 349 313 301 313 q 444 351 406 313 q 496 458 483 390 l 535 683 l 910 683 l 943 878 l 36 878 l 61 1028 l 1303 1028 l 1276 878 m 400 -26 q 360 -114 400 -76 q 271 -151 321 -151 q 205 -126 231 -151 q 179 -62 179 -101 q 219 27 179 -11 q 308 65 258 65 q 374 40 349 65 q 400 -26 400 14 z "},"ड़":{"ha":792,"x_min":32,"x_max":911,"o":"m 424 624 q 334 605 372 624 q 288 540 296 586 q 286 524 286 535 q 382 457 286 457 l 443 457 q 622 408 551 457 q 692 261 692 358 q 688 211 692 239 q 580 38 667 101 q 347 -25 493 -25 q 118 37 204 -25 q 32 206 32 99 q 35 243 32 218 l 214 243 q 213 221 213 235 q 251 140 213 169 q 358 111 290 111 q 475 148 431 111 q 519 242 519 185 q 483 309 519 288 q 389 331 447 331 l 338 331 q 176 372 247 331 q 106 506 106 414 q 110 546 106 525 q 208 699 128 649 q 397 750 288 750 l 519 750 l 542 878 l 39 878 l 64 1028 l 911 1028 l 886 878 l 717 878 l 671 624 l 424 624 m 411 -207 q 372 -294 411 -257 q 282 -332 332 -332 q 216 -307 242 -332 q 190 -243 190 -282 q 230 -153 190 -192 q 319 -115 269 -115 q 385 -141 360 -115 q 411 -207 411 -167 z "},"ढ़":{"ha":903,"x_min":35,"x_max":1022,"o":"m 567 636 q 347 569 440 636 q 232 378 253 501 q 228 326 228 351 q 286 181 228 236 q 454 126 344 126 q 603 167 542 126 q 679 275 665 207 q 681 294 681 282 q 658 355 681 332 q 597 378 635 378 q 528 354 558 378 q 492 292 499 331 q 489 265 489 275 l 361 265 q 365 315 361 293 q 452 456 381 406 q 626 507 524 507 q 778 454 721 507 q 835 315 835 401 q 831 269 835 294 q 703 71 808 144 q 436 -3 599 -3 q 238 38 325 -3 q 103 151 151 78 q 54 322 54 225 q 61 393 54 351 q 151 594 83 511 q 317 718 218 676 q 532 760 415 760 l 569 760 l 590 878 l 35 878 l 63 1028 l 1022 1028 l 996 878 l 758 878 l 717 636 l 567 636 m 472 -183 q 433 -271 472 -233 q 343 -308 393 -308 q 277 -283 303 -308 q 251 -219 251 -258 q 291 -130 251 -168 q 381 -92 331 -92 q 447 -117 421 -92 q 472 -183 472 -143 z "},"फ़":{"ha":1368,"x_min":36,"x_max":1488,"o":"m 844 878 l 801 640 q 906 723 844 693 q 1046 753 968 753 q 1218 685 1156 753 q 1281 508 1281 618 q 1275 440 1281 472 q 1207 267 1257 340 q 1085 156 1157 194 q 929 118 1013 118 q 835 131 876 118 l 858 269 q 908 263 883 263 q 1026 308 976 263 q 1090 431 1076 354 q 1094 468 1094 450 q 1058 563 1094 526 q 963 599 1022 599 q 835 550 886 599 q 764 425 785 501 l 689 0 l 510 0 l 567 326 q 358 242 485 242 q 173 310 239 242 q 107 496 107 379 q 117 586 107 531 l 168 878 l 36 878 l 61 1028 l 1488 1028 l 1460 878 l 844 878 m 664 878 l 347 878 l 296 586 q 290 528 290 558 q 324 428 290 464 q 425 393 357 393 q 544 440 496 393 q 607 557 593 486 l 664 878 m 361 65 q 322 -22 361 15 q 232 -60 282 -60 q 166 -35 192 -60 q 140 29 140 -10 q 180 119 140 81 q 269 157 219 157 q 335 131 310 157 q 361 65 361 106 z "},"ऱ":{"ha":742,"x_min":-68,"x_max":860,"o":"m 833 878 l 699 878 l 682 782 q 293 436 618 436 l 263 436 l 235 279 q 231 240 231 258 q 256 167 231 194 q 326 140 281 140 q 413 176 378 140 q 458 269 447 211 l 463 304 l 635 304 l 632 275 q 526 65 610 142 q 313 -12 443 -12 q 121 52 189 -12 q 53 224 53 117 q 58 288 53 258 l 111 582 l 253 582 q 424 633 364 582 q 501 782 483 683 l 518 878 l 38 878 l 63 1028 l 860 1028 l 833 878 m 153 -143 q 113 -231 153 -193 q 24 -268 74 -268 q -42 -243 -17 -268 q -68 -179 -68 -218 q -28 -90 -68 -128 q 61 -51 11 -51 q 127 -77 101 -51 q 153 -143 153 -103 z "},"ं":{"ha":0,"x_min":-199,"x_max":22,"o":"m 22 1267 q -17 1179 22 1217 q -107 1142 -57 1142 q -173 1167 -147 1142 q -199 1231 -199 1192 q -160 1319 -199 1282 q -71 1357 -121 1357 q -3 1332 -29 1357 q 22 1267 22 1307 z "},"ँ":{"ha":0,"x_min":-376,"x_max":254,"o":"m 21 1442 q -9 1388 15 1410 q -67 1367 -33 1367 q -110 1384 -93 1367 q -128 1426 -128 1401 q -126 1442 -128 1436 q -97 1494 -122 1472 q -40 1515 -71 1515 q 6 1499 -11 1515 q 22 1457 22 1482 q 21 1442 22 1447 m 254 1404 q 142 1205 232 1279 q -99 1131 51 1131 q -301 1192 -226 1131 q -376 1354 -376 1253 q -372 1404 -376 1379 l -229 1404 q -232 1379 -232 1388 q -194 1292 -232 1326 q -85 1258 -157 1258 q 47 1301 -6 1258 q 110 1404 99 1344 l 254 1404 z "},"ः":{"ha":364,"x_min":36,"x_max":328,"o":"m 328 681 q 289 593 328 631 q 199 556 250 556 q 134 581 160 556 q 108 643 108 606 q 147 733 108 696 q 238 771 186 771 q 303 746 278 771 q 328 681 328 721 m 256 272 q 217 182 256 219 q 126 144 178 144 q 62 169 88 144 q 36 233 36 194 q 75 322 36 283 q 164 360 114 360 q 230 335 204 360 q 256 272 256 310 z "},"ऽ":{"ha":818,"x_min":13,"x_max":779,"o":"m 13 72 l 40 224 l 371 224 q 442 246 415 224 q 468 303 468 268 q 444 365 468 335 q 368 444 419 396 q 288 526 318 492 q 235 606 257 560 q 213 704 213 651 q 217 747 213 725 q 303 887 233 840 q 475 933 374 933 l 779 933 l 751 782 l 493 782 q 424 766 453 782 q 394 707 394 750 q 419 642 394 674 q 496 564 444 611 q 575 483 544 518 q 628 403 606 449 q 650 306 650 358 q 617 185 650 238 q 526 102 585 132 q 390 72 467 72 l 13 72 z "},"्":{"ha":0,"x_min":-403,"x_max":-97,"o":"m -281 -376 l -403 -79 l -225 -79 l -97 -376 l -281 -376 z "},"़":{"ha":0,"x_min":-543,"x_max":-322,"o":"m -322 -179 q -362 -267 -322 -229 q -451 -304 -401 -304 q -517 -279 -492 -304 q -543 -215 -543 -254 q -503 -126 -543 -164 q -414 -87 -464 -87 q -348 -113 -374 -87 q -322 -179 -322 -139 z "},"०":{"ha":897,"x_min":75,"x_max":858,"o":"m 92 507 q 244 875 133 740 q 556 1010 354 1010 q 858 682 858 1010 q 842 507 858 599 q 378 3 753 3 q 75 332 75 3 q 92 507 75 415 m 650 507 q 667 661 667 600 q 634 785 667 740 q 524 829 601 829 q 361 744 413 829 q 283 507 310 660 q 267 353 267 414 q 299 228 267 272 q 410 183 332 183 q 535 226 488 183 q 607 338 582 269 q 650 507 632 407 z "},"१":{"ha":503,"x_min":113,"x_max":488,"o":"m 121 806 l 154 986 l 488 986 l 313 0 l 113 0 l 254 806 l 121 806 z "},"२":{"ha":797,"x_min":-6,"x_max":786,"o":"m 111 225 q 353 409 265 338 q 506 557 442 481 q 583 706 571 633 q 588 746 588 726 q 559 824 588 796 q 472 851 531 851 q 360 806 404 851 q 297 678 315 761 l 110 678 q 253 931 143 844 q 507 1017 363 1017 q 715 952 644 1017 q 786 781 786 888 q 781 718 786 746 q 688 518 763 614 q 525 349 613 422 q 299 175 438 276 l 708 175 l 679 14 l -6 14 l 19 158 l 111 225 z "},"३":{"ha":832,"x_min":42,"x_max":801,"o":"m 136 746 q 273 960 168 885 q 526 1036 378 1036 q 731 976 660 1036 q 801 819 801 917 q 797 768 801 796 q 727 620 783 681 q 604 539 671 560 l 604 533 q 701 465 667 513 q 736 343 736 417 q 731 281 736 310 q 665 132 715 197 q 535 30 615 67 q 350 -7 454 -7 q 125 58 208 -7 q 42 250 42 122 q 46 306 42 276 l 235 306 q 233 281 233 297 q 269 190 233 224 q 374 156 306 156 q 502 207 454 156 q 550 333 550 258 q 503 425 550 397 q 357 453 456 453 l 317 453 l 346 613 l 386 613 q 606 744 582 613 q 608 774 608 767 q 578 846 608 821 q 492 871 549 871 q 383 835 425 871 q 326 746 342 799 l 136 746 z "},"४":{"ha":918,"x_min":29,"x_max":861,"o":"m 29 197 l 56 350 l 625 1000 l 850 1000 l 740 367 l 861 367 l 832 197 l 710 197 l 674 0 l 481 0 l 515 197 l 29 197 m 632 792 l 274 367 l 557 367 l 632 792 z "},"५":{"ha":894,"x_min":88,"x_max":863,"o":"m 833 844 l 383 844 l 342 607 q 434 666 376 643 q 553 689 492 689 q 753 617 690 689 q 817 433 817 544 q 810 354 817 399 q 674 97 782 194 q 397 0 565 0 q 167 71 247 0 q 88 260 88 142 l 89 286 l 279 286 q 319 197 282 231 q 424 164 356 164 q 558 215 507 164 q 624 351 608 267 q 628 399 628 376 q 592 494 628 461 q 488 528 557 528 q 385 499 429 528 q 317 421 340 469 l 129 421 l 233 1015 l 863 1015 l 833 844 z "},"६":{"ha":889,"x_min":94,"x_max":850,"o":"m 661 760 q 629 847 658 818 q 536 876 600 876 q 382 799 440 876 q 290 549 324 722 q 404 635 335 604 q 549 667 474 667 q 735 601 667 667 q 803 417 803 536 q 796 336 803 372 q 726 160 779 238 q 590 40 674 83 q 399 -3 506 -3 q 165 78 236 -3 q 94 313 94 158 q 117 522 94 400 q 272 906 161 776 q 571 1036 382 1036 q 783 957 717 1036 q 842 760 850 878 l 661 760 m 476 507 q 345 464 403 507 q 274 339 288 421 q 269 296 269 317 q 308 197 269 232 q 418 163 346 163 q 546 208 494 163 q 611 332 597 254 q 615 376 615 356 q 581 472 615 438 q 476 507 546 507 z "},"७":{"ha":761,"x_min":64,"x_max":824,"o":"m 799 861 l 272 0 l 64 0 l 601 840 l 126 840 l 154 1006 l 824 1006 l 799 861 z "},"८":{"ha":893,"x_min":56,"x_max":857,"o":"m 268 547 q 165 719 165 604 q 169 771 165 744 q 232 907 182 844 q 365 1008 282 969 q 560 1046 449 1046 q 781 981 706 1046 q 857 817 857 917 q 853 771 857 794 q 791 637 839 694 q 675 547 743 579 q 767 469 735 519 q 800 349 800 418 q 794 293 800 332 q 716 124 776 196 q 565 15 656 53 q 371 -22 475 -22 q 142 45 229 -22 q 56 232 56 113 q 61 293 56 265 q 132 450 78 385 q 268 547 186 515 m 531 885 q 414 847 461 885 q 354 742 367 810 q 351 714 351 722 q 387 633 351 663 q 482 603 422 603 q 610 651 557 603 q 663 774 663 700 q 628 856 663 828 q 531 885 593 885 m 456 463 q 319 421 376 463 q 250 301 263 379 q 247 267 247 289 q 288 174 247 208 q 400 139 328 139 q 550 196 492 139 q 608 338 608 253 q 567 430 608 397 q 456 463 525 463 z "},"९":{"ha":869,"x_min":94,"x_max":833,"o":"m 276 285 q 413 158 281 158 q 551 231 499 158 q 632 471 603 303 q 531 401 593 426 q 401 376 469 376 q 209 441 282 376 q 136 624 136 506 q 143 699 136 654 q 278 944 171 853 q 544 1036 385 1036 q 765 959 697 1036 q 833 731 833 882 q 813 528 833 640 q 730 233 781 347 q 594 58 679 118 q 378 -1 508 -1 q 165 70 235 -1 q 94 253 94 142 q 96 285 94 274 l 276 285 m 469 535 q 590 579 540 535 q 653 699 640 624 q 657 743 657 722 q 621 838 657 806 q 521 871 585 871 q 394 824 446 871 q 329 701 343 778 q 325 663 325 681 q 361 569 325 604 q 469 535 397 535 z "},"ॐ":{"ha":1481,"x_min":24,"x_max":1367,"o":"m 883 1256 q 838 1273 856 1256 q 821 1317 821 1290 q 848 1378 821 1351 q 908 1404 875 1404 q 953 1388 936 1404 q 971 1344 971 1371 q 969 1329 971 1335 q 940 1276 965 1297 q 883 1256 915 1256 m 856 1018 q 646 1079 719 1018 q 572 1239 572 1140 q 578 1292 572 1256 l 719 1292 q 718 1268 718 1283 q 756 1181 718 1215 q 868 1147 794 1147 q 999 1189 949 1147 q 1060 1292 1049 1231 l 1204 1292 q 1096 1092 1185 1165 q 856 1018 1007 1018 m 1125 950 q 1367 717 1367 950 q 1356 607 1367 669 l 1325 431 q 1179 129 1289 232 q 886 26 1069 26 q 749 40 832 26 l 775 190 q 882 179 839 179 q 1068 244 1007 179 q 1151 436 1129 310 l 1186 629 q 1193 693 1193 668 q 1099 797 1193 797 q 1003 759 1038 797 q 960 657 969 721 q 859 441 932 506 q 638 374 786 376 q 640 342 640 354 q 635 290 640 324 q 519 90 613 165 q 297 15 426 15 q 97 78 169 15 q 24 247 24 140 q 29 304 24 278 l 197 304 q 194 278 194 285 q 227 199 194 229 q 314 169 260 169 q 419 208 375 169 q 474 307 463 246 q 475 332 475 315 q 443 415 475 382 q 343 447 411 447 l 283 447 l 310 599 l 369 599 q 490 643 444 599 q 536 750 536 688 q 506 824 536 797 q 429 851 476 851 q 332 818 374 851 q 281 732 290 785 l 114 732 q 231 928 136 854 q 461 1003 326 1003 q 640 948 575 1003 q 706 799 706 893 q 701 747 706 775 q 637 610 688 667 q 507 531 586 553 l 507 525 q 540 514 522 522 l 622 514 q 736 545 696 514 q 792 658 776 576 q 896 875 817 800 q 1125 950 975 950 z "},"॰":{"ha":669,"x_min":96,"x_max":575,"o":"m 378 703 q 522 652 468 703 q 575 518 575 601 q 571 472 575 496 q 478 308 553 372 q 299 244 403 244 q 151 295 207 244 q 96 429 96 346 q 100 474 96 451 q 195 639 118 575 q 378 703 272 703 m 360 596 q 252 554 297 596 q 207 450 207 513 q 237 378 207 406 q 317 351 267 351 q 419 392 376 351 q 461 494 461 433 q 433 568 461 540 q 360 596 406 596 z "},"।":{"ha":444,"x_min":119,"x_max":478,"o":"m 478 1029 l 297 0 l 119 0 l 300 1029 l 478 1029 z "},"॥":{"ha":792,"x_min":119,"x_max":822,"o":"m 478 1029 l 297 0 l 119 0 l 300 1029 l 478 1029 m 822 1029 l 642 0 l 464 0 l 644 1029 l 822 1029 z "},"₨":{"ha":1621,"x_min":24,"x_max":1535,"o":"m 857 674 q 767 499 839 575 q 575 394 696 422 l 750 0 l 521 0 l 361 382 l 288 382 l 219 0 l 24 0 l 196 969 l 560 969 q 785 903 708 969 q 861 728 861 836 q 857 674 861 701 m 657 669 q 660 703 660 694 q 626 784 660 756 q 525 813 593 813 l 363 813 l 313 526 l 475 526 q 600 564 554 526 q 657 669 646 601 m 1336 528 q 1310 605 1339 578 q 1225 632 1282 632 q 1135 608 1171 632 q 1093 547 1100 585 q 1092 535 1092 543 q 1129 480 1092 497 q 1250 443 1167 463 q 1374 410 1325 428 q 1458 357 1424 393 q 1492 261 1492 321 q 1447 121 1492 183 q 1321 23 1401 58 q 1142 -12 1240 -12 q 932 47 1008 -12 q 856 215 856 106 q 857 243 856 233 l 1054 243 q 1080 165 1049 193 q 1168 138 1111 138 q 1261 161 1225 138 q 1304 224 1297 185 q 1306 236 1306 228 q 1266 293 1306 275 q 1144 328 1226 311 q 1021 361 1068 344 q 940 413 974 378 q 906 507 906 449 q 949 642 906 579 q 1074 744 993 706 q 1261 782 1156 782 q 1463 721 1392 782 q 1535 554 1535 660 q 1533 528 1535 536 l 1336 528 z "},"₹":{"ha":849,"x_min":76,"x_max":904,"o":"m 739 835 l 721 729 l 863 729 l 839 601 l 689 601 q 547 410 643 469 q 275 350 450 350 l 263 276 q 258 231 258 251 q 357 136 258 136 q 453 172 419 136 q 500 275 488 207 l 681 275 q 564 60 653 135 q 333 -14 475 -14 q 142 44 207 -14 q 76 215 76 103 q 83 296 76 260 l 115 481 q 338 488 265 481 q 449 521 410 496 q 508 601 488 546 l 93 601 l 117 729 l 538 729 l 557 835 l 135 835 l 158 971 l 904 971 l 881 835 l 739 835 z "},"‌":{"ha":0,"x_min":-32,"x_max":33,"o":"m -32 -319 l -32 1126 l 33 1126 l 33 -319 l -32 -319 z "},"‍":{"ha":0,"x_min":-178,"x_max":178,"o":"m 132 778 l 32 882 l 32 -319 l -33 -319 l -33 882 l -129 781 l -175 826 l -46 956 l -178 1088 l -132 1133 l 0 1001 l 133 1133 l 178 1089 l 44 956 l 178 824 l 132 778 z "},"◌":{"ha":904,"x_min":69,"x_max":835,"o":"m 478 692 q 461 649 478 665 q 418 633 444 633 q 375 649 392 633 q 358 692 358 665 q 375 734 358 718 q 418 750 392 750 q 461 734 444 750 q 478 692 478 718 m 646 671 q 629 628 646 644 q 586 613 613 613 q 543 628 560 613 q 526 671 526 644 q 543 713 526 697 q 586 729 560 729 q 629 713 613 729 q 646 671 646 697 m 315 633 q 299 591 315 607 q 256 575 282 575 q 213 591 229 575 q 196 633 196 607 q 213 676 196 660 q 256 692 229 692 q 299 676 282 692 q 315 633 315 660 m 774 568 q 757 526 774 542 q 714 510 740 510 q 671 526 688 510 q 654 568 654 542 q 671 610 654 594 q 714 626 688 626 q 757 610 740 626 q 774 568 774 594 m 210 496 q 193 453 210 469 q 150 438 176 438 q 107 453 124 438 q 90 496 90 469 q 107 538 90 522 q 150 554 124 554 q 193 538 176 554 q 210 496 210 522 m 835 410 q 818 367 835 383 q 775 351 801 351 q 732 367 749 351 q 715 410 715 383 q 732 452 715 436 q 775 468 749 468 q 818 452 801 468 q 835 410 835 436 m 189 328 q 172 285 189 301 q 129 269 156 269 q 86 285 103 269 q 69 328 69 301 q 86 370 69 354 q 129 386 103 386 q 172 370 156 386 q 189 328 189 354 m 821 243 q 804 201 821 217 q 761 185 788 185 q 718 201 735 185 q 701 243 701 217 q 718 285 701 269 q 761 301 735 301 q 804 285 788 301 q 821 243 821 269 m 251 171 q 235 128 251 144 q 192 113 218 113 q 149 128 165 113 q 132 171 132 144 q 149 213 132 197 q 192 229 165 229 q 235 213 218 229 q 251 171 251 197 m 719 110 q 703 67 719 83 q 660 51 686 51 q 617 67 633 51 q 600 110 600 83 q 617 152 600 136 q 660 168 633 168 q 703 152 686 168 q 719 110 719 136 m 388 65 q 371 23 388 39 q 328 7 354 7 q 285 23 301 7 q 268 65 268 39 q 285 108 268 92 q 328 124 301 124 q 371 108 354 124 q 388 65 388 92 m 560 46 q 543 3 560 19 q 500 -12 526 -12 q 457 3 474 -12 q 440 46 440 19 q 457 88 440 72 q 500 104 474 104 q 543 88 526 104 q 560 46 560 72 z "},"!":{"ha":492,"x_min":72,"x_max":450,"o":"m 450 986 l 310 315 l 144 315 l 240 986 l 450 986 m 174 -10 q 100 17 128 -10 q 72 83 72 43 q 115 178 72 139 q 214 218 157 218 q 287 192 260 218 q 314 125 314 167 q 272 30 314 69 q 174 -10 231 -10 z "},"\"":{"ha":506,"x_min":142,"x_max":578,"o":"m 343 1108 l 274 814 l 142 814 l 175 1108 l 343 1108 m 578 1108 l 510 814 l 376 814 l 411 1108 l 578 1108 z "},"#":{"ha":1232,"x_min":7,"x_max":1235,"o":"m 989 624 l 906 410 l 1082 410 l 1051 236 l 838 236 l 746 0 l 561 0 l 653 236 l 400 236 l 308 0 l 124 0 l 215 236 l 7 236 l 38 410 l 283 410 l 367 624 l 160 624 l 190 797 l 435 797 l 525 1028 l 710 1028 l 619 797 l 872 797 l 963 1028 l 1147 1028 l 1057 797 l 1235 797 l 1204 624 l 989 624 m 804 624 l 551 624 l 468 410 l 721 410 l 804 624 z "},"$":{"ha":908,"x_min":46,"x_max":831,"o":"m 619 710 q 604 779 622 750 q 549 821 586 808 l 503 558 q 642 515 589 536 q 733 450 694 494 q 771 333 771 406 q 765 279 771 306 q 705 144 753 207 q 579 40 657 81 q 403 -8 501 -1 l 383 -121 l 293 -121 l 313 -7 q 118 63 190 3 q 46 224 46 122 q 50 271 46 246 l 258 271 q 275 190 254 222 q 340 149 296 158 l 388 415 q 249 459 301 438 q 158 524 196 481 q 119 642 119 568 q 125 697 119 671 q 247 894 146 818 q 489 982 347 971 l 508 1094 l 597 1094 l 578 982 q 764 910 697 971 q 831 744 831 850 q 829 710 831 722 l 619 710 m 329 707 q 328 686 328 700 q 351 626 328 650 q 418 585 375 601 l 461 826 q 374 789 408 819 q 329 707 339 758 m 563 271 q 564 292 564 278 q 540 350 564 326 q 474 390 517 374 l 431 149 q 519 191 485 158 q 563 271 554 224 z "},"%":{"ha":1063,"x_min":92,"x_max":999,"o":"m 114 764 q 204 927 132 868 q 374 986 276 986 q 509 941 458 986 q 560 815 560 896 q 554 764 560 800 q 465 600 536 660 q 296 540 393 540 q 160 586 211 540 q 110 714 110 632 q 114 764 110 738 m 999 972 l 282 0 l 92 0 l 808 972 l 999 972 m 353 869 q 256 764 275 869 q 253 728 253 751 q 315 657 253 657 q 377 683 351 657 q 413 764 403 710 q 415 799 415 776 q 353 869 415 869 m 539 210 q 629 372 557 314 q 799 431 701 431 q 933 386 882 431 q 983 261 983 342 q 978 210 983 246 q 888 45 960 104 q 719 -14 817 -14 q 585 31 635 -14 q 535 160 535 76 q 539 210 535 183 m 776 315 q 715 289 740 315 q 679 210 689 263 q 676 175 676 197 q 739 103 676 103 q 801 129 775 103 q 836 210 826 156 q 839 243 839 222 q 776 315 839 315 z "},"&":{"ha":1097,"x_min":22,"x_max":1025,"o":"m 897 335 q 819 232 857 276 l 1014 0 l 775 0 l 688 104 q 338 -17 532 -17 q 107 49 192 -17 q 22 232 22 115 q 97 434 22 344 q 297 575 172 524 q 253 707 253 640 q 294 853 253 789 q 410 952 336 917 q 579 988 485 988 q 756 933 693 988 q 818 794 818 878 q 814 756 818 776 l 625 756 q 626 772 626 761 q 606 821 626 803 q 551 839 586 839 q 475 809 506 839 q 444 736 444 779 q 460 677 444 708 q 507 604 475 646 l 711 361 l 719 374 l 822 506 l 1025 506 l 897 335 m 371 144 q 586 225 486 144 l 389 461 q 267 378 311 429 q 222 265 222 328 q 263 178 222 213 q 371 144 303 144 z "},"'":{"ha":271,"x_min":142,"x_max":343,"o":"m 343 1108 l 274 814 l 142 814 l 175 1108 l 343 1108 z "},"(":{"ha":674,"x_min":147,"x_max":807,"o":"m 317 -274 q 190 -40 233 -178 q 147 261 147 97 q 203 647 147 453 q 364 1006 258 840 q 611 1283 469 1172 l 807 1283 l 804 1265 q 558 993 664 1150 q 395 656 453 836 q 338 296 338 475 q 383 -3 338 139 q 515 -254 428 -144 l 513 -274 l 317 -274 z "},")":{"ha":674,"x_min":-71,"x_max":565,"o":"m -71 -274 l -67 -254 q 256 178 138 -75 q 375 694 375 432 q 326 1007 375 860 q 179 1265 278 1154 l 182 1283 l 379 1283 q 519 1040 472 1185 q 565 726 565 896 q 512 353 565 542 q 359 0 458 164 q 126 -274 260 -164 l -71 -274 z "},"*":{"ha":719,"x_min":147,"x_max":699,"o":"m 651 953 l 699 828 l 506 763 l 676 697 l 581 568 l 453 692 l 450 500 l 307 500 l 369 692 l 199 565 l 147 699 l 339 764 l 171 826 l 264 954 l 396 832 l 399 1025 l 544 1025 l 476 832 l 651 953 z "},"+":{"ha":936,"x_min":114,"x_max":854,"o":"m 822 406 l 561 406 l 514 140 l 329 140 l 376 406 l 114 406 l 146 582 l 407 582 l 454 849 l 639 849 l 592 582 l 854 582 l 822 406 z "},",":{"ha":354,"x_min":-79,"x_max":279,"o":"m 279 207 l 49 -186 l -79 -186 l 74 207 l 279 207 z "},"-":{"ha":810,"x_min":100,"x_max":719,"o":"m 719 578 l 690 414 l 100 414 l 129 578 l 719 578 z "},".":{"ha":361,"x_min":7,"x_max":249,"o":"m 108 -10 q 35 17 63 -10 q 7 83 7 43 q 49 178 7 139 q 149 218 92 218 q 222 192 194 218 q 249 125 249 167 q 207 30 249 69 q 108 -10 165 -10 z "},"/":{"ha":675,"x_min":-64,"x_max":778,"o":"m 778 1315 l 125 -251 l -64 -251 l 588 1315 l 778 1315 z "},":":{"ha":365,"x_min":7,"x_max":249,"o":"m 108 -10 q 35 17 63 -10 q 7 83 7 43 q 49 178 7 139 q 149 218 92 218 q 222 192 194 218 q 249 125 249 167 q 207 30 249 69 q 108 -10 165 -10 m 108 565 q 35 592 63 565 q 7 658 7 618 q 49 753 7 714 q 149 793 92 793 q 222 767 194 793 q 249 700 249 742 q 207 605 249 644 q 108 565 165 565 z "},";":{"ha":450,"x_min":-53,"x_max":394,"o":"m 254 560 q 181 586 208 560 q 153 653 153 613 q 195 748 153 708 q 294 788 238 788 q 367 762 340 788 q 394 694 394 736 q 353 599 394 639 q 254 560 311 560 m 306 207 l 75 -186 l -53 -186 l 100 207 l 306 207 z "},"<":{"ha":811,"x_min":125,"x_max":728,"o":"m 374 183 l 125 494 l 483 806 l 728 806 l 369 494 l 618 183 l 374 183 z "},"=":{"ha":1025,"x_min":106,"x_max":951,"o":"m 951 747 l 921 574 l 164 574 l 194 747 l 951 747 m 893 414 l 863 240 l 106 240 l 136 414 l 893 414 z "},">":{"ha":788,"x_min":85,"x_max":688,"o":"m 194 806 l 440 806 l 688 494 l 331 183 l 85 183 l 443 494 l 194 806 z "},"?":{"ha":747,"x_min":101,"x_max":747,"o":"m 474 1003 q 674 942 600 1003 q 747 769 747 881 q 742 708 747 736 q 617 501 718 572 q 372 429 517 429 l 347 322 l 178 322 l 213 558 l 275 558 q 467 590 397 558 q 553 710 538 622 q 556 739 556 729 q 526 813 556 786 q 443 840 496 840 q 338 806 381 840 q 285 710 296 771 l 101 710 q 165 861 115 794 q 294 965 215 928 q 474 1003 374 1003 m 203 -10 q 129 17 157 -10 q 101 83 101 43 q 144 178 101 139 q 243 218 186 218 q 316 192 289 218 q 343 125 343 167 q 301 30 343 69 q 203 -10 260 -10 z "},"@":{"ha":1456,"x_min":94,"x_max":1354,"o":"m 831 911 q 1110 851 992 911 q 1291 683 1228 792 q 1354 433 1354 575 q 1315 218 1354 319 q 1200 54 1275 117 q 1022 -8 1125 -8 q 906 22 950 -8 q 849 107 861 51 q 744 22 808 53 q 610 -10 681 -10 q 444 53 504 -10 q 385 226 385 117 q 428 421 385 331 q 547 566 471 511 q 719 621 624 621 q 883 538 839 621 l 896 610 l 1058 610 l 993 235 q 989 186 989 208 q 1003 136 989 153 q 1050 119 1017 119 q 1134 167 1100 119 q 1185 285 1168 214 q 1203 426 1203 356 q 1100 687 1203 594 q 810 779 997 779 q 521 702 650 779 q 319 492 392 625 q 246 197 246 360 q 348 -68 246 25 q 638 -161 450 -161 q 875 -112 772 -161 l 903 -240 q 610 -296 771 -296 q 338 -237 454 -296 q 158 -70 222 -178 q 94 182 94 38 q 190 553 94 386 q 453 815 285 719 q 831 911 621 911 m 671 135 q 763 164 721 135 q 828 242 804 193 q 853 346 853 290 q 822 440 853 404 q 732 476 790 476 q 642 445 681 476 q 581 364 603 414 q 560 258 560 314 q 588 168 560 201 q 671 135 615 135 z "},"A":{"ha":994,"x_min":-36,"x_max":888,"o":"m 651 185 l 264 185 l 168 0 l -36 0 l 485 971 l 711 971 l 888 0 l 682 0 l 651 185 m 626 336 l 557 747 l 343 336 l 626 336 z "},"B":{"ha":893,"x_min":24,"x_max":871,"o":"m 867 719 q 798 578 853 635 q 664 497 743 522 q 772 431 731 483 q 813 306 813 378 q 808 263 813 286 q 690 72 789 144 q 442 0 590 0 l 24 0 l 196 969 l 596 969 q 799 914 728 969 q 871 765 871 858 q 867 719 871 743 m 664 690 q 665 715 665 699 q 633 790 665 764 q 540 817 601 817 l 364 817 l 319 567 l 497 567 q 610 599 565 567 q 664 690 654 632 m 615 286 q 618 314 618 306 q 583 392 618 364 q 485 421 547 421 l 293 421 l 247 154 l 443 154 q 560 189 514 154 q 615 286 606 224 z "},"C":{"ha":1067,"x_min":56,"x_max":1043,"o":"m 64 486 q 173 742 89 629 q 380 919 257 856 q 642 982 503 982 q 913 899 804 982 q 1043 668 1021 815 l 819 668 q 743 769 797 735 q 610 803 689 803 q 452 764 525 803 q 330 653 379 725 q 264 486 281 581 q 257 413 257 442 q 322 235 257 300 q 497 169 386 169 q 643 204 576 169 q 756 306 710 239 l 979 306 q 767 74 904 157 q 468 -8 631 -8 q 252 41 346 -8 q 107 181 158 90 q 56 388 56 271 q 64 486 56 436 z "},"D":{"ha":996,"x_min":24,"x_max":969,"o":"m 535 969 q 767 923 669 969 q 917 790 865 876 q 969 586 969 704 q 960 483 969 533 q 852 228 935 338 q 643 60 769 119 q 363 0 517 0 l 24 0 l 196 969 l 535 969 m 385 158 q 635 244 538 158 q 761 483 733 331 q 768 563 768 529 q 699 743 768 679 q 499 807 631 807 l 363 807 l 249 158 l 385 158 z "},"E":{"ha":739,"x_min":24,"x_max":758,"o":"m 364 818 l 319 567 l 646 567 l 619 417 l 293 417 l 247 154 l 615 154 l 588 0 l 24 0 l 196 971 l 758 971 l 732 818 l 364 818 z "},"F":{"ha":736,"x_min":24,"x_max":794,"o":"m 794 969 l 767 817 l 364 817 l 319 563 l 628 563 l 601 413 l 292 413 l 219 0 l 24 0 l 196 969 l 794 969 z "},"G":{"ha":1067,"x_min":56,"x_max":1043,"o":"m 64 486 q 174 742 89 629 q 382 919 258 856 q 644 982 506 982 q 915 902 808 982 q 1043 678 1021 822 l 819 678 q 744 771 797 739 q 614 803 692 803 q 454 764 528 803 q 331 653 381 725 q 264 486 281 581 q 257 410 257 453 q 324 231 257 296 q 510 167 392 167 q 702 226 619 167 q 825 392 785 286 l 492 392 l 517 539 l 1042 539 l 1011 369 q 894 182 974 268 q 706 44 815 96 q 471 -8 596 -8 q 253 42 347 -8 q 108 181 160 92 q 56 389 56 271 q 64 486 56 436 z "},"H":{"ha":996,"x_min":24,"x_max":1000,"o":"m 1000 969 l 829 0 l 633 0 l 707 415 l 293 415 l 219 0 l 24 0 l 196 969 l 390 969 l 319 568 l 735 568 l 806 969 l 1000 969 z "},"I":{"ha":386,"x_min":24,"x_max":390,"o":"m 390 969 l 219 0 l 24 0 l 196 969 l 390 969 z "},"J":{"ha":792,"x_min":24,"x_max":761,"o":"m 761 969 l 642 289 q 521 69 617 147 q 288 -10 425 -10 q 94 52 165 -10 q 24 226 24 114 q 31 296 24 257 l 226 296 q 224 258 224 282 q 315 164 224 164 q 401 197 368 164 q 446 289 435 231 l 565 969 l 761 969 z "},"K":{"ha":921,"x_min":24,"x_max":978,"o":"m 493 489 l 818 0 l 571 0 l 296 432 l 219 0 l 24 0 l 196 969 l 390 969 l 314 535 l 743 969 l 978 969 l 493 489 z "},"L":{"ha":638,"x_min":24,"x_max":565,"o":"m 246 149 l 565 149 l 539 0 l 24 0 l 196 969 l 390 969 l 246 149 z "},"M":{"ha":1249,"x_min":24,"x_max":1253,"o":"m 1253 969 l 1082 0 l 886 0 l 997 628 l 628 0 l 479 0 l 331 629 l 219 0 l 24 0 l 196 969 l 417 969 l 599 250 l 1032 969 l 1253 969 z "},"N":{"ha":1021,"x_min":24,"x_max":1025,"o":"m 854 0 l 658 0 l 338 665 l 219 0 l 24 0 l 196 971 l 390 971 l 713 304 l 831 971 l 1025 971 l 854 0 z "},"O":{"ha":1090,"x_min":65,"x_max":1054,"o":"m 478 -10 q 262 42 356 -10 q 117 187 168 94 q 65 399 65 279 q 140 699 65 565 q 345 908 214 832 q 640 983 476 983 q 858 932 764 983 q 1003 788 951 881 q 1054 578 1054 696 q 981 275 1054 408 q 775 66 907 142 q 478 -10 643 -10 m 506 169 q 690 222 610 169 q 813 365 769 275 q 857 560 857 454 q 793 739 857 674 q 614 804 729 804 q 431 751 511 804 q 308 610 351 699 q 264 415 264 521 q 327 235 264 301 q 506 169 390 169 z "},"P":{"ha":844,"x_min":24,"x_max":854,"o":"m 849 669 q 786 524 835 592 q 652 414 738 456 q 447 372 567 372 l 285 372 l 219 0 l 24 0 l 196 969 l 553 969 q 778 903 701 969 q 854 728 854 838 q 849 669 854 696 m 467 525 q 592 564 546 525 q 650 669 638 603 q 653 706 653 682 q 517 815 653 815 l 364 815 l 313 525 l 467 525 z "},"Q":{"ha":1093,"x_min":65,"x_max":1054,"o":"m 1054 578 q 983 279 1054 411 q 785 72 911 147 l 958 -171 l 717 -171 l 603 3 q 478 -10 544 -10 q 262 42 356 -10 q 117 187 168 94 q 65 399 65 279 q 140 699 65 565 q 345 908 214 832 q 640 983 476 983 q 858 932 764 983 q 1003 788 951 881 q 1054 578 1054 696 m 264 415 q 327 235 264 301 q 506 169 390 169 q 690 222 610 169 q 813 365 769 275 q 857 560 857 454 q 793 739 857 674 q 614 804 729 804 q 431 751 511 804 q 308 610 351 699 q 264 415 264 521 z "},"R":{"ha":890,"x_min":24,"x_max":861,"o":"m 560 969 q 785 902 708 969 q 861 726 861 835 q 857 672 861 700 q 772 501 840 578 q 588 393 703 424 l 750 0 l 524 0 l 379 378 l 286 378 l 219 0 l 24 0 l 196 969 l 560 969 m 657 668 q 660 701 660 693 q 626 783 660 754 q 525 813 593 813 l 363 813 l 311 522 l 474 522 q 598 561 551 522 q 657 668 644 600 z "},"S":{"ha":847,"x_min":58,"x_max":806,"o":"m 392 -10 q 152 56 246 -10 q 58 242 58 122 q 61 279 58 254 l 260 279 q 291 183 254 221 q 399 146 328 146 q 510 176 469 146 q 551 261 551 206 q 509 343 551 313 q 376 411 467 374 q 241 475 293 446 q 152 556 189 504 q 115 688 115 608 q 162 844 115 778 q 290 947 208 911 q 475 983 371 983 q 653 949 578 983 q 767 853 729 915 q 800 707 806 790 l 593 707 l 594 722 q 560 797 594 768 q 465 826 526 826 q 360 796 400 826 q 319 713 319 765 q 342 652 319 678 q 399 608 365 626 q 494 560 432 589 q 629 492 576 524 q 719 407 682 460 q 757 278 757 354 q 712 129 757 194 q 584 27 667 64 q 392 -10 501 -10 z "},"T":{"ha":801,"x_min":117,"x_max":856,"o":"m 856 969 l 828 817 l 571 817 l 426 0 l 231 0 l 375 817 l 117 817 l 144 969 l 856 969 z "},"U":{"ha":968,"x_min":79,"x_max":976,"o":"m 388 969 l 282 371 q 276 317 276 332 q 319 206 276 244 q 442 168 363 168 q 597 220 536 168 q 675 371 657 272 l 781 969 l 976 969 l 871 371 q 781 160 849 246 q 616 33 713 75 q 408 -10 519 -10 q 170 67 261 -10 q 79 286 79 143 q 88 371 79 325 l 193 969 l 388 969 z "},"V":{"ha":988,"x_min":119,"x_max":1067,"o":"m 328 969 l 457 199 l 860 969 l 1067 969 l 540 0 l 304 0 l 119 969 l 328 969 z "},"W":{"ha":1422,"x_min":131,"x_max":1492,"o":"m 1492 969 l 1049 0 l 819 0 l 760 690 l 449 0 l 221 -1 l 131 969 l 339 969 l 378 217 l 707 969 l 924 969 l 976 221 l 1282 969 l 1492 969 z "},"X":{"ha":953,"x_min":-15,"x_max":994,"o":"m 603 482 l 828 0 l 604 0 l 453 325 l 204 0 l -15 0 l 376 488 l 153 969 l 376 969 l 528 644 l 774 969 l 994 969 l 603 482 z "},"Y":{"ha":883,"x_min":115,"x_max":967,"o":"m 967 969 l 528 338 l 468 0 l 272 0 l 333 338 l 115 969 l 335 969 l 464 529 l 747 969 l 967 969 z "},"Z":{"ha":800,"x_min":-3,"x_max":831,"o":"m 253 164 l 688 164 l 658 0 l -3 0 l 25 150 l 572 806 l 140 806 l 169 969 l 831 969 l 803 819 l 253 164 z "},"[":{"ha":690,"x_min":69,"x_max":693,"o":"m 693 1294 l 665 1135 l 500 1135 l 281 -103 l 446 -103 l 418 -262 l 69 -262 l 344 1294 l 693 1294 z "},"\\":{"ha":760,"x_min":269,"x_max":536,"o":"m 346 -251 l 269 1315 l 458 1315 l 536 -251 l 346 -251 z "},"]":{"ha":689,"x_min":38,"x_max":660,"o":"m 386 -274 l 38 -274 l 65 -112 l 231 -112 l 450 1125 l 285 1125 l 311 1283 l 660 1283 l 386 -274 z "},"^":{"ha":944,"x_min":17,"x_max":868,"o":"m 215 232 l 17 232 l 479 972 l 667 972 l 868 232 l 668 232 l 533 742 l 215 232 z "},"_":{"ha":1097,"x_min":36,"x_max":882,"o":"m 882 -56 l 850 -240 l 36 -240 l 68 -56 l 882 -56 z "},"`":{"ha":376,"x_min":114,"x_max":432,"o":"m 432 963 l 407 824 l 114 969 l 142 1128 l 432 963 z "},"a":{"ha":942,"x_min":35,"x_max":911,"o":"m 43 388 q 126 594 64 504 q 276 733 188 685 q 464 782 365 782 q 609 747 550 782 q 696 660 668 713 l 715 769 l 911 769 l 775 0 l 579 0 l 600 113 q 481 23 554 58 q 322 -12 408 -12 q 172 26 238 -12 q 71 134 107 64 q 35 297 35 204 q 43 388 35 340 m 647 385 q 653 438 653 421 q 605 565 653 519 q 485 611 557 611 q 380 585 431 611 q 292 508 329 558 q 242 388 254 457 q 238 338 238 361 q 285 206 238 254 q 404 158 332 158 q 510 185 458 158 q 598 264 561 213 q 647 385 635 315 z "},"b":{"ha":942,"x_min":24,"x_max":901,"o":"m 336 657 q 454 747 382 713 q 611 782 526 782 q 763 745 697 782 q 865 639 829 708 q 901 476 901 569 q 893 388 901 433 q 810 178 872 269 q 658 38 747 88 q 472 -12 569 -12 q 326 22 386 -12 q 239 110 267 56 l 219 0 l 24 0 l 206 1028 l 401 1028 l 336 657 m 694 388 q 699 438 699 415 q 651 565 699 519 q 531 611 604 611 q 426 584 478 611 q 338 506 375 557 q 288 385 300 454 q 282 332 282 349 q 330 204 282 250 q 450 158 378 158 q 556 186 504 158 q 644 265 607 214 q 694 388 682 317 z "},"c":{"ha":836,"x_min":35,"x_max":808,"o":"m 43 385 q 128 594 64 504 q 287 733 192 683 q 493 782 382 782 q 717 711 636 782 q 808 510 799 640 l 599 510 q 556 588 590 560 q 463 617 521 617 q 320 556 379 617 q 242 385 261 496 q 235 318 235 346 q 274 197 235 239 q 382 154 313 154 q 554 260 499 154 l 764 260 q 602 61 710 135 q 354 -12 494 -12 q 122 70 208 -12 q 35 294 35 153 q 43 385 35 338 z "},"d":{"ha":942,"x_min":35,"x_max":957,"o":"m 43 388 q 126 594 64 504 q 277 733 188 685 q 465 782 367 782 q 603 749 540 782 q 696 663 665 717 l 761 1028 l 957 1028 l 775 0 l 579 0 l 600 114 q 483 22 554 57 q 325 -12 411 -12 q 174 26 240 -12 q 72 134 108 64 q 35 297 35 204 q 43 388 35 340 m 647 385 q 653 438 653 421 q 605 565 653 519 q 485 611 557 611 q 380 585 431 611 q 292 508 329 558 q 242 388 254 457 q 238 338 238 361 q 285 206 238 254 q 404 158 332 158 q 510 185 458 158 q 598 264 561 213 q 647 385 635 315 z "},"e":{"ha":857,"x_min":35,"x_max":818,"o":"m 499 782 q 732 701 646 782 q 818 482 818 619 q 811 403 818 438 q 793 331 803 361 l 231 331 q 229 303 229 321 q 272 190 229 231 q 383 149 314 149 q 484 174 442 149 q 553 242 526 200 l 763 242 q 603 59 711 131 q 360 -12 496 -12 q 124 71 213 -12 q 35 297 35 154 q 43 385 35 339 q 128 594 64 504 q 289 733 193 685 q 499 782 385 782 m 618 449 q 621 481 621 471 q 578 585 621 547 q 465 622 535 622 q 333 576 392 622 q 251 449 275 529 l 618 449 z "},"f":{"ha":479,"x_min":46,"x_max":558,"o":"m 189 808 q 306 1017 214 950 q 558 1079 397 1083 l 531 915 q 428 892 461 917 q 383 801 394 867 l 378 769 l 513 769 l 485 610 l 350 610 l 242 0 l 46 0 l 154 610 l 65 610 l 93 769 l 182 769 l 189 808 z "},"g":{"ha":942,"x_min":-17,"x_max":911,"o":"m 464 782 q 610 748 550 782 q 696 660 671 714 l 715 769 l 911 769 l 775 -6 q 697 -197 756 -112 q 544 -330 639 -281 q 328 -379 450 -379 q 74 -303 165 -379 q -8 -94 -17 -226 l 185 -94 q 235 -178 190 -147 q 353 -210 281 -210 q 499 -159 439 -210 q 579 -6 560 -108 l 600 114 q 481 24 553 60 q 325 -12 410 -12 q 174 26 240 -12 q 72 134 108 64 q 35 297 35 204 q 43 388 35 340 q 126 594 64 504 q 276 733 188 685 q 464 782 365 782 m 647 385 q 653 438 653 421 q 605 565 653 519 q 485 611 557 611 q 380 585 431 611 q 292 508 329 558 q 242 388 254 457 q 238 338 238 361 q 285 206 238 254 q 404 158 332 158 q 510 185 458 158 q 598 264 561 213 q 647 385 635 315 z "},"h":{"ha":918,"x_min":24,"x_max":844,"o":"m 596 781 q 777 715 710 781 q 844 532 844 650 q 838 451 844 488 l 757 0 l 564 0 l 639 425 q 643 474 643 450 q 606 579 643 543 q 501 615 569 615 q 369 569 424 615 q 297 436 315 522 l 219 0 l 24 0 l 206 1028 l 401 1028 l 339 675 q 453 752 386 724 q 596 781 521 781 z "},"i":{"ha":386,"x_min":24,"x_max":415,"o":"m 275 861 q 201 888 229 861 q 174 954 174 914 q 216 1049 174 1010 q 315 1089 258 1089 q 388 1063 360 1089 q 415 996 415 1036 q 374 901 415 940 q 275 861 332 861 m 356 769 l 219 0 l 24 0 l 160 769 l 356 769 z "},"j":{"ha":386,"x_min":-176,"x_max":415,"o":"m 275 861 q 201 887 229 861 q 174 954 174 913 q 215 1049 174 1010 q 315 1089 257 1089 q 388 1063 360 1089 q 415 996 415 1036 q 374 901 415 940 q 275 861 332 861 m 197 -126 q 101 -310 175 -254 q -90 -367 28 -367 l -176 -367 l -147 -201 l -92 -201 q -26 -184 -47 -201 q 1 -128 -6 -167 l 160 769 l 356 769 l 197 -126 z "},"k":{"ha":811,"x_min":24,"x_max":867,"o":"m 460 385 l 732 0 l 481 0 l 278 326 l 219 0 l 24 0 l 206 1028 l 401 1028 l 299 444 l 613 769 l 867 769 l 460 385 z "},"l":{"ha":386,"x_min":24,"x_max":401,"o":"m 401 1028 l 219 0 l 24 0 l 206 1028 l 401 1028 z "},"m":{"ha":1456,"x_min":24,"x_max":1382,"o":"m 1118 781 q 1311 715 1240 781 q 1382 531 1382 650 q 1375 451 1382 486 l 1294 0 l 1101 0 l 1176 425 q 1181 474 1181 450 q 1144 576 1181 540 q 1039 611 1107 611 q 903 563 958 611 q 833 425 847 515 l 833 426 l 757 0 l 564 0 l 639 425 q 643 472 643 450 q 606 576 643 540 q 500 611 568 611 q 369 566 424 611 q 297 438 314 521 l 219 0 l 24 0 l 160 769 l 356 769 l 339 678 q 449 753 385 725 q 583 781 513 781 q 738 742 674 781 q 828 633 801 704 q 955 740 876 700 q 1118 781 1033 781 z "},"n":{"ha":918,"x_min":24,"x_max":844,"o":"m 588 781 q 776 716 707 781 q 844 532 844 651 q 838 451 844 488 l 757 0 l 564 0 l 639 425 q 643 474 643 450 q 606 579 643 543 q 501 615 569 615 q 369 569 424 615 q 296 435 314 522 l 219 0 l 24 0 l 160 769 l 356 769 l 339 675 q 451 752 386 724 q 588 781 517 781 z "},"o":{"ha":886,"x_min":35,"x_max":843,"o":"m 368 -12 q 194 28 269 -12 q 76 142 118 68 q 35 311 35 215 q 97 549 35 442 q 266 719 158 657 q 506 782 374 782 q 681 741 604 782 q 801 626 758 700 q 843 457 843 553 q 781 218 843 325 q 609 49 718 111 q 368 -12 500 -12 m 394 154 q 521 194 464 154 q 610 301 578 235 q 642 442 642 368 q 595 570 642 525 q 478 615 549 615 q 352 575 407 615 q 267 467 297 535 q 236 325 236 400 q 280 199 236 243 q 394 154 324 154 z "},"p":{"ha":942,"x_min":-40,"x_max":901,"o":"m 336 658 q 455 747 383 711 q 611 782 526 782 q 763 745 697 782 q 865 639 829 708 q 901 476 901 569 q 893 388 901 433 q 810 178 872 269 q 658 38 747 88 q 472 -12 569 -12 q 328 22 388 -12 q 239 110 269 57 l 156 -367 l -40 -367 l 160 769 l 356 769 l 336 658 m 694 388 q 699 438 699 415 q 651 565 699 519 q 531 611 604 611 q 426 584 478 611 q 338 506 375 557 q 288 385 300 454 q 282 332 282 349 q 330 204 282 250 q 450 158 378 158 q 556 186 504 158 q 644 265 607 214 q 694 388 682 317 z "},"q":{"ha":942,"x_min":33,"x_max":911,"o":"m 42 386 q 126 591 63 501 q 281 731 190 681 q 471 781 372 781 q 611 749 553 781 q 697 669 669 718 l 715 769 l 911 769 l 711 -367 l 515 -367 l 597 106 q 480 22 550 56 q 326 -11 410 -11 q 175 28 242 -11 q 71 138 108 67 q 33 301 33 208 q 42 386 33 343 m 647 385 q 651 436 651 413 q 603 565 651 519 q 485 611 556 611 q 382 585 433 611 q 292 508 331 558 q 242 386 254 457 q 238 335 238 360 q 286 206 238 253 q 404 158 335 158 q 508 185 457 158 q 597 263 558 211 q 647 385 635 314 z "},"r":{"ha":561,"x_min":24,"x_max":593,"o":"m 332 633 q 449 742 382 703 q 593 781 515 781 l 557 576 l 506 576 q 367 539 419 576 q 292 411 315 501 l 219 0 l 24 0 l 160 769 l 356 769 l 332 633 z "},"s":{"ha":757,"x_min":24,"x_max":693,"o":"m 325 -12 q 172 16 240 -12 q 63 95 103 44 q 24 211 24 146 q 26 243 24 221 l 215 243 q 244 165 211 194 q 339 135 278 135 q 431 155 394 135 q 468 214 468 175 q 434 269 468 249 q 326 317 400 290 q 204 368 253 343 q 121 438 156 393 q 86 550 86 482 q 126 671 86 618 q 236 753 165 724 q 399 782 307 782 q 553 753 486 782 q 656 672 619 724 q 693 553 693 619 q 692 528 693 536 l 511 528 q 483 606 515 576 q 390 635 451 635 q 308 613 340 635 q 276 556 276 592 q 313 497 276 519 q 424 446 349 474 q 544 392 499 417 q 622 326 589 368 q 656 219 656 283 q 613 96 656 149 q 494 15 569 43 q 325 -12 419 -12 z "},"t":{"ha":539,"x_min":71,"x_max":558,"o":"m 293 238 q 292 215 292 229 q 308 176 292 188 q 361 164 324 164 l 453 164 l 424 0 l 300 0 q 92 174 92 0 q 97 239 92 207 l 163 610 l 71 610 l 99 769 l 192 769 l 225 960 l 421 960 l 388 769 l 558 769 l 531 610 l 358 610 l 293 238 z "},"u":{"ha":918,"x_min":67,"x_max":886,"o":"m 886 769 l 750 0 l 556 0 l 572 97 q 463 19 528 47 q 325 -10 397 -10 q 136 55 206 -10 q 67 239 67 119 q 74 318 67 283 l 153 769 l 347 769 l 272 346 q 268 297 268 321 q 306 192 268 229 q 411 156 343 156 q 546 205 490 156 q 617 346 601 254 l 692 769 l 886 769 z "},"v":{"ha":832,"x_min":78,"x_max":885,"o":"m 376 179 l 675 769 l 885 769 l 464 0 l 225 0 l 78 769 l 286 769 l 376 179 z "},"w":{"ha":1172,"x_min":75,"x_max":1228,"o":"m 1228 769 l 867 0 l 656 0 l 611 535 l 375 0 l 164 0 l 75 769 l 271 769 l 304 183 l 556 769 l 761 769 l 803 185 l 1040 769 l 1228 769 z "},"x":{"ha":750,"x_min":-58,"x_max":801,"o":"m 481 386 l 668 0 l 449 0 l 333 238 l 150 0 l -58 0 l 261 386 l 75 769 l 294 769 l 410 532 l 593 769 l 801 769 l 481 386 z "},"y":{"ha":840,"x_min":14,"x_max":897,"o":"m 289 769 l 392 232 l 690 769 l 897 769 l 221 -364 l 14 -364 l 247 19 l 71 769 l 289 769 z "},"z":{"ha":671,"x_min":-18,"x_max":676,"o":"m 232 160 l 574 160 l 544 0 l -18 0 l 10 157 l 425 610 l 90 610 l 118 769 l 676 769 l 650 613 l 232 160 z "},"{":{"ha":706,"x_min":161,"x_max":751,"o":"m 188 581 q 343 699 324 593 q 361 871 354 758 q 381 1057 369 992 q 474 1226 399 1165 q 656 1286 549 1286 l 751 1286 l 724 1122 l 665 1122 q 597 1102 622 1122 q 564 1040 572 1082 q 549 892 556 996 q 525 692 538 761 q 469 569 513 618 q 349 507 425 521 l 347 504 q 464 375 464 481 q 452 290 464 343 q 413 121 440 236 q 374 -58 374 -26 q 449 -111 374 -111 l 506 -111 l 476 -276 l 381 -276 q 234 -230 288 -276 q 181 -99 181 -183 q 238 163 181 -33 q 265 269 253 218 q 278 340 278 319 q 161 429 278 421 l 188 581 z "},"|":{"ha":429,"x_min":15,"x_max":439,"o":"m 211 -168 l 15 -168 l 244 1122 l 439 1122 l 211 -168 z "},"}":{"ha":706,"x_min":-4,"x_max":588,"o":"m 561 429 q 453 393 493 424 q 406 311 414 363 q 389 144 397 264 q 383 63 388 126 q 368 -47 378 0 q 274 -216 350 -156 q 92 -276 199 -276 l -4 -276 l 25 -111 l 83 -111 q 152 -92 128 -111 q 183 -29 176 -72 q 200 125 193 26 q 222 318 211 250 q 279 440 235 392 q 400 504 324 489 l 401 507 q 283 647 283 531 q 288 692 283 669 q 312 799 296 736 q 333 883 328 863 q 372 1040 365 997 q 375 1064 375 1057 q 300 1122 375 1122 l 243 1122 l 271 1286 l 367 1286 q 514 1239 460 1286 q 568 1107 568 1192 q 564 1057 568 1085 q 517 867 551 990 q 474 699 483 754 q 471 675 471 682 q 500 610 471 635 q 588 581 529 586 l 561 429 z "},"~":{"ha":822,"x_min":28,"x_max":807,"o":"m 28 311 q 321 574 119 574 q 393 560 363 574 q 461 522 424 547 q 510 493 489 503 q 557 483 532 483 q 622 506 593 483 q 664 572 650 528 l 807 572 q 685 374 761 439 q 513 310 610 310 q 440 323 471 310 q 374 361 410 336 q 322 391 342 382 q 278 400 303 400 q 213 377 242 400 q 169 311 185 354 l 28 311 z "}," ":{"ha":372,"x_min":0,"x_max":0,"o":""},"¡":{"ha":533,"x_min":57,"x_max":435,"o":"m 333 790 q 407 764 379 790 q 435 697 435 738 q 392 602 435 642 q 293 563 350 563 q 220 588 247 563 q 193 656 193 614 q 235 751 193 711 q 333 790 276 790 m 57 -206 l 197 465 l 363 465 l 267 -206 l 57 -206 z "},"¢":{"ha":921,"x_min":61,"x_max":801,"o":"m 476 563 q 331 508 390 563 q 253 358 271 454 q 249 308 249 332 q 290 194 249 235 q 404 154 331 154 q 510 180 467 154 q 575 253 554 206 l 756 253 q 635 78 726 147 q 419 -3 543 8 l 399 -121 l 310 -121 l 331 -3 q 131 85 200 8 q 61 281 61 161 q 68 358 61 314 q 197 607 94 508 q 457 719 299 706 l 478 838 l 567 838 l 546 719 q 733 639 665 708 q 793 464 801 569 l 614 464 q 573 537 607 511 q 476 563 539 563 z "},"£":{"ha":908,"x_min":38,"x_max":846,"o":"m 664 714 q 667 749 667 739 q 550 857 667 857 q 439 818 485 857 q 379 699 393 779 q 375 642 375 669 q 383 543 375 607 l 644 543 l 621 410 l 394 410 l 390 376 q 347 257 381 315 q 258 151 314 199 l 750 151 l 722 -4 l 49 -4 l 38 96 q 150 220 110 157 q 206 378 190 283 l 210 410 l 57 410 l 81 543 l 194 543 q 189 624 189 593 q 197 714 189 664 q 326 937 222 856 q 575 1018 429 1018 q 778 951 711 1018 q 846 774 846 885 q 842 714 846 746 l 664 714 z "},"¤":{"ha":779,"x_min":65,"x_max":758,"o":"m 665 672 q 689 574 689 629 q 685 524 689 549 q 614 378 671 442 l 678 300 l 585 219 l 513 306 q 365 275 443 275 q 232 304 286 275 l 132 219 l 65 300 l 157 379 q 136 474 136 421 q 140 524 136 499 q 213 671 157 611 l 144 751 l 240 832 l 314 743 q 456 772 376 772 q 589 743 535 772 l 693 832 l 758 751 l 665 672 m 293 524 q 290 489 290 511 q 317 414 290 440 q 386 388 343 388 q 478 423 436 388 q 532 524 521 458 q 535 558 535 536 q 507 635 535 608 q 436 661 479 661 q 345 626 386 661 q 293 524 304 590 z "},"¥":{"ha":883,"x_min":29,"x_max":967,"o":"m 688 568 l 846 568 l 822 433 l 593 431 l 528 338 l 525 325 l 803 325 l 779 190 l 501 190 l 468 0 l 272 0 l 307 190 l 29 190 l 51 325 l 331 325 l 333 338 l 301 432 l 72 433 l 96 568 l 254 568 l 115 969 l 335 969 l 461 515 l 747 969 l 967 969 l 688 568 z "},"¦":{"ha":486,"x_min":44,"x_max":468,"o":"m 272 1122 l 468 1122 l 369 568 l 175 568 l 272 1122 m 240 -168 l 44 -168 l 143 386 l 338 386 l 240 -168 z "},"§":{"ha":808,"x_min":18,"x_max":768,"o":"m 572 736 l 574 756 q 551 822 574 799 q 482 844 528 844 q 389 817 424 844 q 354 738 354 789 q 394 672 354 701 q 544 599 435 643 q 699 503 647 554 q 751 379 751 451 q 747 339 751 360 q 550 124 721 192 q 632 -28 632 60 q 629 -64 632 -51 q 570 -185 617 -131 q 449 -271 524 -239 q 279 -303 374 -303 q 88 -249 158 -303 q 18 -100 18 -194 q 21 -58 18 -72 l 215 -58 q 214 -81 214 -67 q 237 -144 214 -122 q 304 -167 260 -167 q 390 -144 357 -167 q 431 -78 422 -121 q 432 -60 432 -72 q 392 6 432 -24 q 243 79 351 35 q 87 175 139 124 q 35 299 35 226 q 39 339 35 318 q 101 467 51 411 q 236 554 150 524 q 154 706 154 618 q 157 742 154 729 q 216 863 169 808 q 338 949 263 917 q 507 981 413 981 q 698 926 628 981 q 768 778 768 872 q 765 736 768 750 l 572 736 m 415 467 q 325 446 365 467 q 263 391 285 425 q 240 318 240 357 q 276 242 240 272 q 372 211 311 211 q 497 256 449 211 q 546 361 546 300 q 511 437 546 407 q 415 467 476 467 z "},"¨":{"ha":469,"x_min":108,"x_max":553,"o":"m 188 861 q 131 883 153 861 q 108 936 108 904 q 142 1013 108 981 q 219 1046 175 1046 q 275 1024 254 1046 q 296 969 296 1003 q 263 893 296 925 q 188 861 231 861 m 444 861 q 388 883 410 861 q 365 936 365 904 q 399 1013 365 981 q 476 1046 432 1046 q 532 1024 511 1046 q 553 969 553 1003 q 520 893 553 925 q 444 861 488 861 z "},"©":{"ha":1090,"x_min":64,"x_max":1056,"o":"m 647 983 q 863 934 771 983 q 1006 796 956 885 q 1056 590 1056 707 q 1046 486 1056 536 q 940 228 1021 342 q 737 52 858 115 q 472 -11 615 -11 q 255 38 347 -11 q 113 176 163 88 q 64 382 64 265 q 74 486 64 436 q 180 744 99 631 q 383 920 261 857 q 647 983 504 983 m 636 914 q 408 861 511 914 q 239 712 306 808 q 150 486 172 615 q 140 388 140 425 q 231 147 140 235 q 485 58 322 58 q 712 112 610 58 q 881 262 814 165 q 971 486 949 358 q 979 583 979 539 q 889 826 979 738 q 636 914 799 914 m 614 803 q 451 764 528 803 q 322 653 375 725 q 253 488 269 582 q 247 421 247 456 q 317 238 247 306 q 503 171 388 171 q 698 230 610 171 q 828 386 786 289 l 656 386 q 603 326 635 347 q 524 306 571 306 q 441 338 471 306 q 411 433 411 371 q 417 488 411 449 q 478 622 432 575 q 588 668 524 668 q 659 647 632 668 q 692 588 686 626 l 863 588 q 790 745 857 688 q 614 803 724 803 z "},"ª":{"ha":642,"x_min":93,"x_max":692,"o":"m 99 736 q 152 867 111 810 q 251 955 193 924 q 374 986 310 986 q 472 963 433 986 q 529 897 511 939 l 543 978 l 692 978 l 607 490 l 458 490 l 471 572 q 394 507 440 531 q 286 483 347 483 q 147 538 201 483 q 93 681 93 592 q 99 736 93 710 m 500 735 q 503 765 503 757 q 474 842 503 814 q 400 869 444 869 q 295 824 340 869 q 250 703 250 779 q 279 627 250 654 q 353 600 308 600 q 447 636 404 600 q 500 735 489 672 z "},"«":{"ha":724,"x_min":63,"x_max":701,"o":"m 143 167 l 63 410 l 229 653 l 413 653 l 242 410 l 326 167 l 143 167 m 431 167 l 351 410 l 517 653 l 701 653 l 531 410 l 615 167 l 431 167 z "},"¬":{"ha":1054,"x_min":60,"x_max":1013,"o":"m 1013 608 l 953 271 l 757 271 l 790 458 l 60 458 l 86 608 l 1013 608 z "},"­":{"ha":810,"x_min":100,"x_max":719,"o":"m 719 578 l 690 414 l 100 414 l 129 578 l 719 578 z "},"®":{"ha":717,"x_min":111,"x_max":713,"o":"m 465 985 q 645 920 578 985 q 713 749 713 856 q 707 689 713 717 q 642 538 692 604 q 519 433 593 471 q 361 394 446 394 q 179 460 247 394 q 111 631 111 525 q 117 689 111 661 q 181 842 131 775 q 305 947 231 910 q 465 985 379 985 m 632 689 q 636 739 636 717 q 588 867 636 819 q 453 914 539 914 q 282 852 353 914 q 193 689 211 790 q 189 639 189 663 q 238 512 189 558 q 372 465 286 465 q 543 527 472 465 q 632 689 614 589 m 463 842 q 530 820 506 842 q 554 763 554 799 q 535 699 554 726 q 483 658 515 672 l 533 544 l 424 544 l 383 649 l 376 649 l 358 544 l 264 544 l 317 842 l 463 842 m 389 721 l 429 721 q 447 726 439 721 q 456 740 454 731 l 456 743 q 436 758 456 758 l 394 758 l 389 721 z "},"¯":{"ha":558,"x_min":97,"x_max":653,"o":"m 653 1017 l 628 878 l 97 878 l 122 1017 l 653 1017 z "},"°":{"ha":617,"x_min":92,"x_max":642,"o":"m 96 732 q 203 912 115 844 q 411 979 290 979 q 579 926 517 979 q 642 781 642 872 q 638 732 642 757 q 530 551 618 619 q 322 482 442 482 q 153 535 215 482 q 92 681 92 589 q 96 732 92 706 m 485 731 q 488 767 488 743 q 460 845 488 818 q 390 872 432 872 q 300 835 342 872 q 247 731 258 799 q 244 694 244 718 q 272 618 244 644 q 340 592 299 592 q 431 628 389 592 q 485 731 474 664 z "},"±":{"ha":939,"x_min":74,"x_max":872,"o":"m 581 504 l 551 338 l 813 338 l 781 163 l 74 163 l 104 338 l 365 338 l 394 504 l 133 504 l 164 679 l 425 679 l 458 865 l 644 865 l 613 679 l 872 679 l 840 504 l 581 504 z "},"²":{"ha":500,"x_min":61,"x_max":526,"o":"m 525 833 q 475 745 515 783 q 347 661 435 707 l 243 607 l 482 607 l 461 489 l 61 489 l 82 600 l 260 707 q 340 771 313 740 q 367 836 367 801 q 356 868 367 857 q 326 879 344 879 q 267 828 282 879 l 117 828 q 197 944 133 900 q 357 989 261 989 q 483 951 440 989 q 526 856 526 913 q 525 833 526 840 z "},"³":{"ha":496,"x_min":64,"x_max":528,"o":"m 107 835 q 186 946 122 903 q 349 989 250 989 q 478 953 429 989 q 528 863 528 918 q 497 781 528 813 q 418 738 467 749 l 417 733 q 494 640 494 708 q 464 560 494 596 q 379 503 433 524 q 257 482 325 482 q 113 519 163 482 q 64 622 64 556 q 65 643 64 636 l 217 643 q 269 590 215 590 q 315 605 296 590 q 338 644 333 619 q 339 657 339 649 q 324 688 339 676 q 282 699 308 699 l 233 699 l 247 778 l 289 778 q 344 794 324 778 q 365 842 365 810 q 353 870 365 860 q 315 881 340 881 q 249 835 267 881 l 107 835 z "},"´":{"ha":347,"x_min":88,"x_max":463,"o":"m 435 969 l 88 824 l 113 963 l 463 1128 l 435 969 z "},"µ":{"ha":942,"x_min":-32,"x_max":901,"o":"m 901 769 l 765 0 l 571 0 l 592 118 q 478 24 546 57 q 329 -10 410 -10 q 229 17 268 -10 l 163 -367 l -32 -367 l 168 769 l 363 769 l 288 346 q 283 296 283 319 q 321 194 283 229 q 426 158 358 158 q 560 207 506 158 q 632 346 615 256 l 707 769 l 901 769 z "},"¶":{"ha":925,"x_min":86,"x_max":921,"o":"m 750 0 l 583 0 l 728 819 l 639 819 l 493 0 l 328 0 l 396 386 l 371 386 q 156 451 226 386 q 86 619 86 515 q 92 678 86 639 q 212 887 114 804 q 474 969 310 969 l 921 969 l 750 0 z "},"·":{"ha":375,"x_min":17,"x_max":258,"o":"m 118 339 q 44 365 72 339 q 17 432 17 392 q 59 527 17 488 q 158 567 101 567 q 231 541 204 567 q 258 474 258 515 q 217 378 258 418 q 118 339 175 339 z "},"¸":{"ha":410,"x_min":-122,"x_max":289,"o":"m 133 -60 q 245 -90 201 -60 q 289 -181 289 -121 q 286 -211 289 -189 q 213 -326 274 -286 q 75 -367 153 -367 l -122 -367 l -101 -253 l 64 -253 q 115 -243 97 -253 q 139 -208 133 -233 q 129 -174 144 -183 q 79 -165 114 -165 l -7 -165 l 24 10 l 146 10 l 133 -60 z "},"¹":{"ha":317,"x_min":108,"x_max":357,"o":"m 108 864 l 128 978 l 357 978 l 271 489 l 121 489 l 188 864 l 108 864 z "},"º":{"ha":625,"x_min":93,"x_max":649,"o":"m 97 733 q 205 915 118 846 q 411 985 292 985 q 584 929 519 985 q 649 781 649 874 q 644 733 649 758 q 587 603 632 660 q 474 514 542 546 q 328 482 407 482 q 158 538 222 482 q 93 686 93 594 q 97 733 93 708 m 493 767 q 465 846 493 818 q 393 874 436 874 q 303 837 343 874 q 250 732 263 800 q 247 700 247 710 q 276 622 247 650 q 347 594 304 594 q 417 615 383 594 q 472 674 451 635 q 493 767 493 713 z "},"»":{"ha":724,"x_min":26,"x_max":665,"o":"m 197 410 l 113 653 l 296 653 l 376 410 l 210 167 l 26 167 l 197 410 m 485 410 l 401 653 l 585 653 l 665 410 l 499 167 l 315 167 l 485 410 z "},"¼":{"ha":1014,"x_min":32,"x_max":926,"o":"m 132 864 l 151 978 l 381 978 l 294 489 l 144 489 l 211 864 l 132 864 m 922 971 l 219 0 l 32 0 l 738 971 l 922 971 m 911 90 l 851 90 l 835 0 l 686 0 l 703 90 l 438 90 l 453 171 l 715 490 l 922 490 l 867 179 l 926 179 l 911 90 m 760 383 l 600 181 l 724 181 l 760 383 z "},"½":{"ha":1051,"x_min":32,"x_max":1057,"o":"m 211 864 l 132 864 l 151 978 l 381 978 l 294 489 l 144 489 l 211 864 m 915 972 l 219 0 l 32 0 l 728 972 l 915 972 m 1056 343 q 1006 255 1046 293 q 878 171 965 217 l 774 117 l 1013 117 l 992 -1 l 592 -1 l 613 110 l 790 217 q 870 281 843 250 q 897 346 897 311 q 886 378 897 367 q 857 389 875 389 q 797 338 813 389 l 647 338 q 728 454 664 410 q 888 499 792 499 q 1014 460 971 499 q 1057 365 1057 422 q 1056 343 1057 350 z "},"¾":{"ha":1126,"x_min":97,"x_max":1068,"o":"m 140 835 q 219 946 156 903 q 382 989 283 989 q 512 953 463 989 q 561 863 561 918 q 531 781 561 813 q 451 738 500 749 l 450 733 q 528 640 528 708 q 497 560 528 596 q 413 503 467 524 q 290 482 358 482 q 147 519 196 482 q 97 622 97 556 q 99 643 97 636 l 250 643 q 303 590 249 590 q 348 605 329 590 q 371 644 367 619 q 372 657 372 649 q 357 688 372 676 q 315 699 342 699 l 267 699 l 281 778 l 322 778 q 378 794 357 778 q 399 842 399 810 q 386 870 399 860 q 349 881 374 881 q 282 835 300 881 l 140 835 m 1068 972 l 349 0 l 163 0 l 882 972 l 1068 972 m 1039 90 l 981 90 l 964 0 l 814 0 l 831 90 l 567 90 l 581 171 l 836 490 l 1051 490 l 996 179 l 1054 179 l 1039 90 m 889 390 l 728 179 l 851 179 l 889 390 z "},"¿":{"ha":747,"x_min":0,"x_max":646,"o":"m 544 786 q 618 760 590 786 q 646 693 646 733 q 603 598 646 638 q 504 558 561 558 q 431 584 458 558 q 404 651 404 610 q 446 747 404 707 q 544 786 488 786 m 274 -226 q 74 -165 147 -226 q 0 7 0 -104 q 6 68 0 40 q 130 276 29 204 q 375 347 231 347 l 400 454 l 569 454 l 535 218 l 472 218 q 280 186 350 218 q 194 67 210 154 q 192 38 192 47 q 222 -37 192 -10 q 304 -64 251 -64 q 409 -29 367 -64 q 463 67 451 6 l 646 67 q 582 -85 632 -18 q 453 -189 532 -151 q 274 -226 374 -226 z "},"À":{"ha":994,"x_min":-36,"x_max":888,"o":"m 651 185 l 264 185 l 168 0 l -36 0 l 485 971 l 711 971 l 888 0 l 682 0 l 651 185 m 626 336 l 557 747 l 343 336 l 626 336 m 783 1164 l 758 1025 l 465 1171 l 493 1329 l 783 1164 z "},"Á":{"ha":994,"x_min":-36,"x_max":888,"o":"m 651 185 l 264 185 l 168 0 l -36 0 l 485 971 l 711 971 l 888 0 l 682 0 l 651 185 m 626 336 l 557 747 l 343 336 l 626 336 m 786 1171 l 439 1025 l 464 1164 l 814 1329 l 786 1171 z "},"Â":{"ha":994,"x_min":-36,"x_max":888,"o":"m 651 185 l 264 185 l 168 0 l -36 0 l 485 971 l 711 971 l 888 0 l 682 0 l 651 185 m 626 336 l 557 747 l 343 336 l 626 336 m 631 1149 l 401 1028 l 428 1171 l 654 1286 l 840 1171 l 815 1028 l 631 1149 z "},"Ã":{"ha":994,"x_min":-36,"x_max":901,"o":"m 651 185 l 264 185 l 168 0 l -36 0 l 485 971 l 711 971 l 888 0 l 682 0 l 651 185 m 626 336 l 557 747 l 343 336 l 626 336 m 361 1047 q 444 1184 390 1139 q 567 1229 497 1229 q 615 1220 594 1229 q 660 1194 636 1211 q 694 1174 679 1181 q 725 1168 708 1168 q 797 1228 778 1168 l 901 1228 q 818 1091 871 1136 q 696 1046 765 1046 q 647 1055 667 1046 q 601 1081 628 1064 q 567 1101 582 1094 q 536 1108 553 1108 q 465 1047 486 1108 l 361 1047 z "},"Ä":{"ha":994,"x_min":-36,"x_max":888,"o":"m 651 185 l 264 185 l 168 0 l -36 0 l 485 971 l 711 971 l 888 0 l 682 0 l 651 185 m 626 336 l 557 747 l 343 336 l 626 336 m 486 1063 q 429 1084 451 1063 q 407 1138 407 1106 q 440 1215 407 1182 q 518 1247 474 1247 q 574 1226 553 1247 q 594 1171 594 1204 q 562 1094 594 1126 q 486 1063 529 1063 m 743 1063 q 686 1084 708 1063 q 664 1138 664 1106 q 697 1215 664 1182 q 775 1247 731 1247 q 831 1226 810 1247 q 851 1171 851 1204 q 819 1094 851 1126 q 743 1063 786 1063 z "},"Å":{"ha":994,"x_min":-36,"x_max":888,"o":"m 651 185 l 264 185 l 168 0 l -36 0 l 485 971 l 711 971 l 888 0 l 682 0 l 651 185 m 626 336 l 557 747 l 343 336 l 626 336 m 479 1197 q 546 1313 493 1269 q 667 1357 599 1357 q 763 1323 726 1357 q 800 1231 800 1289 q 774 1130 800 1174 q 704 1062 747 1086 q 611 1038 661 1038 q 514 1072 551 1038 q 476 1164 476 1106 q 479 1197 476 1186 m 710 1213 q 693 1252 710 1238 q 650 1267 676 1267 q 598 1248 621 1267 q 569 1197 575 1229 q 568 1185 568 1193 q 584 1144 568 1160 q 626 1128 600 1128 q 685 1152 660 1128 q 710 1213 710 1176 z "},"Æ":{"ha":1301,"x_min":-58,"x_max":1321,"o":"m 929 818 l 886 568 l 1207 568 l 1182 418 l 860 418 l 813 154 l 1176 154 l 1149 0 l 590 0 l 622 182 l 281 182 l 153 0 l -58 0 l 629 971 l 1321 971 l 1293 818 l 929 818 m 649 332 l 736 829 l 386 332 l 649 332 z "},"Ç":{"ha":1067,"x_min":56,"x_max":1043,"o":"m 497 169 q 643 204 576 169 q 756 306 710 239 l 979 306 q 792 91 911 172 q 529 -6 674 10 l 519 -62 q 631 -93 588 -62 q 675 -183 675 -124 q 672 -214 675 -192 q 599 -329 660 -289 q 461 -369 539 -369 l 264 -369 l 285 -256 l 450 -256 q 501 -246 483 -256 q 525 -211 519 -236 q 515 -177 531 -186 q 465 -168 500 -168 l 379 -168 l 407 -6 q 222 58 301 6 q 99 196 142 111 q 56 388 56 281 q 64 486 56 436 q 173 742 89 629 q 380 919 257 856 q 642 982 503 982 q 913 899 804 982 q 1043 668 1021 815 l 819 668 q 743 769 797 735 q 610 803 689 803 q 452 764 525 803 q 330 653 379 725 q 264 486 281 581 q 257 413 257 442 q 322 235 257 300 q 497 169 386 169 z "},"È":{"ha":739,"x_min":24,"x_max":758,"o":"m 364 818 l 319 567 l 646 567 l 619 417 l 293 417 l 247 154 l 615 154 l 588 0 l 24 0 l 196 971 l 758 971 l 732 818 l 364 818 m 657 1164 l 632 1025 l 339 1171 l 367 1329 l 657 1164 z "},"É":{"ha":739,"x_min":24,"x_max":758,"o":"m 364 818 l 319 567 l 646 567 l 619 417 l 293 417 l 247 154 l 615 154 l 588 0 l 24 0 l 196 971 l 758 971 l 732 818 l 364 818 m 660 1171 l 313 1025 l 338 1164 l 688 1329 l 660 1171 z "},"Ê":{"ha":739,"x_min":24,"x_max":758,"o":"m 364 818 l 319 567 l 646 567 l 619 417 l 293 417 l 247 154 l 615 154 l 588 0 l 24 0 l 196 971 l 758 971 l 732 818 l 364 818 m 503 1149 l 274 1028 l 300 1171 l 526 1286 l 713 1171 l 688 1028 l 503 1149 z "},"Ë":{"ha":739,"x_min":24,"x_max":758,"o":"m 364 818 l 319 567 l 646 567 l 619 417 l 293 417 l 247 154 l 615 154 l 588 0 l 24 0 l 196 971 l 758 971 l 732 818 l 364 818 m 360 1063 q 303 1084 325 1063 q 281 1138 281 1106 q 314 1215 281 1182 q 392 1247 347 1247 q 447 1226 426 1247 q 468 1171 468 1204 q 435 1094 468 1126 q 360 1063 403 1063 m 617 1063 q 560 1084 582 1063 q 538 1138 538 1106 q 571 1215 538 1182 q 649 1247 604 1247 q 704 1226 683 1247 q 725 1171 725 1204 q 692 1094 725 1126 q 617 1063 660 1063 z "},"Ì":{"ha":386,"x_min":24,"x_max":479,"o":"m 390 969 l 219 0 l 24 0 l 196 969 l 390 969 m 479 1164 l 454 1025 l 161 1171 l 189 1329 l 479 1164 z "},"Í":{"ha":386,"x_min":24,"x_max":510,"o":"m 390 969 l 219 0 l 24 0 l 196 969 l 390 969 m 482 1171 l 135 1025 l 160 1164 l 510 1329 l 482 1171 z "},"Î":{"ha":386,"x_min":24,"x_max":536,"o":"m 390 969 l 219 0 l 24 0 l 196 969 l 390 969 m 326 1149 l 97 1028 l 124 1171 l 350 1286 l 536 1171 l 511 1028 l 326 1149 z "},"Ï":{"ha":386,"x_min":24,"x_max":547,"o":"m 390 969 l 219 0 l 24 0 l 196 969 l 390 969 m 182 1063 q 125 1084 147 1063 q 103 1138 103 1106 q 136 1215 103 1182 q 214 1247 169 1247 q 269 1226 249 1247 q 290 1171 290 1204 q 258 1094 290 1126 q 182 1063 225 1063 m 439 1063 q 382 1084 404 1063 q 360 1138 360 1106 q 393 1215 360 1182 q 471 1247 426 1247 q 526 1226 506 1247 q 547 1171 547 1204 q 515 1094 547 1126 q 439 1063 482 1063 z "},"Ð":{"ha":1008,"x_min":8,"x_max":982,"o":"m 547 969 q 780 923 682 969 q 930 790 878 876 q 982 585 982 703 q 972 483 982 547 q 864 228 946 338 q 656 60 782 119 q 375 0 529 0 l 36 0 l 107 399 l 8 399 l 39 568 l 136 568 l 207 969 l 547 969 m 772 483 q 779 564 779 518 q 710 743 779 679 q 511 807 642 807 l 375 807 l 333 568 l 564 568 l 533 399 l 303 399 l 261 158 l 397 158 q 647 244 549 158 q 772 483 746 331 z "},"Ñ":{"ha":1021,"x_min":24,"x_max":1025,"o":"m 854 0 l 658 0 l 338 665 l 219 0 l 24 0 l 196 971 l 390 971 l 713 304 l 831 971 l 1025 971 l 854 0 m 375 1047 q 458 1184 404 1139 q 581 1229 511 1229 q 629 1220 608 1229 q 674 1194 650 1211 q 708 1174 693 1181 q 739 1168 722 1168 q 811 1228 792 1168 l 915 1228 q 832 1091 885 1136 q 710 1046 779 1046 q 661 1055 681 1046 q 615 1081 642 1064 q 581 1101 596 1094 q 550 1108 567 1108 q 479 1047 500 1108 l 375 1047 z "},"Ò":{"ha":1090,"x_min":65,"x_max":1054,"o":"m 478 -10 q 262 42 356 -10 q 117 187 168 94 q 65 399 65 279 q 140 699 65 565 q 345 908 214 832 q 640 983 476 983 q 858 932 764 983 q 1003 788 951 881 q 1054 578 1054 696 q 981 275 1054 408 q 775 66 907 142 q 478 -10 643 -10 m 506 169 q 690 222 610 169 q 813 365 769 275 q 857 560 857 454 q 793 739 857 674 q 614 804 729 804 q 431 751 511 804 q 308 610 351 699 q 264 415 264 521 q 327 235 264 301 q 506 169 390 169 m 828 1174 l 803 1035 l 510 1181 l 538 1339 l 828 1174 z "},"Ó":{"ha":1090,"x_min":65,"x_max":1054,"o":"m 478 -10 q 262 42 356 -10 q 117 187 168 94 q 65 399 65 279 q 140 699 65 565 q 345 908 214 832 q 640 983 476 983 q 858 932 764 983 q 1003 788 951 881 q 1054 578 1054 696 q 981 275 1054 408 q 775 66 907 142 q 478 -10 643 -10 m 506 169 q 690 222 610 169 q 813 365 769 275 q 857 560 857 454 q 793 739 857 674 q 614 804 729 804 q 431 751 511 804 q 308 610 351 699 q 264 415 264 521 q 327 235 264 301 q 506 169 390 169 m 831 1181 l 483 1035 l 508 1174 l 858 1339 l 831 1181 z "},"Ô":{"ha":1090,"x_min":65,"x_max":1054,"o":"m 478 -10 q 262 42 356 -10 q 117 187 168 94 q 65 399 65 279 q 140 699 65 565 q 345 908 214 832 q 640 983 476 983 q 858 932 764 983 q 1003 788 951 881 q 1054 578 1054 696 q 981 275 1054 408 q 775 66 907 142 q 478 -10 643 -10 m 506 169 q 690 222 610 169 q 813 365 769 275 q 857 560 857 454 q 793 739 857 674 q 614 804 729 804 q 431 751 511 804 q 308 610 351 699 q 264 415 264 521 q 327 235 264 301 q 506 169 390 169 m 675 1158 l 446 1038 l 472 1181 l 699 1296 l 885 1181 l 860 1038 l 675 1158 z "},"Õ":{"ha":1090,"x_min":65,"x_max":1054,"o":"m 478 -10 q 262 42 356 -10 q 117 187 168 94 q 65 399 65 279 q 140 699 65 565 q 345 908 214 832 q 640 983 476 983 q 858 932 764 983 q 1003 788 951 881 q 1054 578 1054 696 q 981 275 1054 408 q 775 66 907 142 q 478 -10 643 -10 m 506 169 q 690 222 610 169 q 813 365 769 275 q 857 560 857 454 q 793 739 857 674 q 614 804 729 804 q 431 751 511 804 q 308 610 351 699 q 264 415 264 521 q 327 235 264 301 q 506 169 390 169 m 407 1057 q 490 1194 436 1149 q 613 1239 543 1239 q 661 1230 640 1239 q 706 1204 682 1221 q 740 1184 725 1190 q 771 1178 754 1178 q 843 1238 824 1178 l 947 1238 q 864 1101 917 1146 q 742 1056 811 1056 q 693 1065 713 1056 q 647 1090 674 1074 q 613 1111 628 1104 q 582 1118 599 1118 q 511 1057 532 1118 l 407 1057 z "},"Ö":{"ha":1090,"x_min":65,"x_max":1054,"o":"m 478 -10 q 262 42 356 -10 q 117 187 168 94 q 65 399 65 279 q 140 699 65 565 q 345 908 214 832 q 640 983 476 983 q 858 932 764 983 q 1003 788 951 881 q 1054 578 1054 696 q 981 275 1054 408 q 775 66 907 142 q 478 -10 643 -10 m 506 169 q 690 222 610 169 q 813 365 769 275 q 857 560 857 454 q 793 739 857 674 q 614 804 729 804 q 431 751 511 804 q 308 610 351 699 q 264 415 264 521 q 327 235 264 301 q 506 169 390 169 m 531 1072 q 474 1094 496 1072 q 451 1147 451 1115 q 485 1224 451 1192 q 563 1257 518 1257 q 618 1235 597 1257 q 639 1181 639 1214 q 606 1104 639 1136 q 531 1072 574 1072 m 788 1072 q 731 1094 753 1072 q 708 1147 708 1115 q 742 1224 708 1192 q 819 1257 775 1257 q 875 1235 854 1257 q 896 1181 896 1214 q 863 1104 896 1136 q 788 1072 831 1072 z "},"×":{"ha":931,"x_min":117,"x_max":840,"o":"m 608 500 l 776 297 l 626 171 l 460 374 l 222 172 l 117 299 l 354 501 l 193 697 l 342 824 l 504 628 l 735 824 l 840 697 l 608 500 z "},"Ø":{"ha":1090,"x_min":-37,"x_max":1157,"o":"m 986 815 q 1054 578 1054 715 q 981 275 1054 408 q 775 66 907 142 q 478 -10 643 -10 q 321 16 393 -10 q 194 89 249 42 l 97 0 l -37 0 l 135 158 q 65 399 65 260 q 140 699 65 565 q 345 908 214 832 q 640 983 476 983 q 799 958 726 983 q 926 885 872 932 l 1022 972 l 1157 972 l 986 815 m 264 415 q 286 297 264 346 l 781 750 q 614 804 718 804 q 431 751 511 804 q 308 610 351 699 q 264 415 264 521 m 857 560 q 835 676 857 628 l 340 224 q 506 169 403 169 q 690 222 610 169 q 813 365 769 275 q 857 560 857 454 z "},"Ù":{"ha":968,"x_min":79,"x_max":976,"o":"m 388 969 l 282 371 q 276 317 276 332 q 319 206 276 244 q 442 168 363 168 q 597 220 536 168 q 675 371 657 272 l 781 969 l 976 969 l 871 371 q 781 160 849 246 q 616 33 713 75 q 408 -10 519 -10 q 170 67 261 -10 q 79 286 79 143 q 88 371 79 325 l 193 969 l 388 969 m 769 1164 l 744 1025 l 451 1171 l 479 1329 l 769 1164 z "},"Ú":{"ha":968,"x_min":79,"x_max":976,"o":"m 388 969 l 282 371 q 276 317 276 332 q 319 206 276 244 q 442 168 363 168 q 597 220 536 168 q 675 371 657 272 l 781 969 l 976 969 l 871 371 q 781 160 849 246 q 616 33 713 75 q 408 -10 519 -10 q 170 67 261 -10 q 79 286 79 143 q 88 371 79 325 l 193 969 l 388 969 m 772 1171 l 425 1025 l 450 1164 l 800 1329 l 772 1171 z "},"Û":{"ha":968,"x_min":79,"x_max":976,"o":"m 388 969 l 282 371 q 276 317 276 332 q 319 206 276 244 q 442 168 363 168 q 597 220 536 168 q 675 371 657 272 l 781 969 l 976 969 l 871 371 q 781 160 849 246 q 616 33 713 75 q 408 -10 519 -10 q 170 67 261 -10 q 79 286 79 143 q 88 371 79 325 l 193 969 l 388 969 m 617 1149 l 388 1028 l 414 1171 l 640 1286 l 826 1171 l 801 1028 l 617 1149 z "},"Ü":{"ha":968,"x_min":79,"x_max":976,"o":"m 388 969 l 282 371 q 276 317 276 332 q 319 206 276 244 q 442 168 363 168 q 597 220 536 168 q 675 371 657 272 l 781 969 l 976 969 l 871 371 q 781 160 849 246 q 616 33 713 75 q 408 -10 519 -10 q 170 67 261 -10 q 79 286 79 143 q 88 371 79 325 l 193 969 l 388 969 m 474 1063 q 417 1084 439 1063 q 394 1138 394 1106 q 428 1215 394 1182 q 506 1247 461 1247 q 561 1226 540 1247 q 582 1171 582 1204 q 549 1094 582 1126 q 474 1063 517 1063 m 731 1063 q 674 1084 696 1063 q 651 1138 651 1106 q 685 1215 651 1182 q 763 1247 718 1247 q 818 1226 797 1247 q 839 1171 839 1204 q 806 1094 839 1126 q 731 1063 774 1063 z "},"Ý":{"ha":883,"x_min":115,"x_max":967,"o":"m 967 969 l 528 338 l 468 0 l 272 0 l 333 338 l 115 969 l 335 969 l 464 529 l 747 969 l 967 969 m 731 1171 l 383 1025 l 408 1164 l 758 1329 l 731 1171 z "},"Þ":{"ha":844,"x_min":24,"x_max":822,"o":"m 817 486 q 754 342 803 408 q 620 233 706 275 q 415 192 535 192 l 253 192 l 219 0 l 24 0 l 196 971 l 389 971 l 356 782 l 519 782 q 745 717 668 782 q 822 543 822 651 q 817 486 822 525 m 433 340 q 559 379 513 340 q 618 486 606 418 q 621 521 621 499 q 485 632 621 632 l 332 632 l 279 340 l 433 340 z "},"ß":{"ha":978,"x_min":4,"x_max":915,"o":"m 139 763 q 270 985 163 900 q 556 1071 378 1071 q 719 1042 651 1071 q 820 966 786 1014 q 854 860 854 918 q 813 729 854 783 q 700 615 771 675 q 647 567 663 585 q 631 535 631 550 q 653 500 631 515 q 753 456 676 485 q 877 376 839 424 q 915 253 915 329 q 872 114 915 175 q 754 19 829 53 q 585 -14 679 -14 q 387 47 458 -14 q 315 215 315 108 q 317 246 315 235 l 504 246 q 524 163 499 193 q 603 133 550 133 q 687 158 657 133 q 717 229 717 182 q 694 281 717 260 q 614 322 671 301 q 472 397 515 358 q 428 492 428 435 q 458 582 428 543 q 550 675 489 621 q 628 752 603 721 q 654 821 654 783 q 620 885 654 863 q 525 908 586 908 q 391 867 438 908 q 329 743 344 825 l 199 0 l 4 0 l 139 763 z "},"à":{"ha":942,"x_min":35,"x_max":911,"o":"m 43 388 q 126 594 64 504 q 276 733 188 685 q 464 782 365 782 q 609 747 550 782 q 696 660 668 713 l 715 769 l 911 769 l 775 0 l 579 0 l 600 113 q 481 23 554 58 q 322 -12 408 -12 q 172 26 238 -12 q 71 134 107 64 q 35 297 35 204 q 43 388 35 340 m 647 385 q 653 438 653 421 q 605 565 653 519 q 485 611 557 611 q 380 585 431 611 q 292 508 329 558 q 242 388 254 457 q 238 338 238 361 q 285 206 238 254 q 404 158 332 158 q 510 185 458 158 q 598 264 561 213 q 647 385 635 315 m 724 963 l 699 824 l 406 969 l 433 1128 l 724 963 z "},"á":{"ha":942,"x_min":35,"x_max":911,"o":"m 43 388 q 126 594 64 504 q 276 733 188 685 q 464 782 365 782 q 609 747 550 782 q 696 660 668 713 l 715 769 l 911 769 l 775 0 l 579 0 l 600 113 q 481 23 554 58 q 322 -12 408 -12 q 172 26 238 -12 q 71 134 107 64 q 35 297 35 204 q 43 388 35 340 m 647 385 q 653 438 653 421 q 605 565 653 519 q 485 611 557 611 q 380 585 431 611 q 292 508 329 558 q 242 388 254 457 q 238 338 238 361 q 285 206 238 254 q 404 158 332 158 q 510 185 458 158 q 598 264 561 213 q 647 385 635 315 m 726 969 l 379 824 l 404 963 l 754 1128 l 726 969 z "},"â":{"ha":942,"x_min":35,"x_max":911,"o":"m 43 388 q 126 594 64 504 q 276 733 188 685 q 464 782 365 782 q 609 747 550 782 q 696 660 668 713 l 715 769 l 911 769 l 775 0 l 579 0 l 600 113 q 481 23 554 58 q 322 -12 408 -12 q 172 26 238 -12 q 71 134 107 64 q 35 297 35 204 q 43 388 35 340 m 647 385 q 653 438 653 421 q 605 565 653 519 q 485 611 557 611 q 380 585 431 611 q 292 508 329 558 q 242 388 254 457 q 238 338 238 361 q 285 206 238 254 q 404 158 332 158 q 510 185 458 158 q 598 264 561 213 q 647 385 635 315 m 569 947 l 340 826 l 367 969 l 593 1085 l 779 969 l 754 826 l 569 947 z "},"ã":{"ha":942,"x_min":35,"x_max":911,"o":"m 43 388 q 126 594 64 504 q 276 733 188 685 q 464 782 365 782 q 609 747 550 782 q 696 660 668 713 l 715 769 l 911 769 l 775 0 l 579 0 l 600 113 q 481 23 554 58 q 322 -12 408 -12 q 172 26 238 -12 q 71 134 107 64 q 35 297 35 204 q 43 388 35 340 m 647 385 q 653 438 653 421 q 605 565 653 519 q 485 611 557 611 q 380 585 431 611 q 292 508 329 558 q 242 388 254 457 q 238 338 238 361 q 285 206 238 254 q 404 158 332 158 q 510 185 458 158 q 598 264 561 213 q 647 385 635 315 m 301 846 q 384 983 331 938 q 507 1028 438 1028 q 556 1019 535 1028 q 600 993 576 1010 q 634 973 619 979 q 665 967 649 967 q 738 1026 718 967 l 842 1026 q 758 890 811 935 q 636 844 706 844 q 588 853 607 844 q 542 879 568 863 q 508 900 522 893 q 476 907 493 907 q 406 846 426 907 l 301 846 z "},"ä":{"ha":942,"x_min":35,"x_max":911,"o":"m 43 388 q 126 594 64 504 q 276 733 188 685 q 464 782 365 782 q 609 747 550 782 q 696 660 668 713 l 715 769 l 911 769 l 775 0 l 579 0 l 600 113 q 481 23 554 58 q 322 -12 408 -12 q 172 26 238 -12 q 71 134 107 64 q 35 297 35 204 q 43 388 35 340 m 647 385 q 653 438 653 421 q 605 565 653 519 q 485 611 557 611 q 380 585 431 611 q 292 508 329 558 q 242 388 254 457 q 238 338 238 361 q 285 206 238 254 q 404 158 332 158 q 510 185 458 158 q 598 264 561 213 q 647 385 635 315 m 426 861 q 369 883 392 861 q 347 936 347 904 q 381 1013 347 981 q 458 1046 414 1046 q 514 1024 493 1046 q 535 969 535 1003 q 502 893 535 925 q 426 861 469 861 m 683 861 q 626 883 649 861 q 604 936 604 904 q 638 1013 604 981 q 715 1046 671 1046 q 771 1024 750 1046 q 792 969 792 1003 q 759 893 792 925 q 683 861 726 861 z "},"å":{"ha":942,"x_min":35,"x_max":911,"o":"m 43 388 q 126 594 64 504 q 276 733 188 685 q 464 782 365 782 q 609 747 550 782 q 696 660 668 713 l 715 769 l 911 769 l 775 0 l 579 0 l 600 113 q 481 23 554 58 q 322 -12 408 -12 q 172 26 238 -12 q 71 134 107 64 q 35 297 35 204 q 43 388 35 340 m 647 385 q 653 438 653 421 q 605 565 653 519 q 485 611 557 611 q 380 585 431 611 q 292 508 329 558 q 242 388 254 457 q 238 338 238 361 q 285 206 238 254 q 404 158 332 158 q 510 185 458 158 q 598 264 561 213 q 647 385 635 315 m 418 996 q 485 1112 432 1068 q 606 1156 538 1156 q 702 1122 665 1156 q 739 1029 739 1088 q 713 928 739 972 q 643 860 686 885 q 550 836 600 836 q 453 870 490 836 q 415 963 415 904 q 418 996 415 985 m 649 1011 q 632 1051 649 1036 q 589 1065 615 1065 q 537 1047 560 1065 q 508 996 514 1028 q 507 983 507 992 q 523 942 507 958 q 565 926 539 926 q 624 951 599 926 q 649 1011 649 975 z "},"æ":{"ha":1496,"x_min":35,"x_max":1458,"o":"m 1165 782 q 1379 701 1300 782 q 1458 485 1458 619 q 1451 403 1458 439 q 1432 331 1446 371 l 839 331 q 884 196 835 243 q 1006 149 933 149 q 1119 174 1072 149 q 1192 242 1167 199 l 1403 242 q 1251 58 1350 129 q 1025 -12 1151 -12 q 879 22 942 -12 q 789 114 817 57 l 768 0 l 581 0 l 601 114 q 477 22 549 57 q 325 -12 406 -12 q 174 26 240 -12 q 72 134 108 64 q 35 297 35 204 q 43 388 35 340 q 126 595 64 506 q 279 733 189 685 q 471 782 369 782 q 608 751 551 782 q 697 661 665 721 l 717 769 l 904 769 l 885 661 q 1013 753 943 724 q 1165 782 1082 782 m 1258 449 q 1261 478 1261 468 q 1214 583 1261 544 q 1092 622 1167 622 q 951 576 1015 622 q 860 449 888 529 l 1258 449 m 647 385 q 653 438 653 421 q 605 565 653 519 q 485 611 557 611 q 380 585 431 611 q 292 508 329 558 q 242 388 254 457 q 238 338 238 361 q 285 206 238 254 q 404 158 332 158 q 510 185 458 158 q 598 264 561 213 q 647 385 635 315 z "},"ç":{"ha":836,"x_min":35,"x_max":808,"o":"m 382 154 q 554 260 499 154 l 764 260 q 624 76 715 147 q 413 -8 533 6 l 403 -62 q 515 -93 471 -62 q 558 -183 558 -124 q 556 -214 558 -192 q 483 -329 543 -289 q 344 -369 422 -369 l 147 -369 l 168 -256 l 333 -256 q 385 -246 367 -256 q 408 -211 403 -236 q 399 -177 414 -186 q 349 -168 383 -168 l 263 -168 l 290 -8 q 103 90 171 10 q 35 294 35 169 q 43 385 35 338 q 128 594 64 504 q 287 733 192 683 q 493 782 382 782 q 717 711 636 782 q 808 510 799 640 l 599 510 q 556 588 590 560 q 463 617 521 617 q 320 556 379 617 q 242 385 261 496 q 235 318 235 346 q 274 197 235 239 q 382 154 313 154 z "},"è":{"ha":857,"x_min":35,"x_max":818,"o":"m 499 782 q 732 701 646 782 q 818 482 818 619 q 811 403 818 438 q 793 331 803 361 l 231 331 q 229 303 229 321 q 272 190 229 231 q 383 149 314 149 q 484 174 442 149 q 553 242 526 200 l 763 242 q 603 59 711 131 q 360 -12 496 -12 q 124 71 213 -12 q 35 297 35 154 q 43 385 35 339 q 128 594 64 504 q 289 733 193 685 q 499 782 385 782 m 618 449 q 621 481 621 471 q 578 585 621 547 q 465 622 535 622 q 333 576 392 622 q 251 449 275 529 l 618 449 m 683 963 l 658 824 l 365 969 l 393 1128 l 683 963 z "},"é":{"ha":857,"x_min":35,"x_max":818,"o":"m 499 782 q 732 701 646 782 q 818 482 818 619 q 811 403 818 438 q 793 331 803 361 l 231 331 q 229 303 229 321 q 272 190 229 231 q 383 149 314 149 q 484 174 442 149 q 553 242 526 200 l 763 242 q 603 59 711 131 q 360 -12 496 -12 q 124 71 213 -12 q 35 297 35 154 q 43 385 35 339 q 128 594 64 504 q 289 733 193 685 q 499 782 385 782 m 618 449 q 621 481 621 471 q 578 585 621 547 q 465 622 535 622 q 333 576 392 622 q 251 449 275 529 l 618 449 m 686 969 l 339 824 l 364 963 l 714 1128 l 686 969 z "},"ê":{"ha":857,"x_min":35,"x_max":818,"o":"m 499 782 q 732 701 646 782 q 818 482 818 619 q 811 403 818 438 q 793 331 803 361 l 231 331 q 229 303 229 321 q 272 190 229 231 q 383 149 314 149 q 484 174 442 149 q 553 242 526 200 l 763 242 q 603 59 711 131 q 360 -12 496 -12 q 124 71 213 -12 q 35 297 35 154 q 43 385 35 339 q 128 594 64 504 q 289 733 193 685 q 499 782 385 782 m 618 449 q 621 481 621 471 q 578 585 621 547 q 465 622 535 622 q 333 576 392 622 q 251 449 275 529 l 618 449 m 531 947 l 301 826 l 328 969 l 554 1085 l 740 969 l 715 826 l 531 947 z "},"ë":{"ha":857,"x_min":35,"x_max":818,"o":"m 499 782 q 732 701 646 782 q 818 482 818 619 q 811 403 818 438 q 793 331 803 361 l 231 331 q 229 303 229 321 q 272 190 229 231 q 383 149 314 149 q 484 174 442 149 q 553 242 526 200 l 763 242 q 603 59 711 131 q 360 -12 496 -12 q 124 71 213 -12 q 35 297 35 154 q 43 385 35 339 q 128 594 64 504 q 289 733 193 685 q 499 782 385 782 m 618 449 q 621 481 621 471 q 578 585 621 547 q 465 622 535 622 q 333 576 392 622 q 251 449 275 529 l 618 449 m 386 861 q 329 883 351 861 q 307 936 307 904 q 340 1013 307 981 q 418 1046 374 1046 q 474 1024 453 1046 q 494 969 494 1003 q 462 893 494 925 q 386 861 429 861 m 643 861 q 586 883 608 861 q 564 936 564 904 q 597 1013 564 981 q 675 1046 631 1046 q 731 1024 710 1046 q 751 969 751 1003 q 719 893 751 925 q 643 861 686 861 z "},"ì":{"ha":403,"x_min":32,"x_max":451,"o":"m 364 769 l 228 0 l 32 0 l 168 769 l 364 769 m 451 963 l 426 824 l 133 969 l 161 1128 l 451 963 z "},"í":{"ha":403,"x_min":32,"x_max":482,"o":"m 364 769 l 228 0 l 32 0 l 168 769 l 364 769 m 454 969 l 107 824 l 132 963 l 482 1128 l 454 969 z "},"î":{"ha":403,"x_min":32,"x_max":508,"o":"m 364 769 l 228 0 l 32 0 l 168 769 l 364 769 m 299 947 l 69 826 l 96 969 l 322 1085 l 508 969 l 483 826 l 299 947 z "},"ï":{"ha":403,"x_min":32,"x_max":519,"o":"m 364 769 l 228 0 l 32 0 l 168 769 l 364 769 m 154 861 q 97 883 119 861 q 75 936 75 904 q 108 1013 75 981 q 186 1046 142 1046 q 242 1024 221 1046 q 263 969 263 1003 q 230 893 263 925 q 154 861 197 861 m 411 861 q 354 883 376 861 q 332 936 332 904 q 365 1013 332 981 q 443 1046 399 1046 q 499 1024 478 1046 q 519 969 519 1003 q 487 893 519 925 q 411 861 454 861 z "},"ð":{"ha":886,"x_min":36,"x_max":868,"o":"m 756 911 q 857 563 857 751 q 846 440 857 507 q 751 194 821 296 q 581 40 681 92 q 368 -11 482 -11 q 195 27 271 -11 q 78 137 119 65 q 36 304 36 208 q 43 386 36 350 q 130 594 64 504 q 290 732 196 683 q 490 781 385 781 q 674 718 599 781 q 608 867 651 800 l 439 817 l 456 906 l 560 936 q 476 1028 529 975 l 664 1028 l 706 981 l 868 1029 l 853 940 l 756 911 m 638 385 q 643 442 643 411 q 596 570 643 525 q 479 615 549 615 q 329 556 397 615 q 242 385 261 496 q 236 328 236 343 q 282 199 236 244 q 397 154 328 154 q 500 180 450 154 q 587 258 550 206 q 638 385 624 310 z "},"ñ":{"ha":918,"x_min":24,"x_max":850,"o":"m 588 781 q 776 716 707 781 q 844 532 844 651 q 838 451 844 488 l 757 0 l 564 0 l 639 425 q 643 474 643 450 q 606 579 643 543 q 501 615 569 615 q 369 569 424 615 q 296 435 314 522 l 219 0 l 24 0 l 160 769 l 356 769 l 339 675 q 451 752 386 724 q 588 781 517 781 m 310 846 q 392 983 339 938 q 515 1028 446 1028 q 564 1019 543 1028 q 608 993 585 1010 q 642 973 628 979 q 674 967 657 967 q 746 1026 726 967 l 850 1026 q 767 890 819 935 q 644 844 714 844 q 596 853 615 844 q 550 879 576 863 q 516 900 531 893 q 485 907 501 907 q 414 846 435 907 l 310 846 z "},"ò":{"ha":886,"x_min":35,"x_max":843,"o":"m 368 -12 q 194 28 269 -12 q 76 142 118 68 q 35 311 35 215 q 97 549 35 442 q 266 719 158 657 q 506 782 374 782 q 681 741 604 782 q 801 626 758 700 q 843 457 843 553 q 781 218 843 325 q 609 49 718 111 q 368 -12 500 -12 m 394 154 q 521 194 464 154 q 610 301 578 235 q 642 442 642 368 q 595 570 642 525 q 478 615 549 615 q 352 575 407 615 q 267 467 297 535 q 236 325 236 400 q 280 199 236 243 q 394 154 324 154 m 692 975 l 667 836 l 374 982 l 401 1140 l 692 975 z "},"ó":{"ha":886,"x_min":35,"x_max":843,"o":"m 368 -12 q 194 28 269 -12 q 76 142 118 68 q 35 311 35 215 q 97 549 35 442 q 266 719 158 657 q 506 782 374 782 q 681 741 604 782 q 801 626 758 700 q 843 457 843 553 q 781 218 843 325 q 609 49 718 111 q 368 -12 500 -12 m 394 154 q 521 194 464 154 q 610 301 578 235 q 642 442 642 368 q 595 570 642 525 q 478 615 549 615 q 352 575 407 615 q 267 467 297 535 q 236 325 236 400 q 280 199 236 243 q 394 154 324 154 m 694 982 l 347 836 l 372 975 l 722 1140 l 694 982 z "},"ô":{"ha":886,"x_min":35,"x_max":843,"o":"m 368 -12 q 194 28 269 -12 q 76 142 118 68 q 35 311 35 215 q 97 549 35 442 q 266 719 158 657 q 506 782 374 782 q 681 741 604 782 q 801 626 758 700 q 843 457 843 553 q 781 218 843 325 q 609 49 718 111 q 368 -12 500 -12 m 394 154 q 521 194 464 154 q 610 301 578 235 q 642 442 642 368 q 595 570 642 525 q 478 615 549 615 q 352 575 407 615 q 267 467 297 535 q 236 325 236 400 q 280 199 236 243 q 394 154 324 154 m 539 960 l 310 839 l 336 982 l 563 1097 l 749 982 l 724 839 l 539 960 z "},"õ":{"ha":886,"x_min":35,"x_max":843,"o":"m 368 -12 q 194 28 269 -12 q 76 142 118 68 q 35 311 35 215 q 97 549 35 442 q 266 719 158 657 q 506 782 374 782 q 681 741 604 782 q 801 626 758 700 q 843 457 843 553 q 781 218 843 325 q 609 49 718 111 q 368 -12 500 -12 m 394 154 q 521 194 464 154 q 610 301 578 235 q 642 442 642 368 q 595 570 642 525 q 478 615 549 615 q 352 575 407 615 q 267 467 297 535 q 236 325 236 400 q 280 199 236 243 q 394 154 324 154 m 269 858 q 352 995 299 950 q 475 1040 406 1040 q 524 1031 503 1040 q 568 1006 544 1022 q 602 985 588 992 q 633 979 617 979 q 706 1039 686 979 l 810 1039 q 726 902 779 947 q 604 857 674 857 q 556 866 575 857 q 510 892 536 875 q 476 913 490 906 q 444 919 461 919 q 374 858 394 919 l 269 858 z "},"ö":{"ha":886,"x_min":35,"x_max":843,"o":"m 368 -12 q 194 28 269 -12 q 76 142 118 68 q 35 311 35 215 q 97 549 35 442 q 266 719 158 657 q 506 782 374 782 q 681 741 604 782 q 801 626 758 700 q 843 457 843 553 q 781 218 843 325 q 609 49 718 111 q 368 -12 500 -12 m 394 154 q 521 194 464 154 q 610 301 578 235 q 642 442 642 368 q 595 570 642 525 q 478 615 549 615 q 352 575 407 615 q 267 467 297 535 q 236 325 236 400 q 280 199 236 243 q 394 154 324 154 m 394 874 q 338 895 360 874 q 315 949 315 917 q 349 1026 315 993 q 426 1058 382 1058 q 482 1037 461 1058 q 503 982 503 1015 q 470 906 503 938 q 394 874 438 874 m 651 874 q 594 895 617 874 q 572 949 572 917 q 606 1026 572 993 q 683 1058 639 1058 q 739 1037 718 1058 q 760 982 760 1015 q 727 906 760 938 q 651 874 694 874 z "},"÷":{"ha":900,"x_min":101,"x_max":842,"o":"m 500 689 q 426 715 454 689 q 399 782 399 742 q 441 877 399 838 q 540 917 483 917 q 613 891 586 917 q 640 824 640 865 q 599 728 640 768 q 500 689 557 689 m 842 582 l 811 408 l 101 408 l 133 582 l 842 582 m 379 76 q 306 103 333 76 q 278 169 278 129 q 320 265 278 225 q 419 304 363 304 q 492 278 465 304 q 519 211 519 253 q 478 116 519 156 q 379 76 436 76 z "},"ø":{"ha":881,"x_min":-42,"x_max":915,"o":"m 783 649 q 840 457 840 568 q 778 218 840 325 q 606 49 715 111 q 365 -12 497 -12 q 143 61 232 -12 l 76 0 l -42 0 l 89 119 q 32 311 32 197 q 94 549 32 442 q 263 719 156 657 q 503 782 371 782 q 628 763 571 782 q 729 707 686 743 l 797 769 l 915 769 l 783 649 m 233 325 q 242 260 233 289 l 586 576 q 475 615 543 615 q 349 575 404 615 q 264 467 294 535 q 233 325 233 400 m 639 442 q 629 507 639 479 l 285 192 q 392 154 326 154 q 518 194 461 154 q 607 301 575 235 q 639 442 639 368 z "},"ù":{"ha":918,"x_min":67,"x_max":886,"o":"m 886 769 l 750 0 l 556 0 l 572 97 q 463 19 528 47 q 325 -10 397 -10 q 136 55 206 -10 q 67 239 67 119 q 74 318 67 283 l 153 769 l 347 769 l 272 346 q 268 297 268 321 q 306 192 268 229 q 411 156 343 156 q 546 205 490 156 q 617 346 601 254 l 692 769 l 886 769 m 710 963 l 685 824 l 392 969 l 419 1128 l 710 963 z "},"ú":{"ha":918,"x_min":67,"x_max":886,"o":"m 886 769 l 750 0 l 556 0 l 572 97 q 463 19 528 47 q 325 -10 397 -10 q 136 55 206 -10 q 67 239 67 119 q 74 318 67 283 l 153 769 l 347 769 l 272 346 q 268 297 268 321 q 306 192 268 229 q 411 156 343 156 q 546 205 490 156 q 617 346 601 254 l 692 769 l 886 769 m 713 969 l 365 824 l 390 963 l 740 1128 l 713 969 z "},"û":{"ha":918,"x_min":67,"x_max":886,"o":"m 886 769 l 750 0 l 556 0 l 572 97 q 463 19 528 47 q 325 -10 397 -10 q 136 55 206 -10 q 67 239 67 119 q 74 318 67 283 l 153 769 l 347 769 l 272 346 q 268 297 268 321 q 306 192 268 229 q 411 156 343 156 q 546 205 490 156 q 617 346 601 254 l 692 769 l 886 769 m 556 947 l 326 826 l 353 969 l 579 1085 l 765 969 l 740 826 l 556 947 z "},"ü":{"ha":918,"x_min":67,"x_max":886,"o":"m 886 769 l 750 0 l 556 0 l 572 97 q 463 19 528 47 q 325 -10 397 -10 q 136 55 206 -10 q 67 239 67 119 q 74 318 67 283 l 153 769 l 347 769 l 272 346 q 268 297 268 321 q 306 192 268 229 q 411 156 343 156 q 546 205 490 156 q 617 346 601 254 l 692 769 l 886 769 m 413 861 q 356 883 378 861 q 333 936 333 904 q 367 1013 333 981 q 444 1046 400 1046 q 500 1024 479 1046 q 521 969 521 1003 q 488 893 521 925 q 413 861 456 861 m 669 861 q 613 883 635 861 q 590 936 590 904 q 624 1013 590 981 q 701 1046 657 1046 q 757 1024 736 1046 q 778 969 778 1003 q 745 893 778 925 q 669 861 713 861 z "},"ý":{"ha":840,"x_min":14,"x_max":897,"o":"m 289 769 l 392 232 l 690 769 l 897 769 l 221 -364 l 14 -364 l 247 19 l 71 769 l 289 769 m 674 969 l 326 824 l 351 963 l 701 1128 l 674 969 z "},"þ":{"ha":942,"x_min":-40,"x_max":900,"o":"m 335 650 q 453 746 383 711 q 606 781 522 781 q 758 742 692 781 q 863 634 825 704 q 900 471 900 564 q 892 386 900 431 q 808 180 871 271 q 655 39 744 89 q 467 -11 565 -11 q 326 26 383 -11 q 242 129 269 64 l 156 -367 l -40 -367 l 206 1028 l 401 1028 l 335 650 m 694 386 q 699 438 699 414 q 650 565 699 519 q 531 611 601 611 q 428 585 479 611 q 338 507 376 558 q 288 385 300 456 q 283 333 283 358 q 332 205 283 251 q 450 158 381 158 q 554 185 503 158 q 644 263 606 211 q 694 386 682 315 z "},"ÿ":{"ha":840,"x_min":14,"x_max":897,"o":"m 289 769 l 392 232 l 690 769 l 897 769 l 221 -364 l 14 -364 l 247 19 l 71 769 l 289 769 m 374 861 q 317 883 339 861 q 294 936 294 904 q 328 1013 294 981 q 406 1046 361 1046 q 461 1024 440 1046 q 482 969 482 1003 q 449 893 482 925 q 374 861 417 861 m 631 861 q 574 883 596 861 q 551 936 551 904 q 585 1013 551 981 q 663 1046 618 1046 q 718 1024 697 1046 q 739 969 739 1003 q 706 893 739 925 q 631 861 674 861 z "},"Ā":{"ha":994,"x_min":-36,"x_max":907,"o":"m 651 185 l 264 185 l 168 0 l -36 0 l 485 971 l 711 971 l 888 0 l 682 0 l 651 185 m 626 336 l 557 747 l 343 336 l 626 336 m 907 1218 l 882 1079 l 351 1079 l 376 1218 l 907 1218 z "},"ā":{"ha":942,"x_min":35,"x_max":911,"o":"m 43 388 q 126 594 64 504 q 276 733 188 685 q 464 782 365 782 q 609 747 550 782 q 696 660 668 713 l 715 769 l 911 769 l 775 0 l 579 0 l 600 113 q 481 23 554 58 q 322 -12 408 -12 q 172 26 238 -12 q 71 134 107 64 q 35 297 35 204 q 43 388 35 340 m 647 385 q 653 438 653 421 q 605 565 653 519 q 485 611 557 611 q 380 585 431 611 q 292 508 329 558 q 242 388 254 457 q 238 338 238 361 q 285 206 238 254 q 404 158 332 158 q 510 185 458 158 q 598 264 561 213 q 647 385 635 315 m 847 1017 l 822 878 l 292 878 l 317 1017 l 847 1017 z "},"Ă":{"ha":994,"x_min":-36,"x_max":888,"o":"m 651 185 l 264 185 l 168 0 l -36 0 l 485 971 l 711 971 l 888 0 l 682 0 l 651 185 m 626 336 l 557 747 l 343 336 l 626 336 m 871 1258 q 783 1101 853 1158 q 611 1043 714 1043 q 474 1088 524 1043 q 424 1211 424 1132 q 428 1258 424 1233 l 433 1288 l 536 1288 q 533 1261 533 1268 q 558 1208 533 1226 q 638 1190 582 1190 q 733 1215 703 1190 q 772 1288 764 1239 l 876 1288 l 871 1258 z "},"ă":{"ha":942,"x_min":35,"x_max":911,"o":"m 43 388 q 126 594 64 504 q 276 733 188 685 q 464 782 365 782 q 609 747 550 782 q 696 660 668 713 l 715 769 l 911 769 l 775 0 l 579 0 l 600 113 q 481 23 554 58 q 322 -12 408 -12 q 172 26 238 -12 q 71 134 107 64 q 35 297 35 204 q 43 388 35 340 m 647 385 q 653 438 653 421 q 605 565 653 519 q 485 611 557 611 q 380 585 431 611 q 292 508 329 558 q 242 388 254 457 q 238 338 238 361 q 285 206 238 254 q 404 158 332 158 q 510 185 458 158 q 598 264 561 213 q 647 385 635 315 m 811 1057 q 724 899 793 957 q 551 842 654 842 q 414 886 464 842 q 364 1010 364 931 q 368 1057 364 1032 l 374 1086 l 476 1086 q 474 1060 474 1067 q 498 1007 474 1025 q 578 989 522 989 q 674 1013 643 989 q 713 1086 704 1038 l 817 1086 l 811 1057 z "},"Ą":{"ha":994,"x_min":-36,"x_max":888,"o":"m 714 -136 q 730 -169 714 -157 q 775 -181 746 -181 q 876 -160 818 -181 l 856 -276 q 728 -297 793 -297 q 606 -266 654 -297 q 557 -171 557 -235 q 678 21 557 -61 l 651 185 l 264 185 l 168 0 l -36 0 l 485 971 l 711 971 l 888 0 l 817 -33 q 736 -83 758 -58 q 714 -136 714 -107 m 626 336 l 557 747 l 343 336 l 626 336 z "},"ą":{"ha":942,"x_min":35,"x_max":911,"o":"m 704 -33 q 630 -78 653 -57 q 601 -125 607 -100 q 613 -165 597 -150 q 661 -181 629 -181 q 763 -160 707 -181 l 743 -276 q 615 -297 678 -297 q 492 -266 540 -297 q 444 -171 444 -235 q 447 -143 444 -162 q 488 -58 456 -97 q 582 18 519 -18 l 600 113 q 481 23 554 58 q 322 -12 408 -12 q 172 26 238 -12 q 71 134 107 64 q 35 297 35 204 q 43 388 35 340 q 126 594 64 504 q 276 733 188 685 q 464 782 365 782 q 609 747 550 782 q 696 660 668 713 l 715 769 l 911 769 l 775 0 l 704 -33 m 404 158 q 510 185 458 158 q 598 264 561 213 q 647 385 635 315 q 653 438 653 421 q 605 565 653 519 q 485 611 557 611 q 380 585 431 611 q 292 508 329 558 q 242 388 254 457 q 238 338 238 361 q 285 206 238 254 q 404 158 332 158 z "},"Ć":{"ha":1067,"x_min":56,"x_max":1043,"o":"m 64 486 q 173 742 89 629 q 380 919 257 856 q 642 982 503 982 q 913 899 804 982 q 1043 668 1021 815 l 819 668 q 743 769 797 735 q 610 803 689 803 q 452 764 525 803 q 330 653 379 725 q 264 486 281 581 q 257 413 257 442 q 322 235 257 300 q 497 169 386 169 q 643 204 576 169 q 756 306 710 239 l 979 306 q 767 74 904 157 q 468 -8 631 -8 q 252 41 346 -8 q 107 181 158 90 q 56 388 56 271 q 64 486 56 436 m 822 1171 l 475 1025 l 500 1164 l 850 1329 l 822 1171 z "},"ć":{"ha":836,"x_min":35,"x_max":808,"o":"m 43 385 q 128 594 64 504 q 287 733 192 683 q 493 782 382 782 q 717 711 636 782 q 808 510 799 640 l 599 510 q 556 588 590 560 q 463 617 521 617 q 320 556 379 617 q 242 385 261 496 q 235 318 235 346 q 274 197 235 239 q 382 154 313 154 q 554 260 499 154 l 764 260 q 602 61 710 135 q 354 -12 494 -12 q 122 70 208 -12 q 35 294 35 153 q 43 385 35 338 m 669 969 l 322 824 l 347 963 l 697 1128 l 669 969 z "},"Ċ":{"ha":1067,"x_min":56,"x_max":1043,"o":"m 64 486 q 173 742 89 629 q 380 919 257 856 q 642 982 503 982 q 913 899 804 982 q 1043 668 1021 815 l 819 668 q 743 769 797 735 q 610 803 689 803 q 452 764 525 803 q 330 653 379 725 q 264 486 281 581 q 257 413 257 442 q 322 235 257 300 q 497 169 386 169 q 643 204 576 169 q 756 306 710 239 l 979 306 q 767 74 904 157 q 468 -8 631 -8 q 252 41 346 -8 q 107 181 158 90 q 56 388 56 271 q 64 486 56 436 m 650 1063 q 594 1083 615 1063 q 572 1136 572 1104 q 605 1214 572 1181 q 682 1247 638 1247 q 738 1226 717 1247 q 758 1172 758 1206 q 726 1095 758 1128 q 650 1063 693 1063 z "},"ċ":{"ha":836,"x_min":35,"x_max":808,"o":"m 43 385 q 128 594 64 504 q 287 733 192 683 q 493 782 382 782 q 717 711 636 782 q 808 510 799 640 l 599 510 q 556 588 590 560 q 463 617 521 617 q 320 556 379 617 q 242 385 261 496 q 235 318 235 346 q 274 197 235 239 q 382 154 313 154 q 554 260 499 154 l 764 260 q 602 61 710 135 q 354 -12 494 -12 q 122 70 208 -12 q 35 294 35 153 q 43 385 35 338 m 497 861 q 441 882 463 861 q 419 935 419 903 q 452 1013 419 979 q 529 1046 485 1046 q 585 1025 564 1046 q 606 971 606 1004 q 573 894 606 926 q 497 861 540 861 z "},"Č":{"ha":1067,"x_min":56,"x_max":1043,"o":"m 64 486 q 173 742 89 629 q 380 919 257 856 q 642 982 503 982 q 913 899 804 982 q 1043 668 1021 815 l 819 668 q 743 769 797 735 q 610 803 689 803 q 452 764 525 803 q 330 653 379 725 q 264 486 281 581 q 257 413 257 442 q 322 235 257 300 q 497 169 386 169 q 643 204 576 169 q 756 306 710 239 l 979 306 q 767 74 904 157 q 468 -8 631 -8 q 252 41 346 -8 q 107 181 158 90 q 56 388 56 271 q 64 486 56 436 m 871 1144 l 643 1028 l 457 1144 l 483 1286 l 668 1167 l 896 1286 l 871 1144 z "},"č":{"ha":836,"x_min":35,"x_max":808,"o":"m 43 385 q 128 594 64 504 q 287 733 192 683 q 493 782 382 782 q 717 711 636 782 q 808 510 799 640 l 599 510 q 556 588 590 560 q 463 617 521 617 q 320 556 379 617 q 242 385 261 496 q 235 318 235 346 q 274 197 235 239 q 382 154 313 154 q 554 260 499 154 l 764 260 q 602 61 710 135 q 354 -12 494 -12 q 122 70 208 -12 q 35 294 35 153 q 43 385 35 338 m 718 943 l 490 826 l 304 943 l 331 1085 l 515 965 l 743 1085 l 718 943 z "},"Ď":{"ha":996,"x_min":24,"x_max":969,"o":"m 535 969 q 767 923 669 969 q 917 790 865 876 q 969 586 969 704 q 960 483 969 533 q 852 228 935 338 q 643 60 769 119 q 363 0 517 0 l 24 0 l 196 969 l 535 969 m 385 158 q 635 244 538 158 q 761 483 733 331 q 768 563 768 529 q 699 743 768 679 q 499 807 631 807 l 363 807 l 249 158 l 385 158 m 832 1144 l 604 1028 l 418 1144 l 444 1286 l 629 1167 l 857 1286 l 832 1144 z "},"ď":{"ha":1119,"x_min":35,"x_max":1196,"o":"m 43 388 q 126 594 64 504 q 277 733 188 685 q 465 782 367 782 q 603 749 540 782 q 696 663 665 717 l 761 1028 l 957 1028 l 775 0 l 579 0 l 600 114 q 483 22 554 57 q 325 -12 411 -12 q 174 26 240 -12 q 72 134 108 64 q 35 297 35 204 q 43 388 35 340 m 1192 1028 q 1196 957 1196 990 q 1189 878 1196 919 q 1120 738 1174 788 q 981 688 1067 688 l 994 767 q 1079 850 1065 767 l 1085 876 l 1004 876 l 1031 1028 l 1192 1028 m 647 385 q 653 438 653 421 q 605 565 653 519 q 485 611 557 611 q 380 585 431 611 q 292 508 329 558 q 242 388 254 457 q 238 338 238 361 q 285 206 238 254 q 404 158 332 158 q 510 185 458 158 q 598 264 561 213 q 647 385 635 315 z "},"Đ":{"ha":1008,"x_min":8,"x_max":982,"o":"m 547 969 q 780 923 682 969 q 930 790 878 876 q 982 585 982 703 q 972 483 982 547 q 864 228 946 338 q 656 60 782 119 q 375 0 529 0 l 36 0 l 107 399 l 8 399 l 39 568 l 136 568 l 207 969 l 547 969 m 772 483 q 779 564 779 518 q 710 743 779 679 q 511 807 642 807 l 375 807 l 333 568 l 564 568 l 533 399 l 303 399 l 261 158 l 397 158 q 647 244 549 158 q 772 483 746 331 z "},"đ":{"ha":950,"x_min":35,"x_max":1022,"o":"m 1004 819 l 919 819 l 775 0 l 579 0 l 600 114 q 483 22 554 57 q 325 -12 411 -12 q 174 26 240 -12 q 72 134 108 64 q 35 297 35 204 q 43 388 35 340 q 126 594 64 504 q 277 733 188 685 q 465 782 367 782 q 603 749 540 782 q 696 663 665 717 l 724 819 l 618 819 l 636 922 l 742 922 l 761 1028 l 957 1028 l 939 922 l 1022 922 l 1004 819 m 647 385 q 653 438 653 421 q 605 565 653 519 q 485 611 557 611 q 380 585 431 611 q 292 508 329 558 q 242 388 254 457 q 238 338 238 361 q 285 206 238 254 q 404 158 332 158 q 510 185 458 158 q 598 264 561 213 q 647 385 635 315 z "},"Ē":{"ha":739,"x_min":24,"x_max":781,"o":"m 364 818 l 319 567 l 646 567 l 619 417 l 293 417 l 247 154 l 615 154 l 588 0 l 24 0 l 196 971 l 758 971 l 732 818 l 364 818 m 781 1218 l 756 1079 l 225 1079 l 250 1218 l 781 1218 z "},"ē":{"ha":857,"x_min":35,"x_max":818,"o":"m 499 782 q 732 701 646 782 q 818 482 818 619 q 811 403 818 438 q 793 331 803 361 l 231 331 q 229 303 229 321 q 272 190 229 231 q 383 149 314 149 q 484 174 442 149 q 553 242 526 200 l 763 242 q 603 59 711 131 q 360 -12 496 -12 q 124 71 213 -12 q 35 297 35 154 q 43 385 35 339 q 128 594 64 504 q 289 733 193 685 q 499 782 385 782 m 618 449 q 621 481 621 471 q 578 585 621 547 q 465 622 535 622 q 333 576 392 622 q 251 449 275 529 l 618 449 m 807 1017 l 782 878 l 251 878 l 276 1017 l 807 1017 z "},"Ĕ":{"ha":739,"x_min":24,"x_max":758,"o":"m 364 818 l 319 567 l 646 567 l 619 417 l 293 417 l 247 154 l 615 154 l 588 0 l 24 0 l 196 971 l 758 971 l 732 818 l 364 818 m 744 1258 q 657 1101 726 1158 q 485 1043 588 1043 q 347 1088 397 1043 q 297 1211 297 1132 q 301 1258 297 1233 l 307 1288 l 410 1288 q 407 1261 407 1268 q 431 1208 407 1226 q 511 1190 456 1190 q 607 1215 576 1190 q 646 1288 638 1239 l 750 1288 l 744 1258 z "},"ĕ":{"ha":857,"x_min":35,"x_max":818,"o":"m 499 782 q 732 701 646 782 q 818 482 818 619 q 811 403 818 438 q 793 331 803 361 l 231 331 q 229 303 229 321 q 272 190 229 231 q 383 149 314 149 q 484 174 442 149 q 553 242 526 200 l 763 242 q 603 59 711 131 q 360 -12 496 -12 q 124 71 213 -12 q 35 297 35 154 q 43 385 35 339 q 128 594 64 504 q 289 733 193 685 q 499 782 385 782 m 618 449 q 621 481 621 471 q 578 585 621 547 q 465 622 535 622 q 333 576 392 622 q 251 449 275 529 l 618 449 m 771 1057 q 683 899 753 957 q 511 842 614 842 q 374 886 424 842 q 324 1010 324 931 q 328 1057 324 1032 l 333 1086 l 436 1086 q 433 1060 433 1067 q 458 1007 433 1025 q 538 989 482 989 q 633 1013 603 989 q 672 1086 664 1038 l 776 1086 l 771 1057 z "},"Ė":{"ha":739,"x_min":24,"x_max":758,"o":"m 364 818 l 319 567 l 646 567 l 619 417 l 293 417 l 247 154 l 615 154 l 588 0 l 24 0 l 196 971 l 758 971 l 732 818 l 364 818 m 488 1063 q 431 1083 453 1063 q 410 1136 410 1104 q 442 1214 410 1181 q 519 1247 475 1247 q 575 1226 554 1247 q 596 1172 596 1206 q 563 1095 596 1128 q 488 1063 531 1063 z "},"ė":{"ha":857,"x_min":35,"x_max":818,"o":"m 499 782 q 732 701 646 782 q 818 482 818 619 q 811 403 818 438 q 793 331 803 361 l 231 331 q 229 303 229 321 q 272 190 229 231 q 383 149 314 149 q 484 174 442 149 q 553 242 526 200 l 763 242 q 603 59 711 131 q 360 -12 496 -12 q 124 71 213 -12 q 35 297 35 154 q 43 385 35 339 q 128 594 64 504 q 289 733 193 685 q 499 782 385 782 m 618 449 q 621 481 621 471 q 578 585 621 547 q 465 622 535 622 q 333 576 392 622 q 251 449 275 529 l 618 449 m 515 861 q 459 882 481 861 q 438 935 438 903 q 470 1013 438 979 q 547 1046 503 1046 q 603 1025 582 1046 q 624 971 624 1004 q 591 894 624 926 q 515 861 558 861 z "},"Ę":{"ha":739,"x_min":24,"x_max":758,"o":"m 364 818 l 319 567 l 646 567 l 619 417 l 293 417 l 247 154 l 615 154 l 588 0 l 517 -33 q 442 -78 465 -57 q 414 -125 419 -100 q 426 -165 410 -150 q 474 -181 442 -181 q 575 -160 518 -181 l 556 -276 q 428 -297 490 -297 q 305 -266 353 -297 q 257 -171 257 -235 q 260 -143 257 -162 q 365 0 275 -61 l 24 0 l 196 971 l 758 971 l 732 818 l 364 818 z "},"ę":{"ha":857,"x_min":35,"x_max":818,"o":"m 499 782 q 732 701 646 782 q 818 482 818 619 q 811 403 818 438 q 793 331 803 361 l 231 331 q 229 303 229 321 q 272 190 229 231 q 383 149 314 149 q 484 174 442 149 q 553 242 526 200 l 763 242 q 647 91 722 156 q 474 1 572 26 l 438 -15 q 363 -60 386 -39 q 335 -107 340 -82 q 347 -147 331 -132 q 394 -162 363 -162 q 496 -142 440 -162 l 476 -258 q 349 -279 411 -279 q 226 -248 274 -279 q 178 -153 178 -217 q 261 -1 178 -65 q 95 103 156 25 q 35 297 35 182 q 43 385 35 339 q 128 594 64 504 q 289 733 193 685 q 499 782 385 782 m 618 449 q 621 481 621 471 q 578 585 621 547 q 465 622 535 622 q 333 576 392 622 q 251 449 275 529 l 618 449 z "},"Ě":{"ha":739,"x_min":24,"x_max":758,"o":"m 364 818 l 319 567 l 646 567 l 619 417 l 293 417 l 247 154 l 615 154 l 588 0 l 24 0 l 196 971 l 758 971 l 732 818 l 364 818 m 708 1144 l 481 1028 l 294 1144 l 321 1286 l 506 1167 l 733 1286 l 708 1144 z "},"ě":{"ha":857,"x_min":35,"x_max":818,"o":"m 499 782 q 732 701 646 782 q 818 482 818 619 q 811 403 818 438 q 793 331 803 361 l 231 331 q 229 303 229 321 q 272 190 229 231 q 383 149 314 149 q 484 174 442 149 q 553 242 526 200 l 763 242 q 603 59 711 131 q 360 -12 496 -12 q 124 71 213 -12 q 35 297 35 154 q 43 385 35 339 q 128 594 64 504 q 289 733 193 685 q 499 782 385 782 m 618 449 q 621 481 621 471 q 578 585 621 547 q 465 622 535 622 q 333 576 392 622 q 251 449 275 529 l 618 449 m 736 943 l 508 826 l 322 943 l 349 1085 l 533 965 l 761 1085 l 736 943 z "},"Ğ":{"ha":1067,"x_min":56,"x_max":1043,"o":"m 64 486 q 174 742 89 629 q 382 919 258 856 q 644 982 506 982 q 915 902 808 982 q 1043 678 1021 822 l 819 678 q 744 771 797 739 q 614 803 692 803 q 454 764 528 803 q 331 653 381 725 q 264 486 281 581 q 257 410 257 453 q 324 231 257 296 q 510 167 392 167 q 702 226 619 167 q 825 392 785 286 l 492 392 l 517 539 l 1042 539 l 1011 369 q 894 182 974 268 q 706 44 815 96 q 471 -8 596 -8 q 253 42 347 -8 q 108 181 160 92 q 56 389 56 271 q 64 486 56 436 m 906 1258 q 818 1101 888 1158 q 646 1043 749 1043 q 508 1088 558 1043 q 458 1211 458 1132 q 463 1258 458 1233 l 468 1288 l 571 1288 q 568 1261 568 1268 q 592 1208 568 1226 q 672 1190 617 1190 q 768 1215 738 1190 q 807 1288 799 1239 l 911 1288 l 906 1258 z "},"ğ":{"ha":942,"x_min":-17,"x_max":911,"o":"m 464 782 q 610 748 550 782 q 696 660 671 714 l 715 769 l 911 769 l 775 -6 q 697 -197 756 -112 q 544 -330 639 -281 q 328 -379 450 -379 q 74 -303 165 -379 q -8 -94 -17 -226 l 185 -94 q 235 -178 190 -147 q 353 -210 281 -210 q 499 -159 439 -210 q 579 -6 560 -108 l 600 114 q 481 24 553 60 q 325 -12 410 -12 q 174 26 240 -12 q 72 134 108 64 q 35 297 35 204 q 43 388 35 340 q 126 594 64 504 q 276 733 188 685 q 464 782 365 782 m 647 385 q 653 438 653 421 q 605 565 653 519 q 485 611 557 611 q 380 585 431 611 q 292 508 329 558 q 242 388 254 457 q 238 338 238 361 q 285 206 238 254 q 404 158 332 158 q 510 185 458 158 q 598 264 561 213 q 647 385 635 315 m 811 1057 q 724 899 793 957 q 551 842 654 842 q 414 886 464 842 q 364 1010 364 931 q 368 1057 364 1032 l 374 1086 l 476 1086 q 474 1060 474 1067 q 498 1007 474 1025 q 578 989 522 989 q 674 1013 643 989 q 713 1086 704 1038 l 817 1086 l 811 1057 z "},"Ġ":{"ha":1067,"x_min":56,"x_max":1043,"o":"m 64 486 q 174 742 89 629 q 382 919 258 856 q 644 982 506 982 q 915 902 808 982 q 1043 678 1021 822 l 819 678 q 744 771 797 739 q 614 803 692 803 q 454 764 528 803 q 331 653 381 725 q 264 486 281 581 q 257 410 257 453 q 324 231 257 296 q 510 167 392 167 q 702 226 619 167 q 825 392 785 286 l 492 392 l 517 539 l 1042 539 l 1011 369 q 894 182 974 268 q 706 44 815 96 q 471 -8 596 -8 q 253 42 347 -8 q 108 181 160 92 q 56 389 56 271 q 64 486 56 436 m 650 1063 q 594 1083 615 1063 q 572 1136 572 1104 q 605 1214 572 1181 q 682 1247 638 1247 q 738 1226 717 1247 q 758 1172 758 1206 q 726 1095 758 1128 q 650 1063 693 1063 z "},"ġ":{"ha":942,"x_min":-17,"x_max":911,"o":"m 464 782 q 610 748 550 782 q 696 660 671 714 l 715 769 l 911 769 l 775 -6 q 697 -197 756 -112 q 544 -330 639 -281 q 328 -379 450 -379 q 74 -303 165 -379 q -8 -94 -17 -226 l 185 -94 q 235 -178 190 -147 q 353 -210 281 -210 q 499 -159 439 -210 q 579 -6 560 -108 l 600 114 q 481 24 553 60 q 325 -12 410 -12 q 174 26 240 -12 q 72 134 108 64 q 35 297 35 204 q 43 388 35 340 q 126 594 64 504 q 276 733 188 685 q 464 782 365 782 m 647 385 q 653 438 653 421 q 605 565 653 519 q 485 611 557 611 q 380 585 431 611 q 292 508 329 558 q 242 388 254 457 q 238 338 238 361 q 285 206 238 254 q 404 158 332 158 q 510 185 458 158 q 598 264 561 213 q 647 385 635 315 m 554 861 q 498 882 519 861 q 476 935 476 903 q 509 1013 476 979 q 586 1046 542 1046 q 642 1025 621 1046 q 663 971 663 1004 q 630 894 663 926 q 554 861 597 861 z "},"Ģ":{"ha":1068,"x_min":56,"x_max":1043,"o":"m 64 486 q 174 742 89 629 q 382 919 258 856 q 644 982 506 982 q 915 902 808 982 q 1043 678 1021 822 l 819 678 q 744 771 797 739 q 614 803 692 803 q 454 764 528 803 q 331 653 381 725 q 264 486 281 581 q 257 410 257 453 q 324 231 257 296 q 510 167 392 167 q 702 226 619 167 q 825 392 785 286 l 492 392 l 517 539 l 1042 539 l 1011 369 q 894 182 974 268 q 706 44 815 96 q 471 -8 596 -8 q 253 42 347 -8 q 108 181 160 92 q 56 389 56 271 q 64 486 56 436 m 529 -60 q 533 -132 533 -97 q 526 -210 533 -168 q 457 -351 510 -301 q 318 -401 404 -401 l 332 -322 q 417 -236 403 -322 l 421 -211 l 340 -211 l 368 -60 l 529 -60 z "},"ģ":{"ha":942,"x_min":-17,"x_max":911,"o":"m 476 829 q 472 893 472 863 q 479 979 472 935 q 549 1121 496 1071 q 686 1171 601 1171 l 672 1092 q 589 1007 603 1092 l 585 982 l 664 982 l 638 829 l 476 829 m 464 782 q 610 748 550 782 q 696 660 671 714 l 715 769 l 911 769 l 775 -6 q 697 -197 756 -112 q 544 -330 639 -281 q 328 -379 450 -379 q 74 -303 165 -379 q -8 -94 -17 -226 l 185 -94 q 235 -178 190 -147 q 353 -210 281 -210 q 499 -159 439 -210 q 579 -6 560 -108 l 600 114 q 481 24 553 60 q 325 -12 410 -12 q 174 26 240 -12 q 72 134 108 64 q 35 297 35 204 q 43 388 35 340 q 126 594 64 504 q 276 733 188 685 q 464 782 365 782 m 647 385 q 653 438 653 421 q 605 565 653 519 q 485 611 557 611 q 380 585 431 611 q 292 508 329 558 q 242 388 254 457 q 238 338 238 361 q 285 206 238 254 q 404 158 332 158 q 510 185 458 158 q 598 264 561 213 q 647 385 635 315 z "},"Ĩ":{"ha":386,"x_min":24,"x_max":597,"o":"m 390 969 l 219 0 l 24 0 l 196 969 l 390 969 m 57 1047 q 140 1184 86 1139 q 263 1229 193 1229 q 311 1220 290 1229 q 356 1194 332 1211 q 390 1174 375 1181 q 421 1168 404 1168 q 493 1228 474 1168 l 597 1228 q 514 1091 567 1136 q 392 1046 461 1046 q 343 1055 363 1046 q 297 1081 324 1064 q 263 1101 278 1094 q 232 1108 249 1108 q 161 1047 182 1108 l 57 1047 z "},"ĩ":{"ha":403,"x_min":31,"x_max":571,"o":"m 364 769 l 228 0 l 32 0 l 168 769 l 364 769 m 31 846 q 113 983 60 938 q 236 1028 167 1028 q 285 1019 264 1028 q 329 993 306 1010 q 363 973 349 979 q 394 967 378 967 q 467 1026 447 967 l 571 1026 q 488 890 540 935 q 365 844 435 844 q 317 853 336 844 q 271 879 297 863 q 237 900 251 893 q 206 907 222 907 q 135 846 156 907 l 31 846 z "},"Ī":{"ha":386,"x_min":24,"x_max":604,"o":"m 390 969 l 219 0 l 24 0 l 196 969 l 390 969 m 604 1218 l 579 1079 l 49 1079 l 74 1218 l 604 1218 z "},"ī":{"ha":403,"x_min":21,"x_max":576,"o":"m 364 769 l 228 0 l 32 0 l 168 769 l 364 769 m 576 1017 l 551 878 l 21 878 l 46 1017 l 576 1017 z "},"Ĭ":{"ha":386,"x_min":24,"x_max":572,"o":"m 390 969 l 219 0 l 24 0 l 196 969 l 390 969 m 567 1258 q 479 1101 549 1158 q 307 1043 410 1043 q 169 1088 219 1043 q 119 1211 119 1132 q 124 1258 119 1233 l 129 1288 l 232 1288 q 229 1261 229 1268 q 253 1208 229 1226 q 333 1190 278 1190 q 429 1215 399 1190 q 468 1288 460 1239 l 572 1288 l 567 1258 z "},"ĭ":{"ha":403,"x_min":32,"x_max":544,"o":"m 364 769 l 228 0 l 32 0 l 168 769 l 364 769 m 539 1057 q 451 899 521 957 q 279 842 382 842 q 142 886 192 842 q 92 1010 92 931 q 96 1057 92 1032 l 101 1086 l 204 1086 q 201 1060 201 1067 q 226 1007 201 1025 q 306 989 250 989 q 401 1013 371 989 q 440 1086 432 1038 l 544 1086 l 539 1057 z "},"Į":{"ha":386,"x_min":-110,"x_max":390,"o":"m 221 1 l 219 1 l 219 0 l 218 0 l 150 -32 q 76 -77 99 -56 q 47 -124 53 -99 q 59 -164 43 -149 q 107 -179 75 -179 q 208 -158 151 -179 l 189 -275 q 61 -296 124 -296 q -62 -265 -14 -296 q -110 -169 -110 -233 q -107 -142 -110 -161 q -67 -58 -99 -97 q 26 19 -36 -18 l 196 969 l 390 969 l 219 4 l 221 1 z "},"į":{"ha":386,"x_min":-110,"x_max":415,"o":"m 315 1089 q 388 1063 360 1089 q 415 996 415 1036 q 374 901 415 940 q 275 861 332 861 q 201 888 229 861 q 174 954 174 914 q 216 1049 174 1010 q 315 1089 258 1089 m 356 769 l 219 4 l 221 1 l 219 1 l 219 0 l 218 0 l 150 -32 q 76 -77 99 -56 q 47 -124 53 -99 q 59 -164 43 -149 q 107 -179 75 -179 q 208 -158 151 -179 l 189 -275 q 61 -296 124 -296 q -62 -265 -14 -296 q -110 -169 -110 -233 q -107 -142 -110 -161 q -67 -58 -99 -97 q 26 19 -36 -18 l 160 769 l 356 769 z "},"İ":{"ha":386,"x_min":24,"x_max":419,"o":"m 390 969 l 219 0 l 24 0 l 196 969 l 390 969 m 311 1063 q 255 1083 276 1063 q 233 1136 233 1104 q 266 1214 233 1181 q 343 1247 299 1247 q 399 1226 378 1247 q 419 1172 419 1206 q 387 1095 419 1128 q 311 1063 354 1063 z "},"ı":{"ha":403,"x_min":32,"x_max":364,"o":"m 364 769 l 228 0 l 32 0 l 168 769 l 364 769 z "},"Ķ":{"ha":935,"x_min":24,"x_max":978,"o":"m 493 489 l 818 0 l 571 0 l 296 432 l 219 0 l 24 0 l 196 969 l 390 969 l 314 535 l 743 969 l 978 969 l 493 489 m 463 -60 q 467 -129 467 -96 q 460 -210 467 -168 q 391 -351 443 -301 q 253 -401 339 -401 l 267 -322 q 351 -236 335 -322 l 354 -211 l 275 -211 l 301 -60 l 463 -60 z "},"ķ":{"ha":811,"x_min":24,"x_max":867,"o":"m 460 385 l 732 0 l 481 0 l 278 326 l 219 0 l 24 0 l 206 1028 l 401 1028 l 299 444 l 613 769 l 867 769 l 460 385 m 403 -60 q 406 -124 406 -82 q 399 -210 406 -176 q 329 -351 382 -301 q 192 -401 276 -401 l 206 -322 q 290 -236 276 -322 l 294 -211 l 214 -211 l 242 -60 l 403 -60 z "},"Ĺ":{"ha":638,"x_min":24,"x_max":628,"o":"m 246 149 l 565 149 l 539 0 l 24 0 l 196 969 l 390 969 l 246 149 m 600 1171 l 253 1025 l 278 1164 l 628 1329 l 600 1171 z "},"ĺ":{"ha":386,"x_min":24,"x_max":519,"o":"m 401 1028 l 219 0 l 24 0 l 206 1028 l 401 1028 m 492 1228 l 144 1082 l 169 1221 l 519 1386 l 492 1228 z "},"Ļ":{"ha":639,"x_min":24,"x_max":565,"o":"m 246 149 l 565 149 l 539 0 l 24 0 l 196 969 l 390 969 l 246 149 m 353 -60 q 358 -126 358 -92 q 350 -210 358 -157 q 282 -351 335 -301 q 142 -401 229 -401 l 157 -322 q 213 -301 192 -322 q 242 -236 233 -281 l 246 -211 l 165 -211 l 192 -60 l 353 -60 z "},"ļ":{"ha":386,"x_min":-21,"x_max":401,"o":"m 401 1028 l 219 0 l 24 0 l 206 1028 l 401 1028 m 190 -60 q 194 -129 194 -96 q 188 -210 194 -168 q 119 -351 172 -301 q -21 -401 65 -401 l -6 -322 q 50 -301 29 -322 q 79 -236 71 -281 l 83 -211 l 3 -211 l 29 -60 l 190 -60 z "},"Ľ":{"ha":682,"x_min":24,"x_max":701,"o":"m 246 149 l 565 149 l 539 0 l 24 0 l 196 969 l 390 969 l 246 149 m 699 969 q 701 907 701 947 q 694 821 701 854 q 626 679 679 729 q 488 629 574 629 l 501 708 q 586 793 572 708 l 590 819 l 510 819 l 538 969 l 699 969 z "},"ľ":{"ha":624,"x_min":24,"x_max":665,"o":"m 401 1028 l 219 0 l 24 0 l 206 1028 l 401 1028 m 663 1028 q 665 965 665 1006 q 658 878 665 913 q 590 737 643 786 q 451 688 538 688 l 465 767 q 550 850 533 767 l 554 876 l 475 876 l 501 1028 l 663 1028 z "},"Ŀ":{"ha":638,"x_min":24,"x_max":625,"o":"m 196 969 l 390 969 l 246 149 l 565 149 l 539 0 l 24 0 l 196 969 m 515 429 q 459 451 481 429 q 438 506 438 472 q 471 581 438 549 q 547 614 504 614 q 603 593 582 614 q 625 539 625 572 q 592 462 625 494 q 515 429 558 429 z "},"ŀ":{"ha":485,"x_min":24,"x_max":551,"o":"m 206 1028 l 401 1028 l 219 0 l 24 0 l 206 1028 m 442 422 q 385 443 407 422 q 364 497 364 464 q 397 574 364 542 q 474 606 429 606 q 530 584 508 606 q 551 531 551 563 q 518 454 551 486 q 442 422 485 422 z "},"Ł":{"ha":643,"x_min":4,"x_max":582,"o":"m 582 149 l 556 0 l 40 0 l 108 382 l 4 351 l 36 535 l 140 565 l 213 969 l 408 969 l 349 628 l 476 665 l 444 481 l 315 443 l 264 149 l 582 149 z "},"ł":{"ha":403,"x_min":3,"x_max":436,"o":"m 403 469 l 306 440 l 228 0 l 32 0 l 99 376 l 3 347 l 36 532 l 131 561 l 214 1028 l 410 1028 l 338 624 l 436 653 l 403 469 z "},"Ń":{"ha":1021,"x_min":24,"x_max":1025,"o":"m 854 0 l 658 0 l 338 665 l 219 0 l 24 0 l 196 971 l 390 971 l 713 304 l 831 971 l 1025 971 l 854 0 m 800 1171 l 453 1025 l 478 1164 l 828 1329 l 800 1171 z "},"ń":{"ha":918,"x_min":24,"x_max":844,"o":"m 588 781 q 776 716 707 781 q 844 532 844 651 q 838 451 844 488 l 757 0 l 564 0 l 639 425 q 643 474 643 450 q 606 579 643 543 q 501 615 569 615 q 369 569 424 615 q 296 435 314 522 l 219 0 l 24 0 l 160 769 l 356 769 l 339 675 q 451 752 386 724 q 588 781 517 781 m 735 969 l 388 824 l 413 963 l 763 1128 l 735 969 z "},"Ņ":{"ha":1038,"x_min":24,"x_max":1025,"o":"m 854 0 l 658 0 l 338 665 l 219 0 l 24 0 l 196 971 l 390 971 l 713 304 l 831 971 l 1025 971 l 854 0 m 514 -60 q 518 -129 518 -96 q 511 -210 518 -168 q 443 -351 496 -301 q 304 -401 390 -401 l 318 -322 q 374 -301 353 -322 q 403 -236 394 -281 l 406 -211 l 326 -211 l 353 -60 l 514 -60 z "},"ņ":{"ha":918,"x_min":24,"x_max":844,"o":"m 588 781 q 776 716 707 781 q 844 532 844 651 q 838 451 844 488 l 757 0 l 564 0 l 639 425 q 643 474 643 450 q 606 579 643 543 q 501 615 569 615 q 369 569 424 615 q 296 435 314 522 l 219 0 l 24 0 l 160 769 l 356 769 l 339 675 q 451 752 386 724 q 588 781 517 781 m 463 -60 q 467 -124 467 -93 q 460 -210 467 -165 q 390 -351 443 -301 q 253 -401 338 -401 l 267 -322 q 350 -236 336 -322 l 354 -211 l 274 -211 l 301 -60 l 463 -60 z "},"Ň":{"ha":1021,"x_min":24,"x_max":1025,"o":"m 854 0 l 658 0 l 338 665 l 219 0 l 24 0 l 196 971 l 390 971 l 713 304 l 831 971 l 1025 971 l 854 0 m 849 1144 l 621 1028 l 435 1144 l 461 1286 l 646 1167 l 874 1286 l 849 1144 z "},"ň":{"ha":918,"x_min":24,"x_max":844,"o":"m 588 781 q 776 716 707 781 q 844 532 844 651 q 838 451 844 488 l 757 0 l 564 0 l 639 425 q 643 474 643 450 q 606 579 643 543 q 501 615 569 615 q 369 569 424 615 q 296 435 314 522 l 219 0 l 24 0 l 160 769 l 356 769 l 339 675 q 451 752 386 724 q 588 781 517 781 m 783 943 l 556 826 l 369 943 l 396 1085 l 581 965 l 808 1085 l 783 943 z "},"Ō":{"ha":1090,"x_min":65,"x_max":1054,"o":"m 478 -10 q 262 42 356 -10 q 117 187 168 94 q 65 399 65 279 q 140 699 65 565 q 345 908 214 832 q 640 983 476 983 q 858 932 764 983 q 1003 788 951 881 q 1054 578 1054 696 q 981 275 1054 408 q 775 66 907 142 q 478 -10 643 -10 m 506 169 q 690 222 610 169 q 813 365 769 275 q 857 560 857 454 q 793 739 857 674 q 614 804 729 804 q 431 751 511 804 q 308 610 351 699 q 264 415 264 521 q 327 235 264 301 q 506 169 390 169 m 953 1228 l 928 1089 l 397 1089 l 422 1228 l 953 1228 z "},"ō":{"ha":886,"x_min":35,"x_max":843,"o":"m 368 -12 q 194 28 269 -12 q 76 142 118 68 q 35 311 35 215 q 97 549 35 442 q 266 719 158 657 q 506 782 374 782 q 681 741 604 782 q 801 626 758 700 q 843 457 843 553 q 781 218 843 325 q 609 49 718 111 q 368 -12 500 -12 m 394 154 q 521 194 464 154 q 610 301 578 235 q 642 442 642 368 q 595 570 642 525 q 478 615 549 615 q 352 575 407 615 q 267 467 297 535 q 236 325 236 400 q 280 199 236 243 q 394 154 324 154 m 815 1029 l 790 890 l 260 890 l 285 1029 l 815 1029 z "},"Ŏ":{"ha":1090,"x_min":65,"x_max":1054,"o":"m 478 -10 q 262 42 356 -10 q 117 187 168 94 q 65 399 65 279 q 140 699 65 565 q 345 908 214 832 q 640 983 476 983 q 858 932 764 983 q 1003 788 951 881 q 1054 578 1054 696 q 981 275 1054 408 q 775 66 907 142 q 478 -10 643 -10 m 506 169 q 690 222 610 169 q 813 365 769 275 q 857 560 857 454 q 793 739 857 674 q 614 804 729 804 q 431 751 511 804 q 308 610 351 699 q 264 415 264 521 q 327 235 264 301 q 506 169 390 169 m 915 1268 q 828 1110 897 1168 q 656 1053 758 1053 q 518 1097 568 1053 q 468 1221 468 1142 q 472 1268 468 1243 l 478 1297 l 581 1297 q 578 1271 578 1278 q 602 1218 578 1236 q 682 1200 626 1200 q 778 1224 747 1200 q 817 1297 808 1249 l 921 1297 l 915 1268 z "},"ŏ":{"ha":886,"x_min":35,"x_max":843,"o":"m 368 -12 q 194 28 269 -12 q 76 142 118 68 q 35 311 35 215 q 97 549 35 442 q 266 719 158 657 q 506 782 374 782 q 681 741 604 782 q 801 626 758 700 q 843 457 843 553 q 781 218 843 325 q 609 49 718 111 q 368 -12 500 -12 m 394 154 q 521 194 464 154 q 610 301 578 235 q 642 442 642 368 q 595 570 642 525 q 478 615 549 615 q 352 575 407 615 q 267 467 297 535 q 236 325 236 400 q 280 199 236 243 q 394 154 324 154 m 779 1069 q 692 912 761 969 q 519 854 622 854 q 382 899 432 854 q 332 1022 332 943 q 336 1069 332 1044 l 342 1099 l 444 1099 q 442 1072 442 1079 q 466 1019 442 1038 q 546 1001 490 1001 q 642 1026 611 1001 q 681 1099 672 1050 l 785 1099 l 779 1069 z "},"Ő":{"ha":1090,"x_min":65,"x_max":1054,"o":"m 478 -10 q 262 42 356 -10 q 117 187 168 94 q 65 399 65 279 q 140 699 65 565 q 345 908 214 832 q 640 983 476 983 q 858 932 764 983 q 1003 788 951 881 q 1054 578 1054 696 q 981 275 1054 408 q 775 66 907 142 q 478 -10 643 -10 m 506 169 q 690 222 610 169 q 813 365 769 275 q 857 560 857 454 q 793 739 857 674 q 614 804 729 804 q 431 751 511 804 q 308 610 351 699 q 264 415 264 521 q 327 235 264 301 q 506 169 390 169 m 578 1046 l 454 1046 l 600 1307 l 761 1307 l 578 1046 m 824 1046 l 700 1046 l 871 1307 l 1031 1307 l 824 1046 z "},"ő":{"ha":886,"x_min":35,"x_max":894,"o":"m 368 -12 q 194 28 269 -12 q 76 142 118 68 q 35 311 35 215 q 97 549 35 442 q 266 719 158 657 q 506 782 374 782 q 681 741 604 782 q 801 626 758 700 q 843 457 843 553 q 781 218 843 325 q 609 49 718 111 q 368 -12 500 -12 m 394 154 q 521 194 464 154 q 610 301 578 235 q 642 442 642 368 q 595 570 642 525 q 478 615 549 615 q 352 575 407 615 q 267 467 297 535 q 236 325 236 400 q 280 199 236 243 q 394 154 324 154 m 442 847 l 318 847 l 464 1108 l 625 1108 l 442 847 m 688 847 l 564 847 l 735 1108 l 894 1108 l 688 847 z "},"Œ":{"ha":1494,"x_min":63,"x_max":1515,"o":"m 1076 565 l 1403 565 l 1375 417 l 1049 417 l 1003 154 l 1371 154 l 1343 0 l 781 0 l 804 129 q 464 -11 668 -8 q 256 39 347 -11 q 114 180 165 89 q 63 389 63 271 q 71 486 63 436 q 181 742 96 629 q 386 919 265 856 q 638 983 507 983 q 811 949 736 983 q 931 846 886 914 l 951 969 l 1515 969 l 1488 817 l 1119 817 l 1076 565 m 269 486 q 263 414 263 444 q 329 233 263 300 q 510 167 396 167 q 672 206 597 167 q 797 318 746 246 q 864 486 847 390 q 871 557 871 528 q 804 738 871 671 q 622 804 738 804 q 461 765 535 804 q 337 654 388 726 q 269 486 286 582 z "},"œ":{"ha":1461,"x_min":35,"x_max":1414,"o":"m 1094 782 q 1328 701 1242 782 q 1414 482 1414 619 q 1407 403 1414 438 q 1388 331 1401 371 l 828 331 q 826 299 826 319 q 866 188 826 226 q 975 149 906 149 q 1076 174 1033 149 q 1144 242 1118 200 l 1354 242 q 1195 59 1303 131 q 950 -12 1088 -12 q 792 24 860 -12 q 688 129 724 61 q 540 24 624 61 q 364 -12 456 -12 q 192 26 267 -12 q 76 135 118 64 q 35 300 35 206 q 43 385 35 342 q 132 593 64 503 q 299 733 200 683 q 510 782 399 782 q 669 745 599 782 q 779 643 739 708 q 922 746 840 710 q 1094 782 1003 782 m 1213 444 q 1215 479 1215 469 q 1172 584 1215 546 q 1061 622 1129 622 q 928 575 988 622 q 847 444 869 528 l 1213 444 m 635 385 q 640 443 640 413 q 594 571 640 526 q 476 615 547 615 q 328 555 394 615 q 242 385 261 494 q 236 326 236 357 q 280 199 236 243 q 394 154 324 154 q 497 181 447 154 q 585 259 547 207 q 635 385 622 311 z "},"Ŕ":{"ha":890,"x_min":24,"x_max":861,"o":"m 560 969 q 785 902 708 969 q 861 726 861 835 q 857 672 861 700 q 772 501 840 578 q 588 393 703 424 l 750 0 l 524 0 l 379 378 l 286 378 l 219 0 l 24 0 l 196 969 l 560 969 m 657 668 q 660 701 660 693 q 626 783 660 754 q 525 813 593 813 l 363 813 l 311 522 l 474 522 q 598 561 551 522 q 657 668 644 600 m 731 1171 l 383 1025 l 408 1164 l 758 1329 l 731 1171 z "},"ŕ":{"ha":561,"x_min":24,"x_max":626,"o":"m 332 633 q 449 742 382 703 q 593 781 515 781 l 557 576 l 506 576 q 367 539 419 576 q 292 411 315 501 l 219 0 l 24 0 l 160 769 l 356 769 l 332 633 m 599 969 l 251 824 l 276 963 l 626 1128 l 599 969 z "},"Ŗ":{"ha":901,"x_min":24,"x_max":861,"o":"m 560 969 q 785 902 708 969 q 861 726 861 835 q 857 672 861 700 q 772 501 840 578 q 588 393 703 424 l 750 0 l 524 0 l 379 378 l 286 378 l 219 0 l 24 0 l 196 969 l 560 969 m 657 668 q 660 701 660 693 q 626 783 660 754 q 525 813 593 813 l 363 813 l 311 522 l 474 522 q 598 561 551 522 q 657 668 644 600 m 446 -60 q 450 -122 450 -93 q 442 -210 450 -168 q 374 -351 426 -301 q 235 -401 321 -401 l 249 -322 q 304 -301 283 -322 q 333 -236 325 -281 l 338 -211 l 258 -211 l 285 -60 l 446 -60 z "},"ŗ":{"ha":561,"x_min":-22,"x_max":593,"o":"m 332 633 q 449 742 382 703 q 593 781 515 781 l 557 576 l 506 576 q 367 539 419 576 q 292 411 315 501 l 219 0 l 24 0 l 160 769 l 356 769 l 332 633 m 188 -60 q 192 -124 192 -93 q 185 -210 192 -165 q 115 -351 168 -301 q -22 -401 63 -401 l -8 -322 q 75 -236 61 -322 l 79 -211 l 0 -211 l 26 -60 l 188 -60 z "},"Ř":{"ha":890,"x_min":24,"x_max":861,"o":"m 560 969 q 785 902 708 969 q 861 726 861 835 q 857 672 861 700 q 772 501 840 578 q 588 393 703 424 l 750 0 l 524 0 l 379 378 l 286 378 l 219 0 l 24 0 l 196 969 l 560 969 m 657 668 q 660 701 660 693 q 626 783 660 754 q 525 813 593 813 l 363 813 l 311 522 l 474 522 q 598 561 551 522 q 657 668 644 600 m 781 1144 l 553 1028 l 367 1144 l 393 1286 l 578 1167 l 806 1286 l 781 1144 z "},"ř":{"ha":561,"x_min":24,"x_max":674,"o":"m 332 633 q 449 742 382 703 q 593 781 515 781 l 557 576 l 506 576 q 367 539 419 576 q 292 411 315 501 l 219 0 l 24 0 l 160 769 l 356 769 l 332 633 m 649 943 l 421 826 l 235 943 l 261 1085 l 446 965 l 674 1085 l 649 943 z "},"Ś":{"ha":847,"x_min":58,"x_max":806,"o":"m 392 -10 q 152 56 246 -10 q 58 242 58 122 q 61 279 58 254 l 260 279 q 291 183 254 221 q 399 146 328 146 q 510 176 469 146 q 551 261 551 206 q 509 343 551 313 q 376 411 467 374 q 241 475 293 446 q 152 556 189 504 q 115 688 115 608 q 162 844 115 778 q 290 947 208 911 q 475 983 371 983 q 653 949 578 983 q 767 853 729 915 q 800 707 806 790 l 593 707 l 594 722 q 560 797 594 768 q 465 826 526 826 q 360 796 400 826 q 319 713 319 765 q 342 652 319 678 q 399 608 365 626 q 494 560 432 589 q 629 492 576 524 q 719 407 682 460 q 757 278 757 354 q 712 129 757 194 q 584 27 667 64 q 392 -10 501 -10 m 718 1171 l 371 1025 l 396 1164 l 746 1329 l 718 1171 z "},"ś":{"ha":757,"x_min":24,"x_max":693,"o":"m 325 -12 q 172 16 240 -12 q 63 95 103 44 q 24 211 24 146 q 26 243 24 221 l 215 243 q 244 165 211 194 q 339 135 278 135 q 431 155 394 135 q 468 214 468 175 q 434 269 468 249 q 326 317 400 290 q 204 368 253 343 q 121 438 156 393 q 86 550 86 482 q 126 671 86 618 q 236 753 165 724 q 399 782 307 782 q 553 753 486 782 q 656 672 619 724 q 693 553 693 619 q 692 528 693 536 l 511 528 q 483 606 515 576 q 390 635 451 635 q 308 613 340 635 q 276 556 276 592 q 313 497 276 519 q 424 446 349 474 q 544 392 499 417 q 622 326 589 368 q 656 219 656 283 q 613 96 656 149 q 494 15 569 43 q 325 -12 419 -12 m 635 969 l 288 824 l 313 963 l 663 1128 l 635 969 z "},"Ş":{"ha":847,"x_min":58,"x_max":806,"o":"m 593 707 l 594 722 q 560 797 594 768 q 465 826 526 826 q 360 796 400 826 q 319 713 319 765 q 342 652 319 678 q 399 608 365 626 q 494 560 432 589 q 629 492 576 524 q 719 407 682 460 q 757 278 757 354 q 717 136 757 199 q 601 35 676 74 q 426 -8 526 -3 l 417 -62 q 528 -93 485 -62 q 572 -183 572 -124 q 569 -214 572 -192 q 497 -329 557 -289 q 358 -369 436 -369 l 161 -369 l 182 -256 l 347 -256 q 399 -246 381 -256 q 422 -211 417 -236 q 413 -177 428 -186 q 363 -168 397 -168 l 276 -168 l 306 -3 q 126 78 193 15 q 58 243 58 142 q 61 279 58 254 l 260 279 q 291 183 254 221 q 399 146 328 146 q 510 176 469 146 q 551 261 551 206 q 509 343 551 313 q 376 411 467 374 q 241 475 293 446 q 152 556 189 504 q 115 688 115 608 q 162 844 115 778 q 290 947 208 911 q 475 983 371 983 q 653 949 578 983 q 767 853 729 915 q 800 707 806 790 l 593 707 z "},"ş":{"ha":757,"x_min":24,"x_max":693,"o":"m 511 528 q 483 606 515 576 q 390 635 451 635 q 308 613 340 635 q 276 556 276 592 q 313 497 276 519 q 424 446 349 474 q 544 392 499 417 q 622 326 589 368 q 656 219 656 283 q 578 62 656 122 q 378 -10 501 1 l 368 -62 q 480 -93 436 -62 q 524 -183 524 -124 q 521 -214 524 -192 q 448 -329 508 -289 q 310 -369 388 -369 l 113 -369 l 133 -256 l 299 -256 q 350 -246 332 -256 q 374 -211 368 -236 q 364 -177 379 -186 q 314 -168 349 -168 l 228 -168 l 256 -7 q 88 68 153 8 q 24 211 24 128 q 26 243 24 221 l 215 243 q 244 165 211 194 q 339 135 278 135 q 431 155 394 135 q 468 214 468 175 q 434 269 468 249 q 326 317 400 290 q 204 368 253 343 q 121 438 156 393 q 86 550 86 482 q 126 671 86 618 q 236 753 165 724 q 399 782 307 782 q 553 753 486 782 q 656 672 619 724 q 693 553 693 619 q 692 528 693 536 l 511 528 z "},"Š":{"ha":847,"x_min":58,"x_max":806,"o":"m 392 -10 q 152 56 246 -10 q 58 242 58 122 q 61 279 58 254 l 260 279 q 291 183 254 221 q 399 146 328 146 q 510 176 469 146 q 551 261 551 206 q 509 343 551 313 q 376 411 467 374 q 241 475 293 446 q 152 556 189 504 q 115 688 115 608 q 162 844 115 778 q 290 947 208 911 q 475 983 371 983 q 653 949 578 983 q 767 853 729 915 q 800 707 806 790 l 593 707 l 594 722 q 560 797 594 768 q 465 826 526 826 q 360 796 400 826 q 319 713 319 765 q 342 652 319 678 q 399 608 365 626 q 494 560 432 589 q 629 492 576 524 q 719 407 682 460 q 757 278 757 354 q 712 129 757 194 q 584 27 667 64 q 392 -10 501 -10 m 768 1144 l 540 1028 l 354 1144 l 381 1286 l 565 1167 l 793 1286 l 768 1144 z "},"š":{"ha":757,"x_min":24,"x_max":710,"o":"m 325 -12 q 172 16 240 -12 q 63 95 103 44 q 24 211 24 146 q 26 243 24 221 l 215 243 q 244 165 211 194 q 339 135 278 135 q 431 155 394 135 q 468 214 468 175 q 434 269 468 249 q 326 317 400 290 q 204 368 253 343 q 121 438 156 393 q 86 550 86 482 q 126 671 86 618 q 236 753 165 724 q 399 782 307 782 q 553 753 486 782 q 656 672 619 724 q 693 553 693 619 q 692 528 693 536 l 511 528 q 483 606 515 576 q 390 635 451 635 q 308 613 340 635 q 276 556 276 592 q 313 497 276 519 q 424 446 349 474 q 544 392 499 417 q 622 326 589 368 q 656 219 656 283 q 613 96 656 149 q 494 15 569 43 q 325 -12 419 -12 m 685 943 l 457 826 l 271 943 l 297 1085 l 482 965 l 710 1085 l 685 943 z "},"Ţ":{"ha":801,"x_min":117,"x_max":856,"o":"m 856 969 l 828 817 l 571 817 l 426 0 l 394 0 l 383 -62 q 495 -93 451 -62 q 539 -183 539 -124 q 536 -214 539 -192 q 463 -329 524 -289 q 325 -369 403 -369 l 128 -369 l 149 -256 l 314 -256 q 365 -246 347 -256 q 389 -211 383 -236 q 379 -177 394 -186 q 329 -168 364 -168 l 243 -168 l 272 0 l 231 0 l 375 817 l 117 817 l 144 969 l 856 969 z "},"ţ":{"ha":539,"x_min":8,"x_max":558,"o":"m 293 238 q 292 215 292 229 q 308 176 292 188 q 361 164 324 164 l 453 164 l 424 0 l 300 0 l 275 0 l 264 -60 q 376 -90 332 -60 q 419 -181 419 -121 q 417 -211 419 -189 q 344 -326 404 -286 q 206 -367 283 -367 l 8 -367 l 29 -253 l 194 -253 q 246 -243 228 -253 q 269 -208 264 -233 q 260 -174 275 -183 q 210 -165 244 -165 l 124 -165 l 158 32 q 92 174 92 72 q 97 239 92 207 l 163 610 l 71 610 l 99 769 l 192 769 l 225 960 l 421 960 l 388 769 l 558 769 l 531 610 l 358 610 l 293 238 z "},"Ť":{"ha":801,"x_min":117,"x_max":856,"o":"m 856 969 l 828 817 l 571 817 l 426 0 l 231 0 l 375 817 l 117 817 l 144 969 l 856 969 m 738 1144 l 510 1028 l 324 1144 l 350 1286 l 535 1167 l 763 1286 l 738 1144 z "},"ť":{"ha":543,"x_min":71,"x_max":703,"o":"m 699 1125 q 703 1054 703 1086 q 697 989 703 1021 q 632 868 683 910 q 494 826 581 826 l 508 906 q 586 951 578 906 l 590 974 l 510 974 l 538 1125 l 699 1125 m 388 769 l 558 769 l 531 610 l 358 610 l 293 238 q 292 215 292 229 q 308 176 292 188 q 361 164 324 164 l 453 164 l 424 0 l 300 0 q 92 174 92 0 q 97 239 92 207 l 163 610 l 71 610 l 99 769 l 192 769 l 225 960 l 421 960 l 388 769 z "},"Ũ":{"ha":968,"x_min":79,"x_max":976,"o":"m 388 969 l 282 371 q 276 317 276 332 q 319 206 276 244 q 442 168 363 168 q 597 220 536 168 q 675 371 657 272 l 781 969 l 976 969 l 871 371 q 781 160 849 246 q 616 33 713 75 q 408 -10 519 -10 q 170 67 261 -10 q 79 286 79 143 q 88 371 79 325 l 193 969 l 388 969 m 349 1047 q 431 1184 378 1139 q 554 1229 485 1229 q 603 1220 582 1229 q 647 1194 624 1211 q 681 1174 667 1181 q 713 1168 696 1168 q 785 1228 765 1168 l 889 1228 q 806 1091 858 1136 q 683 1046 753 1046 q 635 1055 654 1046 q 589 1081 615 1064 q 555 1101 569 1094 q 524 1108 540 1108 q 453 1047 474 1108 l 349 1047 z "},"ũ":{"ha":918,"x_min":67,"x_max":886,"o":"m 886 769 l 750 0 l 556 0 l 572 97 q 463 19 528 47 q 325 -10 397 -10 q 136 55 206 -10 q 67 239 67 119 q 74 318 67 283 l 153 769 l 347 769 l 272 346 q 268 297 268 321 q 306 192 268 229 q 411 156 343 156 q 546 205 490 156 q 617 346 601 254 l 692 769 l 886 769 m 288 846 q 370 983 317 938 q 493 1028 424 1028 q 542 1019 521 1028 q 586 993 563 1010 q 620 973 606 979 q 651 967 635 967 q 724 1026 704 967 l 828 1026 q 744 890 797 935 q 622 844 692 844 q 574 853 593 844 q 528 879 554 863 q 494 900 508 893 q 463 907 479 907 q 392 846 413 907 l 288 846 z "},"Ū":{"ha":968,"x_min":79,"x_max":976,"o":"m 388 969 l 282 371 q 276 317 276 332 q 319 206 276 244 q 442 168 363 168 q 597 220 536 168 q 675 371 657 272 l 781 969 l 976 969 l 871 371 q 781 160 849 246 q 616 33 713 75 q 408 -10 519 -10 q 170 67 261 -10 q 79 286 79 143 q 88 371 79 325 l 193 969 l 388 969 m 894 1218 l 869 1079 l 339 1079 l 364 1218 l 894 1218 z "},"ū":{"ha":918,"x_min":67,"x_max":886,"o":"m 886 769 l 750 0 l 556 0 l 572 97 q 463 19 528 47 q 325 -10 397 -10 q 136 55 206 -10 q 67 239 67 119 q 74 318 67 283 l 153 769 l 347 769 l 272 346 q 268 297 268 321 q 306 192 268 229 q 411 156 343 156 q 546 205 490 156 q 617 346 601 254 l 692 769 l 886 769 m 833 1017 l 808 878 l 278 878 l 303 1017 l 833 1017 z "},"Ŭ":{"ha":968,"x_min":79,"x_max":976,"o":"m 388 969 l 282 371 q 276 317 276 332 q 319 206 276 244 q 442 168 363 168 q 597 220 536 168 q 675 371 657 272 l 781 969 l 976 969 l 871 371 q 781 160 849 246 q 616 33 713 75 q 408 -10 519 -10 q 170 67 261 -10 q 79 286 79 143 q 88 371 79 325 l 193 969 l 388 969 m 857 1258 q 769 1101 839 1158 q 597 1043 700 1043 q 460 1088 510 1043 q 410 1211 410 1132 q 414 1258 410 1233 l 419 1288 l 522 1288 q 519 1261 519 1268 q 544 1208 519 1226 q 624 1190 568 1190 q 719 1215 689 1190 q 758 1288 750 1239 l 863 1288 l 857 1258 z "},"ŭ":{"ha":918,"x_min":67,"x_max":886,"o":"m 886 769 l 750 0 l 556 0 l 572 97 q 463 19 528 47 q 325 -10 397 -10 q 136 55 206 -10 q 67 239 67 119 q 74 318 67 283 l 153 769 l 347 769 l 272 346 q 268 297 268 321 q 306 192 268 229 q 411 156 343 156 q 546 205 490 156 q 617 346 601 254 l 692 769 l 886 769 m 797 1057 q 710 899 779 957 q 538 842 640 842 q 400 886 450 842 q 350 1010 350 931 q 354 1057 350 1032 l 360 1086 l 463 1086 q 460 1060 460 1067 q 484 1007 460 1025 q 564 989 508 989 q 660 1013 629 989 q 699 1086 690 1038 l 803 1086 l 797 1057 z "},"Ů":{"ha":968,"x_min":79,"x_max":976,"o":"m 388 969 l 282 371 q 276 317 276 332 q 319 206 276 244 q 442 168 363 168 q 597 220 536 168 q 675 371 657 272 l 781 969 l 976 969 l 871 371 q 781 160 849 246 q 616 33 713 75 q 408 -10 519 -10 q 170 67 261 -10 q 79 286 79 143 q 88 371 79 325 l 193 969 l 388 969 m 465 1197 q 532 1313 479 1269 q 653 1357 585 1357 q 749 1323 713 1357 q 786 1231 786 1289 q 760 1130 786 1174 q 690 1062 733 1086 q 597 1038 647 1038 q 500 1072 538 1038 q 463 1164 463 1106 q 465 1197 463 1186 m 696 1213 q 679 1252 696 1238 q 636 1267 663 1267 q 584 1248 607 1267 q 556 1197 561 1229 q 554 1185 554 1193 q 570 1144 554 1160 q 613 1128 586 1128 q 671 1152 646 1128 q 696 1213 696 1176 z "},"ů":{"ha":918,"x_min":67,"x_max":886,"o":"m 886 769 l 750 0 l 556 0 l 572 97 q 463 19 528 47 q 325 -10 397 -10 q 136 55 206 -10 q 67 239 67 119 q 74 318 67 283 l 153 769 l 347 769 l 272 346 q 268 297 268 321 q 306 192 268 229 q 411 156 343 156 q 546 205 490 156 q 617 346 601 254 l 692 769 l 886 769 m 404 996 q 471 1112 418 1068 q 592 1156 524 1156 q 688 1122 651 1156 q 725 1029 725 1088 q 699 928 725 972 q 629 860 672 885 q 536 836 586 836 q 439 870 476 836 q 401 963 401 904 q 404 996 401 985 m 635 1011 q 618 1051 635 1036 q 575 1065 601 1065 q 523 1047 546 1065 q 494 996 500 1028 q 493 983 493 992 q 509 942 493 958 q 551 926 525 926 q 610 951 585 926 q 635 1011 635 975 z "},"Ű":{"ha":968,"x_min":79,"x_max":976,"o":"m 388 969 l 282 371 q 276 317 276 332 q 319 206 276 244 q 442 168 363 168 q 597 220 536 168 q 675 371 657 272 l 781 969 l 976 969 l 871 371 q 781 160 849 246 q 616 33 713 75 q 408 -10 519 -10 q 170 67 261 -10 q 79 286 79 143 q 88 371 79 325 l 193 969 l 388 969 m 519 1036 l 396 1036 l 542 1297 l 703 1297 l 519 1036 m 765 1036 l 642 1036 l 813 1297 l 972 1297 l 765 1036 z "},"ű":{"ha":918,"x_min":67,"x_max":911,"o":"m 886 769 l 750 0 l 556 0 l 572 97 q 463 19 528 47 q 325 -10 397 -10 q 136 55 206 -10 q 67 239 67 119 q 74 318 67 283 l 153 769 l 347 769 l 272 346 q 268 297 268 321 q 306 192 268 229 q 411 156 343 156 q 546 205 490 156 q 617 346 601 254 l 692 769 l 886 769 m 458 835 l 335 835 l 481 1096 l 642 1096 l 458 835 m 704 835 l 581 835 l 751 1096 l 911 1096 l 704 835 z "},"Ų":{"ha":968,"x_min":81,"x_max":976,"o":"m 976 969 l 871 371 q 749 124 844 218 q 519 1 654 31 l 449 -32 q 374 -77 397 -56 q 346 -124 351 -99 q 358 -164 342 -149 q 406 -179 374 -179 q 507 -158 451 -179 l 488 -275 q 360 -296 422 -296 q 237 -265 285 -296 q 189 -169 189 -233 q 215 -78 189 -121 q 300 3 242 -36 q 140 99 199 28 q 81 286 81 171 q 88 371 81 333 l 193 969 l 388 969 l 282 371 q 276 317 276 332 q 319 206 276 244 q 442 168 363 168 q 597 220 536 168 q 675 371 657 272 l 781 969 l 976 969 z "},"ų":{"ha":918,"x_min":67,"x_max":886,"o":"m 681 -35 q 606 -80 629 -58 q 578 -126 583 -101 q 590 -167 574 -151 q 638 -182 606 -182 q 739 -161 683 -182 l 719 -278 q 592 -299 654 -299 q 469 -267 517 -299 q 421 -172 421 -236 q 424 -144 421 -164 q 464 -60 432 -99 q 558 17 496 -21 l 572 97 q 463 19 528 47 q 325 -10 397 -10 q 136 55 206 -10 q 67 239 67 119 q 74 318 67 283 l 153 769 l 347 769 l 272 346 q 268 297 268 321 q 306 192 268 229 q 411 156 343 156 q 546 205 490 156 q 617 346 601 254 l 692 769 l 886 769 l 750 1 l 751 -1 l 681 -35 z "},"Ŵ":{"ha":1422,"x_min":131,"x_max":1492,"o":"m 1492 969 l 1049 0 l 819 0 l 760 690 l 449 0 l 221 -1 l 131 969 l 339 969 l 378 217 l 707 969 l 924 969 l 976 221 l 1282 969 l 1492 969 m 803 1154 l 574 1033 l 600 1176 l 826 1292 l 1013 1176 l 988 1033 l 803 1154 z "},"ŵ":{"ha":1172,"x_min":75,"x_max":1228,"o":"m 1228 769 l 867 0 l 656 0 l 611 535 l 375 0 l 164 0 l 75 769 l 271 769 l 304 183 l 556 769 l 761 769 l 803 185 l 1040 769 l 1228 769 m 683 947 l 454 826 l 481 969 l 707 1085 l 893 969 l 868 826 l 683 947 z "},"Ŷ":{"ha":883,"x_min":115,"x_max":967,"o":"m 967 969 l 528 338 l 468 0 l 272 0 l 333 338 l 115 969 l 335 969 l 464 529 l 747 969 l 967 969 m 575 1149 l 346 1028 l 372 1171 l 599 1286 l 785 1171 l 760 1028 l 575 1149 z "},"ŷ":{"ha":840,"x_min":14,"x_max":897,"o":"m 289 769 l 392 232 l 690 769 l 897 769 l 221 -364 l 14 -364 l 247 19 l 71 769 l 289 769 m 517 947 l 288 826 l 314 969 l 540 1085 l 726 969 l 701 826 l 517 947 z "},"Ÿ":{"ha":883,"x_min":115,"x_max":967,"o":"m 967 969 l 528 338 l 468 0 l 272 0 l 333 338 l 115 969 l 335 969 l 464 529 l 747 969 l 967 969 m 431 1063 q 374 1084 396 1063 q 351 1138 351 1106 q 385 1215 351 1182 q 463 1247 418 1247 q 518 1226 497 1247 q 539 1171 539 1204 q 506 1094 539 1126 q 431 1063 474 1063 m 688 1063 q 631 1084 653 1063 q 608 1138 608 1106 q 642 1215 608 1182 q 719 1247 675 1247 q 775 1226 754 1247 q 796 1171 796 1204 q 763 1094 796 1126 q 688 1063 731 1063 z "},"Ź":{"ha":800,"x_min":-3,"x_max":831,"o":"m 253 164 l 688 164 l 658 0 l -3 0 l 25 150 l 572 806 l 140 806 l 169 969 l 831 969 l 803 819 l 253 164 m 689 1171 l 342 1025 l 367 1164 l 717 1329 l 689 1171 z "},"ź":{"ha":671,"x_min":-18,"x_max":676,"o":"m 232 160 l 574 160 l 544 0 l -18 0 l 10 157 l 425 610 l 90 610 l 118 769 l 676 769 l 650 613 l 232 160 m 590 969 l 243 824 l 268 963 l 618 1128 l 590 969 z "},"Ż":{"ha":800,"x_min":-3,"x_max":831,"o":"m 253 164 l 688 164 l 658 0 l -3 0 l 25 150 l 572 806 l 140 806 l 169 969 l 831 969 l 803 819 l 253 164 m 517 1063 q 460 1083 482 1063 q 439 1136 439 1104 q 472 1214 439 1181 q 549 1247 504 1247 q 604 1226 583 1247 q 625 1172 625 1206 q 592 1095 625 1128 q 517 1063 560 1063 z "},"ż":{"ha":671,"x_min":-18,"x_max":676,"o":"m 232 160 l 574 160 l 544 0 l -18 0 l 10 157 l 425 610 l 90 610 l 118 769 l 676 769 l 650 613 l 232 160 m 419 861 q 363 882 385 861 q 342 935 342 903 q 374 1013 342 979 q 451 1046 407 1046 q 507 1025 486 1046 q 528 971 528 1004 q 495 894 528 926 q 419 861 463 861 z "},"Ž":{"ha":800,"x_min":-3,"x_max":831,"o":"m 253 164 l 688 164 l 658 0 l -3 0 l 25 150 l 572 806 l 140 806 l 169 969 l 831 969 l 803 819 l 253 164 m 738 1144 l 510 1028 l 324 1144 l 350 1286 l 535 1167 l 763 1286 l 738 1144 z "},"ž":{"ha":671,"x_min":-18,"x_max":676,"o":"m 232 160 l 574 160 l 544 0 l -18 0 l 10 157 l 425 610 l 90 610 l 118 769 l 676 769 l 650 613 l 232 160 m 640 943 l 413 826 l 226 943 l 253 1085 l 438 965 l 665 1085 l 640 943 z "},"Ə":{"ha":1042,"x_min":53,"x_max":1015,"o":"m 617 986 q 825 937 735 986 q 965 799 915 888 q 1015 599 1015 711 q 942 294 1015 433 q 739 72 869 154 q 444 -10 608 -10 q 242 36 331 -10 q 103 167 153 82 q 53 367 53 253 q 82 549 53 454 l 810 549 q 811 586 811 561 q 751 749 811 689 q 589 810 692 810 q 435 772 504 810 q 329 665 367 733 l 111 665 q 313 899 179 813 q 617 986 447 986 m 469 168 q 667 230 581 168 q 782 397 753 292 l 253 397 q 250 358 250 369 q 310 218 250 268 q 469 168 369 168 z "},"ƒ":{"ha":464,"x_min":-212,"x_max":582,"o":"m 538 915 q 439 892 472 915 q 390 813 406 868 l 378 769 l 506 769 l 461 610 l 333 610 l 132 -100 q 19 -280 97 -226 q -178 -333 -60 -333 l -212 -333 l -167 -169 l -137 -169 q -91 -153 -108 -169 q -62 -100 -74 -136 l 138 610 l 56 610 l 99 769 l 182 769 l 194 813 q 328 1015 235 951 q 582 1079 421 1079 l 538 915 z "},"Ǽ":{"ha":1301,"x_min":-58,"x_max":1321,"o":"m 929 818 l 886 568 l 1207 568 l 1182 418 l 860 418 l 813 154 l 1176 154 l 1149 0 l 590 0 l 622 182 l 281 182 l 153 0 l -58 0 l 629 971 l 1321 971 l 1293 818 l 929 818 m 649 332 l 736 829 l 386 332 l 649 332 m 1000 1172 l 653 1026 l 678 1165 l 1028 1331 l 1000 1172 z "},"ǽ":{"ha":1500,"x_min":35,"x_max":1458,"o":"m 1165 782 q 1379 701 1300 782 q 1458 485 1458 619 q 1451 403 1458 439 q 1432 331 1446 371 l 839 331 q 884 196 835 243 q 1006 149 933 149 q 1119 174 1072 149 q 1192 242 1167 199 l 1403 242 q 1251 58 1350 129 q 1025 -12 1151 -12 q 879 22 942 -12 q 789 114 817 57 l 768 0 l 581 0 l 601 114 q 477 22 549 57 q 325 -12 406 -12 q 174 26 240 -12 q 72 134 108 64 q 35 297 35 204 q 43 388 35 340 q 126 595 64 506 q 279 733 189 685 q 471 782 369 782 q 608 751 551 782 q 697 661 665 721 l 717 769 l 904 769 l 885 661 q 1013 753 943 724 q 1165 782 1082 782 m 1258 449 q 1261 478 1261 468 q 1214 583 1261 544 q 1092 622 1167 622 q 951 576 1015 622 q 860 449 888 529 l 1258 449 m 647 385 q 653 438 653 421 q 605 565 653 519 q 485 611 557 611 q 380 585 431 611 q 292 508 329 558 q 242 388 254 457 q 238 338 238 361 q 285 206 238 254 q 404 158 332 158 q 510 185 458 158 q 598 264 561 213 q 647 385 635 315 m 1069 969 l 722 824 l 747 963 l 1097 1128 l 1069 969 z "},"Ș":{"ha":867,"x_min":58,"x_max":806,"o":"m 392 -10 q 152 56 246 -10 q 58 242 58 122 q 61 279 58 254 l 260 279 q 291 183 254 221 q 399 146 328 146 q 510 176 469 146 q 551 261 551 206 q 509 343 551 313 q 376 411 467 374 q 241 475 293 446 q 152 556 189 504 q 115 688 115 608 q 162 844 115 778 q 290 947 208 911 q 475 983 371 983 q 653 949 578 983 q 767 853 729 915 q 800 707 806 790 l 593 707 l 594 722 q 560 797 594 768 q 465 826 526 826 q 360 796 400 826 q 319 713 319 765 q 342 652 319 678 q 399 608 365 626 q 494 560 432 589 q 629 492 576 524 q 719 407 682 460 q 757 278 757 354 q 712 129 757 194 q 584 27 667 64 q 392 -10 501 -10 m 429 -60 q 433 -129 433 -96 q 426 -210 433 -168 q 357 -351 410 -301 q 218 -401 304 -401 l 232 -322 q 317 -236 303 -322 l 321 -211 l 240 -211 l 268 -60 l 429 -60 z "},"ș":{"ha":757,"x_min":24,"x_max":693,"o":"m 325 -12 q 172 16 240 -12 q 63 95 103 44 q 24 211 24 146 q 26 243 24 221 l 215 243 q 244 165 211 194 q 339 135 278 135 q 431 155 394 135 q 468 214 468 175 q 434 269 468 249 q 326 317 400 290 q 204 368 253 343 q 121 438 156 393 q 86 550 86 482 q 126 671 86 618 q 236 753 165 724 q 399 782 307 782 q 553 753 486 782 q 656 672 619 724 q 693 553 693 619 q 692 528 693 536 l 511 528 q 483 606 515 576 q 390 635 451 635 q 308 613 340 635 q 276 556 276 592 q 313 497 276 519 q 424 446 349 474 q 544 392 499 417 q 622 326 589 368 q 656 219 656 283 q 613 96 656 149 q 494 15 569 43 q 325 -12 419 -12 m 374 -60 q 376 -126 376 -83 q 371 -210 376 -175 q 301 -351 354 -301 q 163 -401 249 -401 l 176 -322 q 261 -236 247 -322 l 265 -211 l 186 -211 l 213 -60 l 374 -60 z "},"Ț":{"ha":801,"x_min":117,"x_max":856,"o":"m 856 969 l 828 817 l 571 817 l 426 0 l 231 0 l 375 817 l 117 817 l 144 969 l 856 969 m 396 -60 q 400 -122 400 -93 q 392 -210 400 -168 q 324 -351 376 -301 q 185 -401 271 -401 l 200 -322 q 285 -236 268 -322 l 289 -211 l 208 -211 l 235 -60 l 396 -60 z "},"ț":{"ha":539,"x_min":57,"x_max":558,"o":"m 293 238 q 292 215 292 229 q 308 176 292 188 q 361 164 324 164 l 453 164 l 424 0 l 300 0 q 92 174 92 0 q 97 239 92 207 l 163 610 l 71 610 l 99 769 l 192 769 l 225 960 l 421 960 l 388 769 l 558 769 l 531 610 l 358 610 l 293 238 m 268 -60 q 272 -129 272 -96 q 265 -210 272 -168 q 196 -351 249 -301 q 57 -401 143 -401 l 71 -322 q 156 -236 142 -322 l 160 -211 l 79 -211 l 107 -60 l 268 -60 z "},"ə":{"ha":857,"x_min":39,"x_max":822,"o":"m 497 782 q 733 699 644 782 q 822 472 822 615 q 814 385 822 431 q 728 175 793 265 q 568 36 664 85 q 358 -12 472 -12 q 125 69 211 -12 q 39 288 39 150 q 46 367 39 332 q 64 439 54 408 l 626 439 q 628 467 628 449 q 585 580 628 539 q 474 621 543 621 q 373 595 415 621 q 304 528 331 569 l 94 528 q 253 710 146 639 q 497 782 361 782 m 392 147 q 524 194 465 147 q 606 321 582 240 l 239 321 q 236 289 236 299 q 279 185 236 222 q 392 147 322 147 z "},"ʼ":{"ha":382,"x_min":114,"x_max":460,"o":"m 256 969 l 460 969 l 249 619 l 114 619 l 256 969 z "},"ˆ":{"ha":440,"x_min":88,"x_max":526,"o":"m 317 947 l 88 826 l 114 969 l 340 1085 l 526 969 l 501 826 l 317 947 z "},"ˇ":{"ha":440,"x_min":108,"x_max":547,"o":"m 522 943 l 294 826 l 108 943 l 135 1085 l 319 965 l 547 1085 l 522 943 z "},"ˉ":{"ha":558,"x_min":97,"x_max":653,"o":"m 653 1017 l 628 878 l 97 878 l 122 1017 l 653 1017 z "},"˘":{"ha":471,"x_min":125,"x_max":578,"o":"m 572 1057 q 485 899 554 957 q 313 842 415 842 q 175 886 225 842 q 125 1010 125 931 q 129 1057 125 1032 l 135 1086 l 238 1086 q 235 1060 235 1067 q 259 1007 235 1025 q 339 989 283 989 q 435 1013 404 989 q 474 1086 465 1038 l 578 1086 l 572 1057 z "},"˙":{"ha":213,"x_min":110,"x_max":296,"o":"m 188 861 q 131 882 153 861 q 110 935 110 903 q 142 1013 110 979 q 219 1046 175 1046 q 275 1025 254 1046 q 296 971 296 1004 q 263 894 296 926 q 188 861 231 861 z "},"˚":{"ha":346,"x_min":115,"x_max":439,"o":"m 118 996 q 185 1112 132 1068 q 306 1156 238 1156 q 402 1122 365 1156 q 439 1029 439 1088 q 413 928 439 972 q 343 860 386 885 q 250 836 300 836 q 153 870 190 836 q 115 963 115 904 q 118 996 115 985 m 349 1011 q 332 1051 349 1036 q 289 1065 315 1065 q 237 1047 260 1065 q 208 996 214 1028 q 207 983 207 992 q 223 942 207 958 q 265 926 239 926 q 324 951 299 926 q 349 1011 349 975 z "},"˛":{"ha":349,"x_min":-83,"x_max":247,"o":"m 247 0 l 176 -33 q 102 -78 125 -57 q 74 -125 79 -100 q 85 -165 69 -150 q 133 -181 101 -181 q 235 -160 178 -181 l 215 -276 q 88 -297 150 -297 q -35 -266 13 -297 q -83 -171 -83 -235 q -81 -143 -83 -162 q -15 -31 -69 -82 q 157 68 40 21 l 218 93 l 247 0 z "},"˜":{"ha":529,"x_min":89,"x_max":629,"o":"m 89 846 q 172 983 118 938 q 294 1028 225 1028 q 343 1019 322 1028 q 388 993 364 1010 q 422 973 407 979 q 453 967 436 967 q 525 1026 506 967 l 629 1026 q 546 890 599 935 q 424 844 493 844 q 375 853 394 844 q 329 879 356 863 q 295 900 310 893 q 264 907 281 907 q 193 846 214 907 l 89 846 z "},"˝":{"ha":557,"x_min":89,"x_max":665,"o":"m 213 835 l 89 835 l 235 1096 l 396 1096 l 213 835 m 458 835 l 335 835 l 506 1096 l 665 1096 l 458 835 z "},"π":{"ha":981,"x_min":67,"x_max":1006,"o":"m 1006 769 l 981 619 l 878 619 l 768 0 l 574 0 l 683 619 l 371 619 l 261 0 l 67 0 l 176 619 l 74 619 l 100 769 l 1006 769 z "},"Ẁ":{"ha":1422,"x_min":131,"x_max":1492,"o":"m 1492 969 l 1049 0 l 819 0 l 760 690 l 449 0 l 221 -1 l 131 969 l 339 969 l 378 217 l 707 969 l 924 969 l 976 221 l 1282 969 l 1492 969 m 928 1164 l 903 1025 l 610 1171 l 638 1329 l 928 1164 z "},"ẁ":{"ha":1172,"x_min":75,"x_max":1228,"o":"m 1228 769 l 867 0 l 656 0 l 611 535 l 375 0 l 164 0 l 75 769 l 271 769 l 304 183 l 556 769 l 761 769 l 803 185 l 1040 769 l 1228 769 m 793 963 l 768 824 l 475 969 l 503 1128 l 793 963 z "},"Ẃ":{"ha":1422,"x_min":131,"x_max":1492,"o":"m 1492 969 l 1049 0 l 819 0 l 760 690 l 449 0 l 221 -1 l 131 969 l 339 969 l 378 217 l 707 969 l 924 969 l 976 221 l 1282 969 l 1492 969 m 1025 1176 l 678 1031 l 703 1169 l 1053 1335 l 1025 1176 z "},"ẃ":{"ha":1172,"x_min":75,"x_max":1228,"o":"m 1228 769 l 867 0 l 656 0 l 611 535 l 375 0 l 164 0 l 75 769 l 271 769 l 304 183 l 556 769 l 761 769 l 803 185 l 1040 769 l 1228 769 m 904 969 l 557 824 l 582 963 l 932 1128 l 904 969 z "},"Ẅ":{"ha":1422,"x_min":131,"x_max":1492,"o":"m 1492 969 l 1049 0 l 819 0 l 760 690 l 449 0 l 221 -1 l 131 969 l 339 969 l 378 217 l 707 969 l 924 969 l 976 221 l 1282 969 l 1492 969 m 660 1064 q 603 1085 625 1064 q 581 1139 581 1107 q 614 1216 581 1183 q 692 1249 647 1249 q 747 1227 726 1249 q 768 1172 768 1206 q 735 1096 768 1128 q 660 1064 703 1064 m 917 1064 q 860 1085 882 1064 q 838 1139 838 1107 q 871 1216 838 1183 q 949 1249 904 1249 q 1004 1227 983 1249 q 1025 1172 1025 1206 q 992 1096 1025 1128 q 917 1064 960 1064 z "},"ẅ":{"ha":1172,"x_min":75,"x_max":1228,"o":"m 1228 769 l 867 0 l 656 0 l 611 535 l 375 0 l 164 0 l 75 769 l 271 769 l 304 183 l 556 769 l 761 769 l 803 185 l 1040 769 l 1228 769 m 540 861 q 483 883 506 861 q 461 936 461 904 q 494 1013 461 981 q 572 1046 528 1046 q 628 1024 607 1046 q 649 969 649 1003 q 616 893 649 925 q 540 861 583 861 m 797 861 q 740 883 763 861 q 718 936 718 904 q 751 1013 718 981 q 829 1046 785 1046 q 885 1024 864 1046 q 906 969 906 1003 q 873 893 906 925 q 797 861 840 861 z "},"Ẽ":{"ha":739,"x_min":24,"x_max":775,"o":"m 364 818 l 319 567 l 646 567 l 619 417 l 293 417 l 247 154 l 615 154 l 588 0 l 24 0 l 196 971 l 758 971 l 732 818 l 364 818 m 235 1047 q 317 1184 264 1139 q 440 1229 371 1229 q 489 1220 468 1229 q 533 1194 510 1211 q 567 1174 553 1181 q 599 1168 582 1168 q 671 1228 651 1168 l 775 1228 q 692 1091 744 1136 q 569 1046 639 1046 q 521 1055 540 1046 q 475 1081 501 1064 q 441 1101 456 1094 q 410 1108 426 1108 q 339 1047 360 1108 l 235 1047 z "},"ẽ":{"ha":857,"x_min":35,"x_max":818,"o":"m 499 782 q 732 701 646 782 q 818 482 818 619 q 811 403 818 438 q 793 331 803 361 l 231 331 q 229 303 229 321 q 272 190 229 231 q 383 149 314 149 q 484 174 442 149 q 553 242 526 200 l 763 242 q 603 59 711 131 q 360 -12 496 -12 q 124 71 213 -12 q 35 297 35 154 q 43 385 35 339 q 128 594 64 504 q 289 733 193 685 q 499 782 385 782 m 618 449 q 621 481 621 471 q 578 585 621 547 q 465 622 535 622 q 333 576 392 622 q 251 449 275 529 l 618 449 m 261 846 q 344 983 290 938 q 467 1028 397 1028 q 515 1019 494 1028 q 560 993 536 1010 q 594 973 579 979 q 625 967 608 967 q 697 1026 678 967 l 801 1026 q 718 890 771 935 q 596 844 665 844 q 547 853 567 844 q 501 879 528 863 q 467 900 482 893 q 436 907 453 907 q 365 846 386 907 l 261 846 z "},"Ỳ":{"ha":883,"x_min":115,"x_max":967,"o":"m 967 969 l 528 338 l 468 0 l 272 0 l 333 338 l 115 969 l 335 969 l 464 529 l 747 969 l 967 969 m 728 1164 l 703 1025 l 410 1171 l 438 1329 l 728 1164 z "},"ỳ":{"ha":840,"x_min":14,"x_max":897,"o":"m 289 769 l 392 232 l 690 769 l 897 769 l 221 -364 l 14 -364 l 247 19 l 71 769 l 289 769 m 671 963 l 646 824 l 353 969 l 381 1128 l 671 963 z "},"Ỹ":{"ha":883,"x_min":115,"x_max":967,"o":"m 967 969 l 528 338 l 468 0 l 272 0 l 333 338 l 115 969 l 335 969 l 464 529 l 747 969 l 967 969 m 306 1047 q 388 1184 335 1139 q 511 1229 442 1229 q 560 1220 539 1229 q 604 1194 581 1211 q 638 1174 624 1181 q 669 1168 653 1168 q 742 1228 722 1168 l 846 1228 q 763 1091 815 1136 q 640 1046 710 1046 q 592 1055 611 1046 q 546 1081 572 1064 q 512 1101 526 1094 q 481 1108 497 1108 q 410 1047 431 1108 l 306 1047 z "},"ỹ":{"ha":840,"x_min":14,"x_max":897,"o":"m 289 769 l 392 232 l 690 769 l 897 769 l 221 -364 l 14 -364 l 247 19 l 71 769 l 289 769 m 249 846 q 331 983 278 938 q 454 1028 385 1028 q 503 1019 482 1028 q 547 993 524 1010 q 581 973 567 979 q 613 967 596 967 q 685 1026 665 967 l 789 1026 q 706 890 758 935 q 583 844 653 844 q 535 853 554 844 q 489 879 515 863 q 455 900 469 893 q 424 907 440 907 q 353 846 374 907 l 249 846 z "},"–":{"ha":975,"x_min":113,"x_max":897,"o":"m 897 578 l 868 414 l 113 414 l 142 578 l 897 578 z "},"—":{"ha":1288,"x_min":113,"x_max":1208,"o":"m 1208 578 l 1179 414 l 113 414 l 142 578 l 1208 578 z "},"‘":{"ha":382,"x_min":67,"x_max":413,"o":"m 272 619 l 67 619 l 279 969 l 413 969 l 272 619 z "},"’":{"ha":382,"x_min":114,"x_max":460,"o":"m 256 969 l 460 969 l 249 619 l 114 619 l 256 969 z "},"‚":{"ha":351,"x_min":-72,"x_max":274,"o":"m 69 207 l 274 207 l 61 -143 l -72 -143 l 69 207 z "},"“":{"ha":667,"x_min":67,"x_max":697,"o":"m 272 619 l 67 619 l 279 969 l 413 969 l 272 619 m 557 619 l 351 619 l 564 969 l 697 969 l 557 619 z "},"”":{"ha":667,"x_min":114,"x_max":744,"o":"m 256 969 l 460 969 l 249 619 l 114 619 l 256 969 m 540 969 l 744 969 l 533 619 l 399 619 l 540 969 z "},"„":{"ha":639,"x_min":-72,"x_max":561,"o":"m 69 207 l 274 207 l 61 -143 l -72 -143 l 69 207 m 356 207 l 561 207 l 349 -143 l 215 -143 l 356 207 z "},"†":{"ha":857,"x_min":107,"x_max":851,"o":"m 826 619 l 547 636 l 390 -367 l 194 -367 l 392 636 l 107 619 l 133 769 l 413 754 l 451 1092 l 646 1092 l 568 754 l 851 769 l 826 619 z "},"‡":{"ha":857,"x_min":-10,"x_max":851,"o":"m 547 636 l 450 90 l 736 106 l 708 -44 l 429 -28 l 389 -367 l 194 -367 l 274 -28 l -10 -44 l 17 106 l 294 90 l 392 636 l 108 619 l 133 769 l 413 754 l 451 1092 l 646 1092 l 568 754 l 851 769 l 826 619 l 547 636 z "},"•":{"ha":667,"x_min":146,"x_max":542,"o":"m 308 269 q 192 315 238 269 q 146 429 146 360 q 178 543 146 490 q 265 626 211 596 q 378 657 318 657 q 496 613 450 657 q 542 499 542 568 q 509 385 542 438 q 422 301 476 332 q 308 269 368 269 z "},"…":{"ha":965,"x_min":7,"x_max":858,"o":"m 413 -10 q 339 17 367 -10 q 311 83 311 43 q 353 178 311 139 q 453 218 396 218 q 526 192 499 218 q 553 125 553 167 q 511 30 553 69 q 413 -10 469 -10 m 718 -10 q 644 17 672 -10 q 617 83 617 43 q 659 178 617 139 q 758 218 701 218 q 831 192 804 218 q 858 125 858 167 q 817 30 858 69 q 718 -10 775 -10 m 108 -10 q 35 17 63 -10 q 7 83 7 43 q 49 178 7 139 q 149 218 92 218 q 222 192 194 218 q 249 125 249 167 q 207 30 249 69 q 108 -10 165 -10 z "},"‰":{"ha":1550,"x_min":92,"x_max":1471,"o":"m 114 764 q 204 927 132 868 q 374 986 276 986 q 509 941 458 986 q 560 815 560 896 q 554 764 560 800 q 465 600 536 660 q 296 540 393 540 q 160 586 211 540 q 110 714 110 632 q 114 764 110 738 m 999 972 l 282 0 l 92 0 l 808 972 l 999 972 m 353 869 q 256 764 275 869 q 253 728 253 751 q 315 657 253 657 q 377 683 351 657 q 413 764 403 710 q 415 799 415 776 q 353 869 415 869 m 539 210 q 629 372 557 314 q 799 431 701 431 q 933 386 882 431 q 983 261 983 342 q 978 210 983 246 q 888 45 960 104 q 719 -14 817 -14 q 585 31 635 -14 q 535 160 535 76 q 539 210 535 183 m 1025 210 q 1117 372 1044 314 q 1286 431 1189 431 q 1421 386 1371 431 q 1471 260 1471 342 q 1467 210 1471 238 q 1376 45 1449 104 q 1207 -14 1304 -14 q 1072 32 1122 -14 q 1021 160 1021 78 q 1025 210 1021 183 m 776 315 q 715 289 740 315 q 679 210 689 263 q 676 175 676 197 q 739 103 676 103 q 801 129 775 103 q 836 210 826 156 q 839 243 839 222 q 776 315 839 315 m 1265 315 q 1203 289 1228 315 q 1168 210 1178 263 q 1164 172 1164 189 q 1181 120 1164 138 q 1226 103 1197 103 q 1290 129 1264 103 q 1325 210 1315 156 q 1328 243 1328 222 q 1265 315 1328 315 z "},"‹":{"ha":439,"x_min":63,"x_max":413,"o":"m 143 167 l 63 410 l 229 653 l 413 653 l 242 410 l 326 167 l 143 167 z "},"›":{"ha":439,"x_min":26,"x_max":376,"o":"m 197 410 l 113 653 l 296 653 l 376 410 l 210 167 l 26 167 l 197 410 z "},"⁄":{"ha":804,"x_min":-28,"x_max":881,"o":"m 881 972 l 164 0 l -28 0 l 690 972 l 881 972 z "},"€":{"ha":1110,"x_min":18,"x_max":1118,"o":"m 574 169 q 719 204 653 169 q 831 306 785 239 l 1054 306 q 843 74 979 157 q 544 -8 707 -8 q 346 32 433 -8 q 204 147 258 72 q 136 321 150 221 l 18 321 l 39 436 l 133 436 q 140 486 135 453 q 151 539 143 508 l 57 539 l 76 654 l 196 654 q 412 893 271 804 q 718 982 553 982 q 988 899 881 982 q 1118 668 1096 815 l 894 668 q 819 769 872 735 q 686 803 765 803 q 528 764 601 803 q 407 654 456 725 l 672 654 l 653 539 l 353 539 q 340 486 344 514 q 335 436 335 453 l 635 436 l 614 321 l 347 321 q 430 210 371 250 q 574 169 489 169 z "},"₺":{"ha":1169,"x_min":0,"x_max":1076,"o":"m 1076 613 q 960 256 1038 394 q 758 51 883 118 q 446 -17 632 -17 q 143 21 315 -17 l 199 336 l 0 297 l 22 426 l 222 465 l 239 565 l 36 525 l 58 650 l 261 692 l 313 978 l 511 978 l 468 733 l 685 776 l 661 649 l 446 606 l 429 506 l 640 547 l 618 419 l 406 378 l 371 176 q 478 167 414 167 q 749 281 658 167 q 876 613 839 394 l 1076 613 z "},"₽":{"ha":907,"x_min":-17,"x_max":918,"o":"m 615 969 q 841 904 764 969 q 918 733 918 839 q 913 678 918 717 q 851 533 899 600 q 717 426 803 467 q 513 386 632 386 l 350 386 l 332 286 l 581 286 l 554 133 l 306 133 l 282 0 l 86 0 l 110 133 l -17 133 l 11 286 l 138 286 l 154 386 l 28 386 l 54 536 l 182 536 l 258 969 l 615 969 m 714 678 q 717 711 717 689 q 683 791 717 763 q 583 819 650 819 l 426 819 l 376 536 l 533 536 q 656 574 611 536 q 714 678 701 611 z "},"ℓ":{"ha":386,"x_min":24,"x_max":401,"o":"m 401 1028 l 219 0 l 24 0 l 206 1028 l 401 1028 z "},"™":{"ha":1172,"x_min":117,"x_max":1200,"o":"m 504 979 l 485 865 l 372 865 l 307 490 l 160 490 l 228 865 l 117 865 l 136 979 l 504 979 m 1200 979 l 1114 490 l 979 490 l 1029 796 l 850 490 l 750 490 l 681 807 l 625 490 l 494 490 l 581 979 l 774 979 l 836 663 l 1019 979 l 1200 979 z "},"Ω":{"ha":1092,"x_min":-10,"x_max":1067,"o":"m 1058 497 q 984 300 1039 389 q 838 150 929 211 l 986 150 l 958 0 l 582 0 l 610 156 q 770 282 704 199 q 857 479 836 365 q 864 556 864 525 q 798 739 864 674 q 617 804 732 804 q 386 717 483 804 q 263 479 289 629 q 256 406 256 438 q 294 256 256 319 q 397 156 332 192 l 368 0 l -10 0 l 17 150 l 164 150 q 60 403 60 242 q 68 497 60 450 q 178 751 93 640 q 386 922 263 861 q 647 983 510 983 q 865 935 769 983 q 1013 799 960 888 q 1067 592 1067 710 q 1058 497 1067 547 z "},"℮":{"ha":1046,"x_min":56,"x_max":1021,"o":"m 913 188 q 463 -10 693 -10 q 249 33 342 -10 q 106 160 157 76 q 56 361 56 244 q 65 464 56 414 q 167 729 92 611 q 360 915 243 847 q 624 983 478 983 q 841 933 751 983 q 976 799 931 883 q 1021 613 1021 715 q 1014 528 1021 563 l 997 442 l 296 442 l 254 201 q 353 131 297 154 q 483 108 408 108 q 672 149 582 108 q 854 269 761 189 l 913 188 m 818 788 q 729 849 783 828 q 604 869 675 869 q 354 776 460 869 l 317 551 l 776 551 l 818 788 z "},"∂":{"ha":832,"x_min":29,"x_max":824,"o":"m 38 333 q 128 558 60 457 q 295 719 197 660 q 496 778 393 778 q 582 762 547 778 q 642 711 617 746 q 606 861 646 807 q 476 915 567 915 q 374 901 429 915 l 392 1006 q 543 1028 465 1028 q 752 942 681 1028 q 824 703 824 856 q 811 567 824 640 q 701 260 781 392 q 513 59 622 129 q 281 -11 403 -11 q 98 53 167 -11 q 29 243 29 118 q 38 333 29 286 m 576 443 q 581 494 581 472 q 553 585 581 554 q 479 615 526 615 q 372 578 422 615 q 285 477 321 542 q 236 333 250 413 q 231 275 231 304 q 257 185 231 215 q 329 154 283 154 q 438 193 386 154 q 526 298 489 232 q 576 443 563 364 z "},"∆":{"ha":992,"x_min":-44,"x_max":919,"o":"m 676 972 l 919 150 l 893 0 l -44 0 l -17 150 l 517 972 l 676 972 m 183 150 l 719 150 l 557 750 l 183 150 z "},"∏":{"ha":1033,"x_min":67,"x_max":1097,"o":"m 1097 972 l 1071 822 l 968 822 l 824 0 l 629 0 l 774 822 l 406 822 l 261 0 l 67 0 l 211 822 l 110 822 l 136 972 l 1097 972 z "},"∑":{"ha":703,"x_min":-29,"x_max":747,"o":"m 722 822 l 301 822 l 603 533 l 576 383 l 165 75 l 589 75 l 563 -74 l -29 -74 l 11 154 l 406 454 l 117 746 l 156 972 l 747 972 l 722 822 z "},"−":{"ha":786,"x_min":100,"x_max":719,"o":"m 719 578 l 690 414 l 100 414 l 129 578 l 719 578 z "},"∕":{"ha":675,"x_min":-64,"x_max":778,"o":"m 778 1315 l 125 -251 l -64 -251 l 588 1315 l 778 1315 z "},"∙":{"ha":375,"x_min":17,"x_max":258,"o":"m 118 339 q 44 365 72 339 q 17 432 17 392 q 59 527 17 488 q 158 567 101 567 q 231 541 204 567 q 258 474 258 515 q 217 378 258 418 q 118 339 175 339 z "},"√":{"ha":1217,"x_min":14,"x_max":1343,"o":"m 1343 1238 l 399 -58 l 303 -58 l 168 286 l 54 225 l 14 318 l 317 481 l 436 168 l 1214 1238 l 1343 1238 z "},"∞":{"ha":1024,"x_min":50,"x_max":1003,"o":"m 801 710 q 948 663 893 710 q 1003 532 1003 617 q 999 483 1003 508 q 901 317 979 379 q 724 256 822 256 q 597 289 649 256 q 500 379 544 322 q 386 290 451 324 q 250 256 321 256 q 104 301 158 256 q 50 432 50 347 q 54 482 50 456 q 150 648 72 586 q 328 710 228 710 q 455 676 404 710 q 546 581 506 642 q 663 674 596 639 q 801 710 729 710 m 286 390 q 366 413 325 390 q 440 472 407 435 q 381 549 408 524 q 318 575 353 575 q 249 551 278 575 q 211 482 219 526 q 208 460 208 465 q 230 408 208 426 q 286 390 251 390 m 840 483 q 843 506 843 500 q 822 557 843 539 q 767 575 801 575 q 683 551 726 575 q 606 485 639 526 q 664 415 635 439 q 735 390 693 390 q 803 415 774 390 q 840 483 832 439 z "},"∫":{"ha":389,"x_min":-193,"x_max":614,"o":"m 276 1063 q 390 1242 313 1189 q 586 1296 468 1296 l 614 1296 l 569 1132 l 547 1132 q 501 1115 518 1132 q 472 1063 483 1099 l 144 -100 q 30 -280 108 -226 q -167 -333 -49 -333 l -193 -333 l -149 -169 l -125 -169 q -79 -153 -97 -169 q -51 -100 -61 -136 l 276 1063 z "},"≈":{"ha":822,"x_min":28,"x_max":807,"o":"m 28 213 q 321 475 119 475 q 393 462 363 475 q 461 424 424 449 q 510 394 489 404 q 557 385 532 385 q 622 407 593 385 q 664 474 650 429 l 807 474 q 685 276 761 340 q 513 211 610 211 q 440 224 471 211 q 374 263 410 238 q 322 292 342 283 q 278 301 303 301 q 213 278 242 301 q 169 213 185 256 l 28 213 m 28 539 q 321 801 119 801 q 393 788 363 801 q 461 750 424 775 q 510 721 489 731 q 557 711 532 711 q 622 733 593 711 q 664 800 650 756 l 807 800 q 685 602 761 667 q 513 538 610 538 q 440 551 471 538 q 374 589 410 564 q 322 619 342 610 q 278 628 303 628 q 213 605 242 628 q 169 539 185 582 l 28 539 z "},"≠":{"ha":1001,"x_min":82,"x_max":975,"o":"m 844 747 l 951 747 l 921 574 l 671 574 l 511 414 l 893 414 l 863 240 l 338 240 l 207 110 l 82 110 l 213 240 l 106 240 l 136 414 l 386 414 l 546 574 l 164 574 l 194 747 l 719 747 l 850 878 l 975 878 l 844 747 z "},"≤":{"ha":743,"x_min":50,"x_max":719,"o":"m 372 546 l 628 285 l 378 285 l 121 544 l 469 806 l 719 806 l 372 546 m 75 199 l 607 199 l 581 50 l 50 50 l 75 199 z "},"≥":{"ha":743,"x_min":38,"x_max":674,"o":"m 75 285 l 421 546 l 167 806 l 415 806 l 674 544 l 324 285 l 75 285 m 64 199 l 594 199 l 569 50 l 38 50 l 64 199 z "},"◊":{"ha":779,"x_min":51,"x_max":758,"o":"m 758 489 l 342 135 l 51 489 l 468 842 l 758 489 m 246 489 l 376 328 l 564 489 l 433 649 l 246 489 z "}}}
